<?xml version="1.0" encoding="utf-8"?>
<!-- Generator: Adobe Illustrator 23.0.6, SVG Export Plug-In . SVG Version: 6.00 Build 0)  -->
<svg version="1.1" id="Layer_1" xmlns="http://www.w3.org/2000/svg" xmlns:xlink="http://www.w3.org/1999/xlink" x="0px" y="0px"
	 viewBox="0 0 120 70" style="enable-background:new 0 0 120 70;" xml:space="preserve">
<style type="text/css">
	.st0{fill:#D8EDF8;}
</style>
<g>
	<path class="st0" d="M118,64.9c-0.7,0-1.3,0.6-1.3,1.3c0,0.7,0.6,1.3,1.3,1.3c0.7,0,1.3-0.6,1.3-1.3
		C119.2,65.5,118.7,64.9,118,64.9z"/>
	<path class="st0" d="M107.6,64.9c-0.7,0-1.3,0.6-1.3,1.3c0,0.7,0.6,1.3,1.3,1.3c0.7,0,1.3-0.6,1.3-1.3
		C108.8,65.5,108.3,64.9,107.6,64.9z"/>
	<path class="st0" d="M97.2,64.7c-0.8,0-1.4,0.6-1.4,1.4c0,0.8,0.6,1.4,1.4,1.4c0.8,0,1.4-0.6,1.4-1.4C98.6,65.4,98,64.7,97.2,64.7z
		"/>
	<path class="st0" d="M86.8,64.5c-0.9,0-1.6,0.7-1.6,1.6c0,0.9,0.7,1.6,1.6,1.6c0.9,0,1.6-0.7,1.6-1.6
		C88.4,65.3,87.7,64.5,86.8,64.5z"/>
	<path class="st0" d="M76.4,64.4c-1,0-1.8,0.8-1.8,1.8c0,1,0.8,1.8,1.8,1.8c1,0,1.8-0.8,1.8-1.8C78.2,65.2,77.4,64.4,76.4,64.4z"/>
	<path class="st0" d="M66,64.2c-1.1,0-1.9,0.9-1.9,1.9c0,1.1,0.9,1.9,1.9,1.9c1.1,0,1.9-0.9,1.9-1.9C68,65.1,67.1,64.2,66,64.2z"/>
	<path class="st0" d="M55.6,64.1c-1.2,0-2.1,0.9-2.1,2.1c0,1.2,0.9,2.1,2.1,2.1c1.2,0,2.1-0.9,2.1-2.1C57.7,65,56.8,64.1,55.6,64.1z
		"/>
	<path class="st0" d="M45.3,63.9c-1.3,0-2.3,1-2.3,2.3s1,2.3,2.3,2.3c1.3,0,2.3-1,2.3-2.3S46.5,63.9,45.3,63.9z"/>
	<ellipse transform="matrix(0.9246 -0.3809 0.3809 0.9246 -22.5705 18.2702)" class="st0" cx="34.9" cy="66.2" rx="2.4" ry="2.4"/>
	<ellipse transform="matrix(0.9246 -0.3808 0.3808 0.9246 -23.3492 14.3105)" class="st0" cx="24.5" cy="66.2" rx="2.6" ry="2.6"/>
	<path class="st0" d="M14.1,63.4c-1.5,0-2.8,1.2-2.8,2.8c0,1.5,1.2,2.8,2.8,2.8c1.5,0,2.8-1.2,2.8-2.8
		C16.9,64.6,15.6,63.4,14.1,63.4z"/>
	<ellipse transform="matrix(0.9247 -0.3807 0.3807 0.9247 -24.9028 6.3947)" class="st0" cx="3.7" cy="66.2" rx="2.9" ry="2.9"/>
	<ellipse transform="matrix(0.9247 -0.3807 0.3807 0.9247 -20.9496 5.6129)" class="st0" cx="3.7" cy="55.8" rx="2.9" ry="2.9"/>
	<ellipse transform="matrix(0.9247 -0.3807 0.3807 0.9247 -16.9963 4.831)" class="st0" cx="3.7" cy="45.4" rx="2.9" ry="2.9"/>
	<ellipse transform="matrix(0.9247 -0.3807 0.3807 0.9247 -13.0431 4.0492)" class="st0" cx="3.7" cy="35" rx="2.9" ry="2.9"/>
	<ellipse transform="matrix(0.9247 -0.3807 0.3807 0.9247 -9.0899 3.2674)" class="st0" cx="3.7" cy="24.6" rx="2.9" ry="2.9"/>
	<ellipse transform="matrix(0.9247 -0.3807 0.3807 0.9247 -5.1367 2.4856)" class="st0" cx="3.7" cy="14.2" rx="2.9" ry="2.9"/>
	<ellipse transform="matrix(0.9247 -0.3807 0.3807 0.9247 -1.1835 1.7037)" class="st0" cx="3.7" cy="3.8" rx="2.9" ry="2.9"/>
</g>
</svg>
