<?xml version="1.0" encoding="utf-8"?>
<!-- Generator: Adobe Illustrator 23.0.6, SVG Export Plug-In . SVG Version: 6.00 Build 0)  -->
<svg version="1.1" id="Layer_1" xmlns="http://www.w3.org/2000/svg" xmlns:xlink="http://www.w3.org/1999/xlink" x="0px" y="0px"
	 viewBox="0 0 120 70" style="enable-background:new 0 0 120 70;" xml:space="preserve">
<style type="text/css">
	.st0{fill:#D8EDF8;}
</style>
<g>
	<path class="st0" d="M2,5.1c0.7,0,1.3-0.6,1.3-1.3S2.7,2.6,2,2.6c-0.7,0-1.3,0.6-1.3,1.3S1.3,5.1,2,5.1z"/>
	<path class="st0" d="M12.4,5.1c0.7,0,1.3-0.6,1.3-1.3s-0.6-1.3-1.3-1.3c-0.7,0-1.3,0.6-1.3,1.3S11.7,5.1,12.4,5.1z"/>
	<path class="st0" d="M22.8,5.3c0.8,0,1.4-0.6,1.4-1.4s-0.6-1.4-1.4-1.4c-0.8,0-1.4,0.6-1.4,1.4S22,5.3,22.8,5.3z"/>
	<path class="st0" d="M33.2,5.5c0.9,0,1.6-0.7,1.6-1.6s-0.7-1.6-1.6-1.6S31.6,3,31.6,3.8S32.3,5.5,33.2,5.5z"/>
	<path class="st0" d="M43.6,5.6c1,0,1.8-0.8,1.8-1.8s-0.8-1.8-1.8-1.8c-1,0-1.8,0.8-1.8,1.8S42.6,5.6,43.6,5.6z"/>
	<path class="st0" d="M54,5.8c1.1,0,1.9-0.9,1.9-1.9S55,1.9,54,1.9c-1.1,0-1.9,0.9-1.9,1.9S52.9,5.8,54,5.8z"/>
	<path class="st0" d="M64.4,5.9c1.2,0,2.1-0.9,2.1-2.1s-0.9-2.1-2.1-2.1c-1.2,0-2.1,0.9-2.1,2.1S63.2,5.9,64.4,5.9z"/>
	<path class="st0" d="M74.7,6.1c1.3,0,2.3-1,2.3-2.3s-1-2.3-2.3-2.3c-1.3,0-2.3,1-2.3,2.3S73.5,6.1,74.7,6.1z"/>
	<ellipse transform="matrix(0.9246 -0.3809 0.3809 0.9246 4.9534 32.7157)" class="st0" cx="85.1" cy="3.8" rx="2.4" ry="2.4"/>
	<ellipse transform="matrix(0.9246 -0.3808 0.3808 0.9246 5.7337 36.6644)" class="st0" cx="95.5" cy="3.8" rx="2.6" ry="2.6"/>
	<path class="st0" d="M105.9,6.6c1.5,0,2.8-1.2,2.8-2.8s-1.2-2.8-2.8-2.8c-1.5,0-2.8,1.2-2.8,2.8S104.4,6.6,105.9,6.6z"/>
	<ellipse transform="matrix(0.9247 -0.3807 0.3807 0.9247 7.2909 44.5533)" class="st0" cx="116.3" cy="3.8" rx="2.9" ry="2.9"/>
	<ellipse transform="matrix(0.9247 -0.3807 0.3807 0.9247 3.3377 45.3352)" class="st0" cx="116.3" cy="14.2" rx="2.9" ry="2.9"/>
	<ellipse transform="matrix(0.9247 -0.3807 0.3807 0.9247 -0.6155 46.117)" class="st0" cx="116.3" cy="24.6" rx="2.9" ry="2.9"/>
	<ellipse transform="matrix(0.9247 -0.3807 0.3807 0.9247 -4.5687 46.8988)" class="st0" cx="116.3" cy="35" rx="2.9" ry="2.9"/>
	<ellipse transform="matrix(0.9247 -0.3807 0.3807 0.9247 -8.522 47.6807)" class="st0" cx="116.3" cy="45.4" rx="2.9" ry="2.9"/>
	<ellipse transform="matrix(0.9247 -0.3807 0.3807 0.9247 -12.4752 48.4625)" class="st0" cx="116.3" cy="55.8" rx="2.9" ry="2.9"/>
	<ellipse transform="matrix(0.9247 -0.3807 0.3807 0.9247 -16.4284 49.2443)" class="st0" cx="116.3" cy="66.2" rx="2.9" ry="2.9"/>
</g>
</svg>
