<?xml version="1.0" encoding="utf-8"?>
<!-- Generator: Adobe Illustrator 23.0.6, SVG Export Plug-In . SVG Version: 6.00 Build 0)  -->
<svg version="1.1" id="Capa_1" xmlns="http://www.w3.org/2000/svg" xmlns:xlink="http://www.w3.org/1999/xlink" x="0px" y="0px"
	 viewBox="0 0 462 462" style="enable-background:new 0 0 462 462;" xml:space="preserve">
<style type="text/css">
	.st0{fill:url(#SVGID_1_);}
	.st1{fill:url(#SVGID_2_);}
	.st2{fill:url(#SVGID_3_);}
	.st3{fill:url(#SVGID_4_);}
	.st4{fill:url(#SVGID_5_);}
	.st5{fill:url(#SVGID_6_);}
	.st6{fill:url(#SVGID_7_);}
	.st7{fill:url(#SVGID_8_);}
	.st8{fill:url(#SVGID_9_);}
	.st9{fill:url(#SVGID_10_);}
	.st10{fill:url(#SVGID_11_);}
	.st11{fill:url(#SVGID_12_);}
	.st12{fill:url(#SVGID_13_);}
	.st13{fill:url(#SVGID_14_);}
	.st14{fill:url(#SVGID_15_);}
	.st15{fill:url(#SVGID_16_);}
	.st16{fill:url(#SVGID_17_);}
	.st17{fill:url(#SVGID_18_);}
	.st18{fill:url(#SVGID_19_);}
	.st19{fill:url(#SVGID_20_);}
	.st20{fill:url(#SVGID_21_);}
	.st21{fill:url(#SVGID_22_);}
</style>
<g>
	<linearGradient id="SVGID_1_" gradientUnits="userSpaceOnUse" x1="137.2" y1="101.45" x2="324.9" y2="101.45">
		<stop  offset="2.131116e-08" style="stop-color:#29AAE1"/>
		<stop  offset="1" style="stop-color:#005ABB"/>
	</linearGradient>
	<path class="st0" d="M137.2,162.4v30.5c0,5.5,4.5,10,10,10h167.7c5.5,0,10-4.5,10-10v-30.5c0-32.4-22.1-60.7-53.2-68.7
		c9.6-10.3,15.1-23.9,15.1-38C286.7,25,261.7,0,231,0s-55.7,25-55.7,55.7c0,14.1,5.5,27.7,15.1,38
		C159.3,101.8,137.2,130,137.2,162.4z M231,20c19.7,0,35.7,16,35.7,35.7s-16,35.7-35.7,35.7s-35.7-16-35.7-35.7S211.3,20,231,20z
		 M208.1,111.5h45.7c28.1,0,51,22.9,51,51V183H157.2v-20.5C157.2,134.3,180,111.5,208.1,111.5z"/>
	<linearGradient id="SVGID_2_" gradientUnits="userSpaceOnUse" x1="0" y1="360.55" x2="187.7" y2="360.55">
		<stop  offset="2.131116e-08" style="stop-color:#29AAE1"/>
		<stop  offset="1" style="stop-color:#005ABB"/>
	</linearGradient>
	<path class="st1" d="M134.5,352.8c9.6-10.3,15.1-23.9,15.1-38c0-30.7-25-55.7-55.7-55.7s-55.7,25-55.7,55.7
		c0,14.1,5.5,27.7,15.1,38C22.1,360.9,0,389.1,0,421.5V452c0,5.5,4.5,10,10,10h167.7c5.5,0,10-4.5,10-10v-30.5
		C187.7,389.1,165.5,360.9,134.5,352.8z M93.8,279.1c19.7,0,35.7,16,35.7,35.7s-16,35.7-35.7,35.7s-35.7-16-35.7-35.7
		S74.1,279.1,93.8,279.1z M71,370.6h45.7c28.1,0,51,22.9,51,51V442H20v-20.5C20,393.4,42.9,370.6,71,370.6z"/>
	<linearGradient id="SVGID_3_" gradientUnits="userSpaceOnUse" x1="274.4" y1="360.55" x2="462" y2="360.55">
		<stop  offset="2.131116e-08" style="stop-color:#29AAE1"/>
		<stop  offset="1" style="stop-color:#005ABB"/>
	</linearGradient>
	<path class="st2" d="M408.8,352.8c9.6-10.3,15.1-23.9,15.1-38c0-30.7-25-55.7-55.7-55.7s-55.7,25-55.7,55.7
		c0,14.1,5.5,27.7,15.1,38c-31.1,8-53.2,36.2-53.2,68.7V452c0,5.5,4.5,10,10,10H452c5.5,0,10-4.5,10-10v-30.5
		C462,389.1,439.9,360.9,408.8,352.8z M368.2,279.1c19.7,0,35.7,16,35.7,35.7s-16,35.7-35.7,35.7s-35.7-16-35.7-35.7
		S348.5,279.1,368.2,279.1z M345.3,370.6H391c28.1,0,51,22.9,51,51V442H294.3v-20.5C294.3,393.4,317.2,370.6,345.3,370.6z"/>
	<linearGradient id="SVGID_4_" gradientUnits="userSpaceOnUse" x1="30.6" y1="254.3" x2="52.1" y2="254.3">
		<stop  offset="2.131116e-08" style="stop-color:#29AAE1"/>
		<stop  offset="1" style="stop-color:#005ABB"/>
	</linearGradient>
	<path class="st3" d="M31.9,262.7l0.3,2.4l19.9-2.4l-0.3-2.4c-0.6-4.7-1-9.6-1.1-14.4l-0.1-2.4l-20,0.8l0.1,2.4
		C30.9,252,31.3,257.4,31.9,262.7z"/>
	<linearGradient id="SVGID_5_" gradientUnits="userSpaceOnUse" x1="30.4" y1="223.1" x2="52" y2="223.1">
		<stop  offset="2.131116e-08" style="stop-color:#29AAE1"/>
		<stop  offset="1" style="stop-color:#005ABB"/>
	</linearGradient>
	<path class="st4" d="M50.6,231.5c0.2-4.8,0.6-9.6,1.1-14.4l0.3-2.4l-19.9-2.4l-0.3,2.4c-0.6,5.4-1.1,10.7-1.3,16l-0.1,2.4l20,0.8
		L50.6,231.5z"/>
	<linearGradient id="SVGID_6_" gradientUnits="userSpaceOnUse" x1="95.3" y1="91.75" x2="123.5" y2="91.75">
		<stop  offset="2.131116e-08" style="stop-color:#29AAE1"/>
		<stop  offset="1" style="stop-color:#005ABB"/>
	</linearGradient>
	<path class="st5" d="M110.5,104.2c3.6-3.2,7.3-6.3,11.1-9.2l1.9-1.4l-12.1-15.9l-1.9,1.4c-4.2,3.2-8.4,6.7-12.4,10.2l-1.8,1.6
		l13.4,14.9L110.5,104.2z"/>
	<linearGradient id="SVGID_7_" gradientUnits="userSpaceOnUse" x1="42.5" y1="164.2" x2="68.6" y2="164.2">
		<stop  offset="2.131116e-08" style="stop-color:#29AAE1"/>
		<stop  offset="1" style="stop-color:#005ABB"/>
	</linearGradient>
	<path class="st6" d="M62,175.1c1.7-4.5,3.6-9,5.6-13.3l1-2.2l-18.1-8.5l-1,2.2c-2.3,4.8-4.4,9.8-6.2,14.8l-0.8,2.2l18.7,7L62,175.1
		z"/>
	<linearGradient id="SVGID_8_" gradientUnits="userSpaceOnUse" x1="33.9" y1="193.1" x2="58.1" y2="193.1">
		<stop  offset="2.131116e-08" style="stop-color:#29AAE1"/>
		<stop  offset="1" style="stop-color:#005ABB"/>
	</linearGradient>
	<path class="st7" d="M54,202.8c1-4.8,2.1-9.5,3.4-14l0.7-2.3L38.9,181l-0.7,2.3c-1.4,5-2.7,10.3-3.8,15.6l-0.5,2.3l19.6,4L54,202.8
		z"/>
	<linearGradient id="SVGID_9_" gradientUnits="userSpaceOnUse" x1="73.5" y1="112.9" x2="101.7" y2="112.9">
		<stop  offset="2.131116e-08" style="stop-color:#29AAE1"/>
		<stop  offset="1" style="stop-color:#005ABB"/>
	</linearGradient>
	<path class="st8" d="M90.6,125.2c3-3.7,6.2-7.4,9.5-10.9l1.6-1.7L87.2,98.8l-1.6,1.7c-3.7,3.8-7.2,7.9-10.6,12l-1.5,1.9L89.1,127
		L90.6,125.2z"/>
	<linearGradient id="SVGID_10_" gradientUnits="userSpaceOnUse" x1="120.6" y1="74.35" x2="147.9" y2="74.35">
		<stop  offset="2.131116e-08" style="stop-color:#29AAE1"/>
		<stop  offset="1" style="stop-color:#005ABB"/>
	</linearGradient>
	<path class="st9" d="M133.4,86.7c4-2.6,8.2-5.1,12.4-7.3l2.1-1.1l-9.4-17.6l-2.1,1.1c-4.6,2.5-9.3,5.2-13.8,8.1l-2,1.3L131.4,88
		L133.4,86.7z"/>
	<linearGradient id="SVGID_11_" gradientUnits="userSpaceOnUse" x1="55.8" y1="137.3" x2="83.3" y2="137.3">
		<stop  offset="2.131116e-08" style="stop-color:#29AAE1"/>
		<stop  offset="1" style="stop-color:#005ABB"/>
	</linearGradient>
	<path class="st10" d="M74.3,149c2.4-4.1,4.9-8.2,7.7-12.2l1.3-2l-16.5-11.3l-1.3,2c-3,4.4-5.9,9-8.5,13.6l-1.2,2.1l17.4,9.9
		L74.3,149z"/>
	<linearGradient id="SVGID_12_" gradientUnits="userSpaceOnUse" x1="189.1" y1="426.55" x2="212" y2="426.55">
		<stop  offset="2.131116e-08" style="stop-color:#29AAE1"/>
		<stop  offset="1" style="stop-color:#005ABB"/>
	</linearGradient>
	<path class="st11" d="M195.4,415.6l-2.3-0.5l-4,19.6l2.3,0.5c5.1,1,10.5,1.9,15.9,2.5l2.4,0.3l2.3-19.9l-2.4-0.3
		C204.8,417.3,200,416.5,195.4,415.6z"/>
	<linearGradient id="SVGID_13_" gradientUnits="userSpaceOnUse" x1="250.4" y1="426.5" x2="273.3" y2="426.5">
		<stop  offset="2.131116e-08" style="stop-color:#29AAE1"/>
		<stop  offset="1" style="stop-color:#005ABB"/>
	</linearGradient>
	<path class="st12" d="M267.1,415.5c-4.7,0.9-9.5,1.7-14.3,2.3l-2.4,0.3l2.4,19.9l2.4-0.3c5.3-0.6,10.6-1.5,15.8-2.6l2.3-0.5
		l-4-19.6L267.1,415.5z"/>
	<linearGradient id="SVGID_14_" gradientUnits="userSpaceOnUse" x1="220.9" y1="429.05" x2="241.7" y2="429.05">
		<stop  offset="2.131116e-08" style="stop-color:#29AAE1"/>
		<stop  offset="1" style="stop-color:#005ABB"/>
	</linearGradient>
	<path class="st13" d="M238.5,419c-5,0.2-9.9,0.2-14.4,0l-2.4-0.1l-0.8,20l2.4,0.1c2.5,0.1,5,0.2,7.8,0.2c2.9,0,5.6-0.1,8.2-0.2
		l2.4-0.1l-0.8-20L238.5,419z"/>
	<linearGradient id="SVGID_15_" gradientUnits="userSpaceOnUse" x1="349.7" y1="101.95" x2="378" y2="101.95">
		<stop  offset="2.131116e-08" style="stop-color:#29AAE1"/>
		<stop  offset="1" style="stop-color:#005ABB"/>
	</linearGradient>
	<path class="st14" d="M351.6,104.3c3.6,3.2,7,6.6,10.3,10.1l1.6,1.7l14.5-13.8l-1.6-1.7c-3.7-3.9-7.5-7.6-11.5-11.2l-1.8-1.6
		l-13.4,14.9L351.6,104.3z"/>
	<linearGradient id="SVGID_16_" gradientUnits="userSpaceOnUse" x1="369.8" y1="124.75" x2="397.8" y2="124.75">
		<stop  offset="2.131116e-08" style="stop-color:#29AAE1"/>
		<stop  offset="1" style="stop-color:#005ABB"/>
	</linearGradient>
	<path class="st15" d="M371.4,125.2c3,3.7,5.9,7.6,8.6,11.6l1.3,2l16.5-11.3l-1.3-2c-3-4.4-6.3-8.8-9.6-12.9l-1.5-1.9l-15.6,12.6
		L371.4,125.2z"/>
	<linearGradient id="SVGID_17_" gradientUnits="userSpaceOnUse" x1="411.3" y1="238.7" x2="431.6" y2="238.7">
		<stop  offset="2.131116e-08" style="stop-color:#29AAE1"/>
		<stop  offset="1" style="stop-color:#005ABB"/>
	</linearGradient>
	<path class="st16" d="M411.4,231.5c0.1,2.3,0.1,4.7,0.1,7.1c0,2.5,0,5-0.1,7.3l-0.1,2.4l20,0.8l0.1-2.4c0.1-2.7,0.2-5.4,0.2-8.1
		c0-2.6-0.1-5.3-0.2-7.9l-0.1-2.4l-20,0.8L411.4,231.5z"/>
	<linearGradient id="SVGID_18_" gradientUnits="userSpaceOnUse" x1="386.5" y1="150.5" x2="413.5" y2="150.5">
		<stop  offset="2.131116e-08" style="stop-color:#29AAE1"/>
		<stop  offset="1" style="stop-color:#005ABB"/>
	</linearGradient>
	<path class="st17" d="M387.7,149c2.4,4.1,4.6,8.4,6.7,12.8l1,2.2l18.1-8.5l-1-2.2c-2.3-4.8-4.8-9.6-7.4-14.2l-1.2-2.1l-17.4,10
		L387.7,149z"/>
	<linearGradient id="SVGID_19_" gradientUnits="userSpaceOnUse" x1="399.2" y1="178.5" x2="424.4" y2="178.5">
		<stop  offset="2.131116e-08" style="stop-color:#29AAE1"/>
		<stop  offset="1" style="stop-color:#005ABB"/>
	</linearGradient>
	<path class="st18" d="M400,175.1c1.7,4.4,3.2,9,4.5,13.7l0.7,2.3l19.2-5.5l-0.7-2.3c-1.5-5.1-3.2-10.2-5-15.2l-0.8-2.2l-18.7,7
		L400,175.1z"/>
	<linearGradient id="SVGID_20_" gradientUnits="userSpaceOnUse" x1="407.6" y1="208.05" x2="430.5" y2="208.05">
		<stop  offset="2.131116e-08" style="stop-color:#29AAE1"/>
		<stop  offset="1" style="stop-color:#005ABB"/>
	</linearGradient>
	<path class="st19" d="M408,202.8c1,4.7,1.7,9.5,2.3,14.3l0.3,2.4l19.9-2.4l-0.3-2.4c-0.6-5.3-1.5-10.6-2.5-15.8l-0.5-2.3l-19.6,3.9
		L408,202.8z"/>
	<linearGradient id="SVGID_21_" gradientUnits="userSpaceOnUse" x1="326.7" y1="82.6" x2="354.5" y2="82.6">
		<stop  offset="2.131116e-08" style="stop-color:#29AAE1"/>
		<stop  offset="1" style="stop-color:#005ABB"/>
	</linearGradient>
	<path class="st20" d="M328.7,86.8c4,2.6,8,5.4,11.8,8.3l1.9,1.4l12.1-15.9l-1.9-1.4c-4.2-3.2-8.6-6.3-13.1-9.2l-2-1.3l-10.8,16.8
		L328.7,86.8z"/>
	<linearGradient id="SVGID_22_" gradientUnits="userSpaceOnUse" x1="301.1" y1="67.2" x2="327.8" y2="67.2">
		<stop  offset="2.131116e-08" style="stop-color:#29AAE1"/>
		<stop  offset="1" style="stop-color:#005ABB"/>
	</linearGradient>
	<path class="st21" d="M316.2,79.4l2.1,1.1l9.5-17.6l-2.1-1.1c-4.7-2.5-9.6-4.9-14.4-7l-2.2-0.9l-8,18.3l2.2,1
		C307.6,75,312,77.2,316.2,79.4z"/>
</g>
</svg>
