<?xml version="1.0" encoding="utf-8"?>
<!-- Generator: Adobe Illustrator 23.0.6, SVG Export Plug-In . SVG Version: 6.00 Build 0)  -->
<svg version="1.1" id="Layer_1" xmlns="http://www.w3.org/2000/svg" xmlns:xlink="http://www.w3.org/1999/xlink" x="0px" y="0px"
	 viewBox="0 0 164.2 94.5" style="enable-background:new 0 0 164.2 94.5;" xml:space="preserve">
<style type="text/css">
	.st0{opacity:0.15;}
	.st1{fill:url(#SVGID_1_);}
	.st2{fill:url(#SVGID_2_);}
	.st3{fill:url(#SVGID_3_);}
	.st4{fill:url(#SVGID_4_);}
	.st5{fill:url(#SVGID_5_);}
	.st6{fill:url(#SVGID_6_);}
	.st7{fill:url(#SVGID_7_);}
	.st8{fill:url(#SVGID_8_);}
	.st9{fill:url(#SVGID_9_);}
	.st10{fill:url(#SVGID_10_);}
	.st11{fill:url(#SVGID_11_);}
	.st12{fill:url(#SVGID_12_);}
	.st13{fill:url(#SVGID_13_);}
	.st14{fill:url(#SVGID_14_);}
	.st15{fill:url(#SVGID_15_);}
	.st16{fill:url(#SVGID_16_);}
	.st17{fill:url(#SVGID_17_);}
	.st18{fill:url(#SVGID_18_);}
</style>
<g class="st0">
	
		<linearGradient id="SVGID_1_" gradientUnits="userSpaceOnUse" x1="0" y1="4.0729" x2="3.5139" y2="4.0729" gradientTransform="matrix(-1 0 0 -1 164.2298 94.5458)">
		<stop  offset="2.663895e-08" style="stop-color:#29AAE1"/>
		<stop  offset="1" style="stop-color:#005ABB"/>
	</linearGradient>
	<path class="st1" d="M162.5,88.7c-1,0-1.8,0.8-1.8,1.8s0.8,1.8,1.8,1.8c1,0,1.8-0.8,1.8-1.8S163.4,88.7,162.5,88.7z"/>
	
		<linearGradient id="SVGID_2_" gradientUnits="userSpaceOnUse" x1="14.4" y1="4.0729" x2="17.9139" y2="4.0729" gradientTransform="matrix(-1 0 0 -1 164.2298 94.5458)">
		<stop  offset="2.663895e-08" style="stop-color:#29AAE1"/>
		<stop  offset="1" style="stop-color:#005ABB"/>
	</linearGradient>
	<path class="st2" d="M148.1,88.7c-1,0-1.8,0.8-1.8,1.8s0.8,1.8,1.8,1.8c1,0,1.8-0.8,1.8-1.8S149,88.7,148.1,88.7z"/>
	
		<linearGradient id="SVGID_3_" gradientUnits="userSpaceOnUse" x1="28.5604" y1="4.0729" x2="32.5534" y2="4.0729" gradientTransform="matrix(-1 0 0 -1 164.2298 94.5458)">
		<stop  offset="2.663895e-08" style="stop-color:#29AAE1"/>
		<stop  offset="1" style="stop-color:#005ABB"/>
	</linearGradient>
	<path class="st3" d="M133.7,88.5c-1.1,0-2,0.9-2,2s0.9,2,2,2c1.1,0,2-0.9,2-2S134.8,88.5,133.7,88.5z"/>
	
		<linearGradient id="SVGID_4_" gradientUnits="userSpaceOnUse" x1="42.7208" y1="4.0729" x2="47.193" y2="4.0729" gradientTransform="matrix(-1 0 0 -1 164.2298 94.5458)">
		<stop  offset="2.663895e-08" style="stop-color:#29AAE1"/>
		<stop  offset="1" style="stop-color:#005ABB"/>
	</linearGradient>
	<path class="st4" d="M119.3,88.2c-1.2,0-2.2,1-2.2,2.2s1,2.2,2.2,2.2c1.2,0,2.2-1,2.2-2.2S120.5,88.2,119.3,88.2z"/>
	
		<linearGradient id="SVGID_5_" gradientUnits="userSpaceOnUse" x1="56.9211" y1="4.0729" x2="61.7927" y2="4.0729" gradientTransform="matrix(-1 0 0 -1 164.2298 94.5458)">
		<stop  offset="2.663895e-08" style="stop-color:#29AAE1"/>
		<stop  offset="1" style="stop-color:#005ABB"/>
	</linearGradient>
	<path class="st5" d="M104.9,88c-1.3,0-2.4,1.1-2.4,2.4s1.1,2.4,2.4,2.4c1.3,0,2.4-1.1,2.4-2.4S106.2,88,104.9,88z"/>
	
		<linearGradient id="SVGID_6_" gradientUnits="userSpaceOnUse" x1="71.0815" y1="4.0729" x2="76.4323" y2="4.0729" gradientTransform="matrix(-1 0 0 -1 164.2298 94.5458)">
		<stop  offset="2.663895e-08" style="stop-color:#29AAE1"/>
		<stop  offset="1" style="stop-color:#005ABB"/>
	</linearGradient>
	<path class="st6" d="M90.5,87.8c-1.5,0-2.7,1.2-2.7,2.7s1.2,2.7,2.7,2.7c1.5,0,2.7-1.2,2.7-2.7S92,87.8,90.5,87.8z"/>
	
		<linearGradient id="SVGID_7_" gradientUnits="userSpaceOnUse" x1="85.242" y1="4.0729" x2="91.0719" y2="4.0729" gradientTransform="matrix(-1 0 0 -1 164.2298 94.5458)">
		<stop  offset="2.663895e-08" style="stop-color:#29AAE1"/>
		<stop  offset="1" style="stop-color:#005ABB"/>
	</linearGradient>
	<path class="st7" d="M76.1,87.6c-1.6,0-2.9,1.3-2.9,2.9s1.3,2.9,2.9,2.9c1.6,0,2.9-1.3,2.9-2.9S77.7,87.6,76.1,87.6z"/>
	
		<linearGradient id="SVGID_8_" gradientUnits="userSpaceOnUse" x1="99.4024" y1="4.0729" x2="105.7114" y2="4.0729" gradientTransform="matrix(-1 0 0 -1 164.2298 94.5458)">
		<stop  offset="2.663895e-08" style="stop-color:#29AAE1"/>
		<stop  offset="1" style="stop-color:#005ABB"/>
	</linearGradient>
	<path class="st8" d="M61.7,87.3c-1.7,0-3.2,1.4-3.2,3.2s1.4,3.2,3.2,3.2c1.7,0,3.2-1.4,3.2-3.2S63.4,87.3,61.7,87.3z"/>
	
		<linearGradient id="SVGID_9_" gradientUnits="userSpaceOnUse" x1="113.5628" y1="4.0729" x2="120.351" y2="4.0729" gradientTransform="matrix(-1 0 0 -1 164.2298 94.5458)">
		<stop  offset="2.663895e-08" style="stop-color:#29AAE1"/>
		<stop  offset="1" style="stop-color:#005ABB"/>
	</linearGradient>
	<circle class="st9" cx="47.3" cy="90.5" r="3.4"/>
	
		<linearGradient id="SVGID_10_" gradientUnits="userSpaceOnUse" x1="127.7631" y1="4.0729" x2="134.9507" y2="4.0729" gradientTransform="matrix(-1 0 0 -1 164.2298 94.5458)">
		<stop  offset="2.663895e-08" style="stop-color:#29AAE1"/>
		<stop  offset="1" style="stop-color:#005ABB"/>
	</linearGradient>
	<circle class="st10" cx="32.9" cy="90.5" r="3.6"/>
	
		<linearGradient id="SVGID_11_" gradientUnits="userSpaceOnUse" x1="141.9236" y1="4.0729" x2="149.5903" y2="4.0729" gradientTransform="matrix(-1 0 0 -1 164.2298 94.5458)">
		<stop  offset="2.663895e-08" style="stop-color:#29AAE1"/>
		<stop  offset="1" style="stop-color:#005ABB"/>
	</linearGradient>
	<path class="st11" d="M18.5,86.6c-2.1,0-3.8,1.7-3.8,3.8c0,2.1,1.7,3.8,3.8,3.8c2.1,0,3.8-1.7,3.8-3.8
		C22.3,88.4,20.6,86.6,18.5,86.6z"/>
	
		<linearGradient id="SVGID_12_" gradientUnits="userSpaceOnUse" x1="156.084" y1="4.0729" x2="164.2298" y2="4.0729" gradientTransform="matrix(-1 0 0 -1 164.2298 94.5458)">
		<stop  offset="2.663895e-08" style="stop-color:#29AAE1"/>
		<stop  offset="1" style="stop-color:#005ABB"/>
	</linearGradient>
	<circle class="st12" cx="4.1" cy="90.5" r="4.1"/>
	
		<linearGradient id="SVGID_13_" gradientUnits="userSpaceOnUse" x1="156.084" y1="18.4729" x2="164.2298" y2="18.4729" gradientTransform="matrix(-1 0 0 -1 164.2298 94.5458)">
		<stop  offset="2.663895e-08" style="stop-color:#29AAE1"/>
		<stop  offset="1" style="stop-color:#005ABB"/>
	</linearGradient>
	<circle class="st13" cx="4.1" cy="76.1" r="4.1"/>
	
		<linearGradient id="SVGID_14_" gradientUnits="userSpaceOnUse" x1="156.084" y1="32.8729" x2="164.2298" y2="32.8729" gradientTransform="matrix(-1 0 0 -1 164.2298 94.5458)">
		<stop  offset="2.663895e-08" style="stop-color:#29AAE1"/>
		<stop  offset="1" style="stop-color:#005ABB"/>
	</linearGradient>
	<circle class="st14" cx="4.1" cy="61.7" r="4.1"/>
	
		<linearGradient id="SVGID_15_" gradientUnits="userSpaceOnUse" x1="156.084" y1="47.2729" x2="164.2298" y2="47.2729" gradientTransform="matrix(-1 0 0 -1 164.2298 94.5458)">
		<stop  offset="2.663895e-08" style="stop-color:#29AAE1"/>
		<stop  offset="1" style="stop-color:#005ABB"/>
	</linearGradient>
	<circle class="st15" cx="4.1" cy="47.3" r="4.1"/>
	
		<linearGradient id="SVGID_16_" gradientUnits="userSpaceOnUse" x1="156.084" y1="61.6729" x2="164.2298" y2="61.6729" gradientTransform="matrix(-1 0 0 -1 164.2298 94.5458)">
		<stop  offset="2.663895e-08" style="stop-color:#29AAE1"/>
		<stop  offset="1" style="stop-color:#005ABB"/>
	</linearGradient>
	<circle class="st16" cx="4.1" cy="32.9" r="4.1"/>
	
		<linearGradient id="SVGID_17_" gradientUnits="userSpaceOnUse" x1="156.084" y1="76.0729" x2="164.2298" y2="76.0729" gradientTransform="matrix(-1 0 0 -1 164.2298 94.5458)">
		<stop  offset="2.663895e-08" style="stop-color:#29AAE1"/>
		<stop  offset="1" style="stop-color:#005ABB"/>
	</linearGradient>
	<circle class="st17" cx="4.1" cy="18.5" r="4.1"/>
	
		<linearGradient id="SVGID_18_" gradientUnits="userSpaceOnUse" x1="156.084" y1="90.4729" x2="164.2298" y2="90.4729" gradientTransform="matrix(-1 0 0 -1 164.2298 94.5458)">
		<stop  offset="2.663895e-08" style="stop-color:#29AAE1"/>
		<stop  offset="1" style="stop-color:#005ABB"/>
	</linearGradient>
	<circle class="st18" cx="4.1" cy="4.1" r="4.1"/>
</g>
</svg>
