<?xml version="1.0" encoding="utf-8"?>
<!-- Generator: Adobe Illustrator 23.0.6, SVG Export Plug-In . SVG Version: 6.00 Build 0)  -->
<svg version="1.1" id="Layer_1" xmlns="http://www.w3.org/2000/svg" xmlns:xlink="http://www.w3.org/1999/xlink" x="0px" y="0px"
	 viewBox="0 0 816 816" style="enable-background:new 0 0 816 816;" xml:space="preserve">
<style type="text/css">
	.st0{fill:#373940;}
</style>
<g>
	<path class="st0" d="M783.9,249.2c-20.5-48.6-50-92.2-87.4-129.7C659,82,615.4,52.6,566.8,32.1C516.5,10.8,463.1,0,408,0
		S299.5,10.8,249.2,32.1c-48.6,20.6-92.2,50-129.7,87.4C82,157,52.6,200.6,32.1,249.2C10.8,299.5,0,352.9,0,408
		s10.8,108.5,32.1,158.8c20.5,48.6,50,92.2,87.4,129.7s81.1,66.9,129.7,87.4C299.5,805.2,352.9,816,408,816s108.5-10.8,158.8-32.1
		c48.6-20.5,92.2-50,129.7-87.4c37.5-37.5,66.9-81.1,87.4-129.7C805.2,516.5,816,463.1,816,408S805.2,299.5,783.9,249.2z M408,800
		C191.9,800,16,624.2,16,408C16,191.9,191.9,16,408,16c216.2,0,392,175.9,392,392C800,624.2,624.1,800,408,800z"/>
	<path class="st0" d="M441.4,240.9c-61.9,2.2-74.6,37-75.7,73.5h-0.1v32.1h-42.1v62.9h42.1v168.5h63.5V409.3h52l10.1-62.9h-62.1V327
		c0-12.3,8.2-22.3,19.9-22.3h43.5v-64.2h-51.1V240.9z"/>
</g>
</svg>
