<?xml version="1.0" encoding="utf-8"?>
<!-- Generator: Adobe Illustrator 23.0.6, SVG Export Plug-In . SVG Version: 6.00 Build 0)  -->
<svg version="1.1" id="Layer_1" xmlns="http://www.w3.org/2000/svg" xmlns:xlink="http://www.w3.org/1999/xlink" x="0px" y="0px"
	 viewBox="0 0 187.7 331" style="enable-background:new 0 0 187.7 331;" xml:space="preserve">
<style type="text/css">
	.st0{opacity:0.15;}
	.st1{fill:#656565;}
</style>
<g class="st0">
	<g class="st0">
		<path class="st1" d="M185.7,324.3c-1.1,0-2,0.9-2,2s0.9,2,2,2c1.1,0,2-0.9,2-2S186.8,324.3,185.7,324.3z"/>
		<path class="st1" d="M169.2,324.3c-1.1,0-2,0.9-2,2s0.9,2,2,2c1.1,0,2-0.9,2-2S170.3,324.3,169.2,324.3z"/>
		<path class="st1" d="M152.7,324c-1.3,0-2.3,1-2.3,2.3s1,2.3,2.3,2.3c1.3,0,2.3-1,2.3-2.3S154,324,152.7,324z"/>
		<path class="st1" d="M136.3,323.8c-1.4,0-2.6,1.1-2.6,2.6s1.1,2.6,2.6,2.6s2.6-1.1,2.6-2.6S137.7,323.8,136.3,323.8z"/>
		<path class="st1" d="M119.8,323.5c-1.5,0-2.8,1.2-2.8,2.8s1.2,2.8,2.8,2.8c1.5,0,2.8-1.2,2.8-2.8S121.4,323.5,119.8,323.5z"/>
		<path class="st1" d="M103.4,323.3c-1.7,0-3.1,1.4-3.1,3.1s1.4,3.1,3.1,3.1c1.7,0,3.1-1.4,3.1-3.1S105.1,323.3,103.4,323.3z"/>
		<path class="st1" d="M86.9,323c-1.8,0-3.3,1.5-3.3,3.3s1.5,3.3,3.3,3.3c1.8,0,3.3-1.5,3.3-3.3S88.8,323,86.9,323z"/>
		<path class="st1" d="M70.5,322.7c-2,0-3.6,1.6-3.6,3.6s1.6,3.6,3.6,3.6c2,0,3.6-1.6,3.6-3.6S72.5,322.7,70.5,322.7z"/>
		<ellipse transform="matrix(0.9246 -0.3809 0.3809 0.9246 -120.2296 45.177)" class="st1" cx="54" cy="326.3" rx="3.9" ry="3.9"/>
		
			<ellipse transform="matrix(0.9246 -0.3808 0.3808 0.9246 -121.4471 38.8965)" class="st1" cx="37.6" cy="326.3" rx="4.1" ry="4.1"/>
		<path class="st1" d="M21.1,322c-2.4,0-4.4,2-4.4,4.4s2,4.4,4.4,4.4c2.4,0,4.4-2,4.4-4.4S23.5,322,21.1,322z"/>
		
			<ellipse transform="matrix(0.9247 -0.3807 0.3807 0.9247 -123.8685 26.3384)" class="st1" cx="4.7" cy="326.3" rx="4.7" ry="4.7"/>
		<path class="st1" d="M185.7,307.9c-1.1,0-2,0.9-2,2c0,1.1,0.9,2,2,2c1.1,0,2-0.9,2-2C187.7,308.8,186.8,307.9,185.7,307.9z"/>
		<path class="st1" d="M169.2,307.9c-1.1,0-2,0.9-2,2c0,1.1,0.9,2,2,2c1.1,0,2-0.9,2-2C171.2,308.8,170.3,307.9,169.2,307.9z"/>
		<path class="st1" d="M152.7,307.6c-1.3,0-2.3,1-2.3,2.3c0,1.3,1,2.3,2.3,2.3c1.3,0,2.3-1,2.3-2.3C155,308.6,154,307.6,152.7,307.6
			z"/>
		<path class="st1" d="M136.3,307.3c-1.4,0-2.6,1.1-2.6,2.6c0,1.4,1.1,2.6,2.6,2.6s2.6-1.1,2.6-2.6
			C138.8,308.5,137.7,307.3,136.3,307.3z"/>
		<path class="st1" d="M119.8,307.1c-1.5,0-2.8,1.2-2.8,2.8c0,1.5,1.2,2.8,2.8,2.8c1.5,0,2.8-1.2,2.8-2.8
			C122.6,308.3,121.4,307.1,119.8,307.1z"/>
		<path class="st1" d="M103.4,306.8c-1.7,0-3.1,1.4-3.1,3.1s1.4,3.1,3.1,3.1c1.7,0,3.1-1.4,3.1-3.1S105.1,306.8,103.4,306.8z"/>
		<path class="st1" d="M86.9,306.5c-1.8,0-3.3,1.5-3.3,3.3c0,1.8,1.5,3.3,3.3,3.3c1.8,0,3.3-1.5,3.3-3.3
			C90.3,308,88.8,306.5,86.9,306.5z"/>
		<path class="st1" d="M70.5,306.3c-2,0-3.6,1.6-3.6,3.6c0,2,1.6,3.6,3.6,3.6c2,0,3.6-1.6,3.6-3.6C74.1,307.9,72.5,306.3,70.5,306.3
			z"/>
		<ellipse transform="matrix(0.9246 -0.3809 0.3809 0.9246 -113.9619 43.9365)" class="st1" cx="54" cy="309.9" rx="3.9" ry="3.9"/>
		
			<ellipse transform="matrix(0.9246 -0.3808 0.3808 0.9246 -115.1806 37.6566)" class="st1" cx="37.6" cy="309.9" rx="4.1" ry="4.1"/>
		<path class="st1" d="M21.1,305.5c-2.4,0-4.4,2-4.4,4.4c0,2.4,2,4.4,4.4,4.4c2.4,0,4.4-2,4.4-4.4C25.5,307.5,23.5,305.5,21.1,305.5
			z"/>
		
			<ellipse transform="matrix(0.9247 -0.3807 0.3807 0.9247 -117.6049 25.0997)" class="st1" cx="4.7" cy="309.9" rx="4.7" ry="4.7"/>
		<path class="st1" d="M185.7,291.4c-1.1,0-2,0.9-2,2s0.9,2,2,2c1.1,0,2-0.9,2-2S186.8,291.4,185.7,291.4z"/>
		<path class="st1" d="M169.2,291.4c-1.1,0-2,0.9-2,2s0.9,2,2,2c1.1,0,2-0.9,2-2S170.3,291.4,169.2,291.4z"/>
		<path class="st1" d="M152.7,291.1c-1.3,0-2.3,1-2.3,2.3s1,2.3,2.3,2.3c1.3,0,2.3-1,2.3-2.3S154,291.1,152.7,291.1z"/>
		<path class="st1" d="M136.3,290.9c-1.4,0-2.6,1.1-2.6,2.6s1.1,2.6,2.6,2.6s2.6-1.1,2.6-2.6S137.7,290.9,136.3,290.9z"/>
		<path class="st1" d="M119.8,290.6c-1.5,0-2.8,1.2-2.8,2.8s1.2,2.8,2.8,2.8c1.5,0,2.8-1.2,2.8-2.8S121.4,290.6,119.8,290.6z"/>
		<path class="st1" d="M103.4,290.4c-1.7,0-3.1,1.4-3.1,3.1s1.4,3.1,3.1,3.1c1.7,0,3.1-1.4,3.1-3.1S105.1,290.4,103.4,290.4z"/>
		<path class="st1" d="M86.9,290.1c-1.8,0-3.3,1.5-3.3,3.3s1.5,3.3,3.3,3.3c1.8,0,3.3-1.5,3.3-3.3S88.8,290.1,86.9,290.1z"/>
		<path class="st1" d="M70.5,289.8c-2,0-3.6,1.6-3.6,3.6c0,2,1.6,3.6,3.6,3.6c2,0,3.6-1.6,3.6-3.6C74.1,291.4,72.5,289.8,70.5,289.8
			z"/>
		<ellipse transform="matrix(0.9246 -0.3809 0.3809 0.9246 -107.6941 42.6961)" class="st1" cx="54" cy="293.4" rx="3.9" ry="3.9"/>
		
			<ellipse transform="matrix(0.9246 -0.3808 0.3808 0.9246 -108.914 36.4166)" class="st1" cx="37.6" cy="293.4" rx="4.1" ry="4.1"/>
		<path class="st1" d="M21.1,289c-2.4,0-4.4,2-4.4,4.4s2,4.4,4.4,4.4c2.4,0,4.4-2,4.4-4.4S23.5,289,21.1,289z"/>
		
			<ellipse transform="matrix(0.9247 -0.3807 0.3807 0.9247 -111.3414 23.8609)" class="st1" cx="4.7" cy="293.4" rx="4.7" ry="4.7"/>
		<path class="st1" d="M185.7,275c-1.1,0-2,0.9-2,2c0,1.1,0.9,2,2,2c1.1,0,2-0.9,2-2C187.7,275.9,186.8,275,185.7,275z"/>
		<path class="st1" d="M169.2,275c-1.1,0-2,0.9-2,2c0,1.1,0.9,2,2,2c1.1,0,2-0.9,2-2C171.2,275.9,170.3,275,169.2,275z"/>
		<path class="st1" d="M152.7,274.7c-1.3,0-2.3,1-2.3,2.3c0,1.3,1,2.3,2.3,2.3c1.3,0,2.3-1,2.3-2.3C155,275.7,154,274.7,152.7,274.7
			z"/>
		<path class="st1" d="M136.3,274.4c-1.4,0-2.6,1.1-2.6,2.6s1.1,2.6,2.6,2.6s2.6-1.1,2.6-2.6S137.7,274.4,136.3,274.4z"/>
		<path class="st1" d="M119.8,274.2c-1.5,0-2.8,1.2-2.8,2.8c0,1.5,1.2,2.8,2.8,2.8c1.5,0,2.8-1.2,2.8-2.8
			C122.6,275.4,121.4,274.2,119.8,274.2z"/>
		<path class="st1" d="M103.4,273.9c-1.7,0-3.1,1.4-3.1,3.1s1.4,3.1,3.1,3.1c1.7,0,3.1-1.4,3.1-3.1S105.1,273.9,103.4,273.9z"/>
		<path class="st1" d="M86.9,273.6c-1.8,0-3.3,1.5-3.3,3.3c0,1.8,1.5,3.3,3.3,3.3c1.8,0,3.3-1.5,3.3-3.3
			C90.3,275.1,88.8,273.6,86.9,273.6z"/>
		<path class="st1" d="M70.5,273.4c-2,0-3.6,1.6-3.6,3.6c0,2,1.6,3.6,3.6,3.6c2,0,3.6-1.6,3.6-3.6C74.1,275,72.5,273.4,70.5,273.4z"
			/>
		<ellipse transform="matrix(0.9246 -0.3809 0.3809 0.9246 -101.4264 41.4556)" class="st1" cx="54" cy="277" rx="3.9" ry="3.9"/>
		<ellipse transform="matrix(0.9246 -0.3808 0.3808 0.9246 -102.6475 35.1766)" class="st1" cx="37.6" cy="277" rx="4.1" ry="4.1"/>
		<path class="st1" d="M21.1,272.6c-2.4,0-4.4,2-4.4,4.4c0,2.4,2,4.4,4.4,4.4c2.4,0,4.4-2,4.4-4.4C25.5,274.5,23.5,272.6,21.1,272.6
			z"/>
		<ellipse transform="matrix(0.9247 -0.3807 0.3807 0.9247 -105.0778 22.6222)" class="st1" cx="4.7" cy="277" rx="4.7" ry="4.7"/>
		<path class="st1" d="M185.7,258.5c-1.1,0-2,0.9-2,2s0.9,2,2,2c1.1,0,2-0.9,2-2S186.8,258.5,185.7,258.5z"/>
		<path class="st1" d="M169.2,258.5c-1.1,0-2,0.9-2,2s0.9,2,2,2c1.1,0,2-0.9,2-2S170.3,258.5,169.2,258.5z"/>
		<path class="st1" d="M152.7,258.2c-1.3,0-2.3,1-2.3,2.3s1,2.3,2.3,2.3c1.3,0,2.3-1,2.3-2.3S154,258.2,152.7,258.2z"/>
		<path class="st1" d="M136.3,258c-1.4,0-2.6,1.1-2.6,2.6s1.1,2.6,2.6,2.6s2.6-1.1,2.6-2.6S137.7,258,136.3,258z"/>
		<path class="st1" d="M119.8,257.7c-1.5,0-2.8,1.2-2.8,2.8c0,1.5,1.2,2.8,2.8,2.8c1.5,0,2.8-1.2,2.8-2.8
			C122.6,259,121.4,257.7,119.8,257.7z"/>
		<path class="st1" d="M103.4,257.5c-1.7,0-3.1,1.4-3.1,3.1s1.4,3.1,3.1,3.1c1.7,0,3.1-1.4,3.1-3.1S105.1,257.5,103.4,257.5z"/>
		<path class="st1" d="M86.9,257.2c-1.8,0-3.3,1.5-3.3,3.3s1.5,3.3,3.3,3.3c1.8,0,3.3-1.5,3.3-3.3S88.8,257.2,86.9,257.2z"/>
		<path class="st1" d="M70.5,256.9c-2,0-3.6,1.6-3.6,3.6c0,2,1.6,3.6,3.6,3.6c2,0,3.6-1.6,3.6-3.6C74.1,258.5,72.5,256.9,70.5,256.9
			z"/>
		<ellipse transform="matrix(0.9246 -0.3809 0.3809 0.9246 -95.1586 40.2151)" class="st1" cx="54" cy="260.5" rx="3.9" ry="3.9"/>
		<ellipse transform="matrix(0.9246 -0.3808 0.3808 0.9246 -96.381 33.9367)" class="st1" cx="37.6" cy="260.5" rx="4.1" ry="4.1"/>
		<path class="st1" d="M21.1,256.1c-2.4,0-4.4,2-4.4,4.4s2,4.4,4.4,4.4c2.4,0,4.4-2,4.4-4.4S23.5,256.1,21.1,256.1z"/>
		<ellipse transform="matrix(0.9247 -0.3807 0.3807 0.9247 -98.8143 21.3834)" class="st1" cx="4.7" cy="260.5" rx="4.7" ry="4.7"/>
		<path class="st1" d="M185.7,242c-1.1,0-2,0.9-2,2c0,1.1,0.9,2,2,2c1.1,0,2-0.9,2-2C187.7,242.9,186.8,242,185.7,242z"/>
		<path class="st1" d="M169.2,242c-1.1,0-2,0.9-2,2c0,1.1,0.9,2,2,2c1.1,0,2-0.9,2-2C171.2,242.9,170.3,242,169.2,242z"/>
		<path class="st1" d="M152.7,241.8c-1.3,0-2.3,1-2.3,2.3c0,1.3,1,2.3,2.3,2.3c1.3,0,2.3-1,2.3-2.3C155,242.8,154,241.8,152.7,241.8
			z"/>
		<path class="st1" d="M136.3,241.5c-1.4,0-2.6,1.1-2.6,2.6s1.1,2.6,2.6,2.6s2.6-1.1,2.6-2.6S137.7,241.5,136.3,241.5z"/>
		<path class="st1" d="M119.8,241.3c-1.5,0-2.8,1.2-2.8,2.8c0,1.5,1.2,2.8,2.8,2.8c1.5,0,2.8-1.2,2.8-2.8
			C122.6,242.5,121.4,241.3,119.8,241.3z"/>
		<path class="st1" d="M103.4,241c-1.7,0-3.1,1.4-3.1,3.1s1.4,3.1,3.1,3.1c1.7,0,3.1-1.4,3.1-3.1S105.1,241,103.4,241z"/>
		<path class="st1" d="M86.9,240.7c-1.8,0-3.3,1.5-3.3,3.3c0,1.8,1.5,3.3,3.3,3.3c1.8,0,3.3-1.5,3.3-3.3
			C90.3,242.2,88.8,240.7,86.9,240.7z"/>
		<path class="st1" d="M70.5,240.5c-2,0-3.6,1.6-3.6,3.6s1.6,3.6,3.6,3.6c2,0,3.6-1.6,3.6-3.6S72.5,240.5,70.5,240.5z"/>
		<ellipse transform="matrix(0.9246 -0.3809 0.3809 0.9246 -88.8909 38.9747)" class="st1" cx="54" cy="244.1" rx="3.9" ry="3.9"/>
		
			<ellipse transform="matrix(0.9246 -0.3808 0.3808 0.9246 -90.1145 32.6967)" class="st1" cx="37.6" cy="244.1" rx="4.1" ry="4.1"/>
		<path class="st1" d="M21.1,239.7c-2.4,0-4.4,2-4.4,4.4c0,2.4,2,4.4,4.4,4.4c2.4,0,4.4-2,4.4-4.4C25.5,241.6,23.5,239.7,21.1,239.7
			z"/>
		<ellipse transform="matrix(0.9247 -0.3807 0.3807 0.9247 -92.5507 20.1447)" class="st1" cx="4.7" cy="244.1" rx="4.7" ry="4.7"/>
		<path class="st1" d="M185.7,225.6c-1.1,0-2,0.9-2,2c0,1.1,0.9,2,2,2c1.1,0,2-0.9,2-2C187.7,226.5,186.8,225.6,185.7,225.6z"/>
		<path class="st1" d="M169.2,225.6c-1.1,0-2,0.9-2,2c0,1.1,0.9,2,2,2c1.1,0,2-0.9,2-2C171.2,226.5,170.3,225.6,169.2,225.6z"/>
		<path class="st1" d="M152.7,225.3c-1.3,0-2.3,1-2.3,2.3c0,1.3,1,2.3,2.3,2.3c1.3,0,2.3-1,2.3-2.3C155,226.3,154,225.3,152.7,225.3
			z"/>
		<path class="st1" d="M136.3,225c-1.4,0-2.6,1.1-2.6,2.6c0,1.4,1.1,2.6,2.6,2.6s2.6-1.1,2.6-2.6C138.8,226.2,137.7,225,136.3,225z"
			/>
		<path class="st1" d="M119.8,224.8c-1.5,0-2.8,1.2-2.8,2.8c0,1.5,1.2,2.8,2.8,2.8c1.5,0,2.8-1.2,2.8-2.8
			C122.6,226.1,121.4,224.8,119.8,224.8z"/>
		<path class="st1" d="M103.4,224.5c-1.7,0-3.1,1.4-3.1,3.1s1.4,3.1,3.1,3.1c1.7,0,3.1-1.4,3.1-3.1S105.1,224.5,103.4,224.5z"/>
		<path class="st1" d="M86.9,224.3c-1.8,0-3.3,1.5-3.3,3.3c0,1.8,1.5,3.3,3.3,3.3c1.8,0,3.3-1.5,3.3-3.3
			C90.3,225.8,88.8,224.3,86.9,224.3z"/>
		<path class="st1" d="M70.5,224c-2,0-3.6,1.6-3.6,3.6s1.6,3.6,3.6,3.6c2,0,3.6-1.6,3.6-3.6S72.5,224,70.5,224z"/>
		<ellipse transform="matrix(0.9246 -0.3809 0.3809 0.9246 -82.6231 37.7342)" class="st1" cx="54" cy="227.6" rx="3.9" ry="3.9"/>
		
			<ellipse transform="matrix(0.9246 -0.3808 0.3808 0.9246 -83.8479 31.4567)" class="st1" cx="37.6" cy="227.6" rx="4.1" ry="4.1"/>
		<path class="st1" d="M21.1,223.2c-2.4,0-4.4,2-4.4,4.4c0,2.4,2,4.4,4.4,4.4c2.4,0,4.4-2,4.4-4.4C25.5,225.2,23.5,223.2,21.1,223.2
			z"/>
		<ellipse transform="matrix(0.9247 -0.3807 0.3807 0.9247 -86.2872 18.9059)" class="st1" cx="4.7" cy="227.6" rx="4.7" ry="4.7"/>
	</g>
	<g class="st0">
		<path class="st1" d="M185.7,212.8c-1.1,0-2,0.9-2,2c0,1.1,0.9,2,2,2c1.1,0,2-0.9,2-2C187.7,213.7,186.8,212.8,185.7,212.8z"/>
		<path class="st1" d="M169.2,212.8c-1.1,0-2,0.9-2,2c0,1.1,0.9,2,2,2c1.1,0,2-0.9,2-2C171.2,213.7,170.3,212.8,169.2,212.8z"/>
		<path class="st1" d="M152.7,212.6c-1.3,0-2.3,1-2.3,2.3c0,1.3,1,2.3,2.3,2.3c1.3,0,2.3-1,2.3-2.3C155,213.6,154,212.6,152.7,212.6
			z"/>
		<path class="st1" d="M136.3,212.3c-1.4,0-2.6,1.1-2.6,2.6s1.1,2.6,2.6,2.6s2.6-1.1,2.6-2.6S137.7,212.3,136.3,212.3z"/>
		<path class="st1" d="M119.8,212.1c-1.5,0-2.8,1.2-2.8,2.8s1.2,2.8,2.8,2.8c1.5,0,2.8-1.2,2.8-2.8S121.4,212.1,119.8,212.1z"/>
		<path class="st1" d="M103.4,211.8c-1.7,0-3.1,1.4-3.1,3.1s1.4,3.1,3.1,3.1c1.7,0,3.1-1.4,3.1-3.1S105.1,211.8,103.4,211.8z"/>
		<path class="st1" d="M86.9,211.5c-1.8,0-3.3,1.5-3.3,3.3c0,1.8,1.5,3.3,3.3,3.3c1.8,0,3.3-1.5,3.3-3.3
			C90.3,213,88.8,211.5,86.9,211.5z"/>
		<path class="st1" d="M70.5,211.3c-2,0-3.6,1.6-3.6,3.6s1.6,3.6,3.6,3.6c2,0,3.6-1.6,3.6-3.6S72.5,211.3,70.5,211.3z"/>
		<ellipse transform="matrix(0.9246 -0.3809 0.3809 0.9246 -77.7683 36.7733)" class="st1" cx="54" cy="214.9" rx="3.9" ry="3.9"/>
		<ellipse transform="matrix(0.9246 -0.3808 0.3808 0.9246 -78.994 30.4963)" class="st1" cx="37.6" cy="214.9" rx="4.1" ry="4.1"/>
		<path class="st1" d="M21.1,210.5c-2.4,0-4.4,2-4.4,4.4c0,2.4,2,4.4,4.4,4.4c2.4,0,4.4-2,4.4-4.4C25.5,212.4,23.5,210.5,21.1,210.5
			z"/>
		<ellipse transform="matrix(0.9247 -0.3807 0.3807 0.9247 -81.4355 17.9464)" class="st1" cx="4.7" cy="214.9" rx="4.7" ry="4.7"/>
		<path class="st1" d="M185.7,196.4c-1.1,0-2,0.9-2,2c0,1.1,0.9,2,2,2c1.1,0,2-0.9,2-2C187.7,197.3,186.8,196.4,185.7,196.4z"/>
		<path class="st1" d="M169.2,196.4c-1.1,0-2,0.9-2,2c0,1.1,0.9,2,2,2c1.1,0,2-0.9,2-2C171.2,197.3,170.3,196.4,169.2,196.4z"/>
		<path class="st1" d="M152.7,196.1c-1.3,0-2.3,1-2.3,2.3c0,1.3,1,2.3,2.3,2.3c1.3,0,2.3-1,2.3-2.3C155,197.1,154,196.1,152.7,196.1
			z"/>
		<path class="st1" d="M136.3,195.8c-1.4,0-2.6,1.1-2.6,2.6s1.1,2.6,2.6,2.6s2.6-1.1,2.6-2.6S137.7,195.8,136.3,195.8z"/>
		<path class="st1" d="M119.8,195.6c-1.5,0-2.8,1.2-2.8,2.8s1.2,2.8,2.8,2.8c1.5,0,2.8-1.2,2.8-2.8S121.4,195.6,119.8,195.6z"/>
		<path class="st1" d="M103.4,195.3c-1.7,0-3.1,1.4-3.1,3.1s1.4,3.1,3.1,3.1c1.7,0,3.1-1.4,3.1-3.1S105.1,195.3,103.4,195.3z"/>
		<path class="st1" d="M86.9,195.1c-1.8,0-3.3,1.5-3.3,3.3c0,1.8,1.5,3.3,3.3,3.3c1.8,0,3.3-1.5,3.3-3.3
			C90.3,196.6,88.8,195.1,86.9,195.1z"/>
		<path class="st1" d="M70.5,194.8c-2,0-3.6,1.6-3.6,3.6s1.6,3.6,3.6,3.6c2,0,3.6-1.6,3.6-3.6S72.5,194.8,70.5,194.8z"/>
		<ellipse transform="matrix(0.9246 -0.3809 0.3809 0.9246 -71.5005 35.5329)" class="st1" cx="54" cy="198.4" rx="3.9" ry="3.9"/>
		
			<ellipse transform="matrix(0.9246 -0.3808 0.3808 0.9246 -72.7275 29.2563)" class="st1" cx="37.6" cy="198.4" rx="4.1" ry="4.1"/>
		<path class="st1" d="M21.1,194c-2.4,0-4.4,2-4.4,4.4c0,2.4,2,4.4,4.4,4.4c2.4,0,4.4-2,4.4-4.4C25.5,196,23.5,194,21.1,194z"/>
		<ellipse transform="matrix(0.9247 -0.3807 0.3807 0.9247 -75.172 16.7077)" class="st1" cx="4.7" cy="198.4" rx="4.7" ry="4.7"/>
		<path class="st1" d="M185.7,179.9c-1.1,0-2,0.9-2,2c0,1.1,0.9,2,2,2c1.1,0,2-0.9,2-2C187.7,180.8,186.8,179.9,185.7,179.9z"/>
		<path class="st1" d="M169.2,179.9c-1.1,0-2,0.9-2,2c0,1.1,0.9,2,2,2c1.1,0,2-0.9,2-2C171.2,180.8,170.3,179.9,169.2,179.9z"/>
		<path class="st1" d="M152.7,179.7c-1.3,0-2.3,1-2.3,2.3c0,1.3,1,2.3,2.3,2.3c1.3,0,2.3-1,2.3-2.3C155,180.7,154,179.7,152.7,179.7
			z"/>
		<path class="st1" d="M136.3,179.4c-1.4,0-2.6,1.1-2.6,2.6s1.1,2.6,2.6,2.6s2.6-1.1,2.6-2.6S137.7,179.4,136.3,179.4z"/>
		<path class="st1" d="M119.8,179.2c-1.5,0-2.8,1.2-2.8,2.8s1.2,2.8,2.8,2.8c1.5,0,2.8-1.2,2.8-2.8S121.4,179.2,119.8,179.2z"/>
		<path class="st1" d="M103.4,178.9c-1.7,0-3.1,1.4-3.1,3.1s1.4,3.1,3.1,3.1c1.7,0,3.1-1.4,3.1-3.1S105.1,178.9,103.4,178.9z"/>
		<path class="st1" d="M86.9,178.6c-1.8,0-3.3,1.5-3.3,3.3c0,1.8,1.5,3.3,3.3,3.3c1.8,0,3.3-1.5,3.3-3.3
			C90.3,180.1,88.8,178.6,86.9,178.6z"/>
		<path class="st1" d="M70.5,178.3c-2,0-3.6,1.6-3.6,3.6s1.6,3.6,3.6,3.6c2,0,3.6-1.6,3.6-3.6S72.5,178.3,70.5,178.3z"/>
		<ellipse transform="matrix(0.9246 -0.3809 0.3809 0.9246 -65.2328 34.2924)" class="st1" cx="54" cy="181.9" rx="3.9" ry="3.9"/>
		<ellipse transform="matrix(0.9246 -0.3808 0.3808 0.9246 -66.461 28.0163)" class="st1" cx="37.6" cy="181.9" rx="4.1" ry="4.1"/>
		<path class="st1" d="M21.1,177.6c-2.4,0-4.4,2-4.4,4.4c0,2.4,2,4.4,4.4,4.4c2.4,0,4.4-2,4.4-4.4C25.5,179.5,23.5,177.6,21.1,177.6
			z"/>
		<ellipse transform="matrix(0.9247 -0.3807 0.3807 0.9247 -68.9084 15.4689)" class="st1" cx="4.7" cy="181.9" rx="4.7" ry="4.7"/>
		<path class="st1" d="M185.7,163.5c-1.1,0-2,0.9-2,2c0,1.1,0.9,2,2,2c1.1,0,2-0.9,2-2C187.7,164.4,186.8,163.5,185.7,163.5z"/>
		<path class="st1" d="M169.2,163.5c-1.1,0-2,0.9-2,2c0,1.1,0.9,2,2,2c1.1,0,2-0.9,2-2C171.2,164.4,170.3,163.5,169.2,163.5z"/>
		<path class="st1" d="M152.7,163.2c-1.3,0-2.3,1-2.3,2.3c0,1.3,1,2.3,2.3,2.3c1.3,0,2.3-1,2.3-2.3C155,164.2,154,163.2,152.7,163.2
			z"/>
		<path class="st1" d="M136.3,162.9c-1.4,0-2.6,1.1-2.6,2.6s1.1,2.6,2.6,2.6s2.6-1.1,2.6-2.6S137.7,162.9,136.3,162.9z"/>
		<path class="st1" d="M119.8,162.7c-1.5,0-2.8,1.2-2.8,2.8s1.2,2.8,2.8,2.8c1.5,0,2.8-1.2,2.8-2.8S121.4,162.7,119.8,162.7z"/>
		<path class="st1" d="M103.4,162.4c-1.7,0-3.1,1.4-3.1,3.1s1.4,3.1,3.1,3.1c1.7,0,3.1-1.4,3.1-3.1S105.1,162.4,103.4,162.4z"/>
		<path class="st1" d="M86.9,162.2c-1.8,0-3.3,1.5-3.3,3.3c0,1.8,1.5,3.3,3.3,3.3c1.8,0,3.3-1.5,3.3-3.3
			C90.3,163.7,88.8,162.2,86.9,162.2z"/>
		<path class="st1" d="M70.5,161.9c-2,0-3.6,1.6-3.6,3.6s1.6,3.6,3.6,3.6c2,0,3.6-1.6,3.6-3.6S72.5,161.9,70.5,161.9z"/>
		<ellipse transform="matrix(0.9246 -0.3809 0.3809 0.9246 -58.9651 33.0519)" class="st1" cx="54" cy="165.5" rx="3.9" ry="3.9"/>
		
			<ellipse transform="matrix(0.9246 -0.3808 0.3808 0.9246 -60.1944 26.7764)" class="st1" cx="37.6" cy="165.5" rx="4.1" ry="4.1"/>
		<path class="st1" d="M21.1,161.1c-2.4,0-4.4,2-4.4,4.4c0,2.4,2,4.4,4.4,4.4c2.4,0,4.4-2,4.4-4.4C25.5,163.1,23.5,161.1,21.1,161.1
			z"/>
		<ellipse transform="matrix(0.9247 -0.3807 0.3807 0.9247 -62.6449 14.2302)" class="st1" cx="4.7" cy="165.5" rx="4.7" ry="4.7"/>
		<path class="st1" d="M185.7,147c-1.1,0-2,0.9-2,2c0,1.1,0.9,2,2,2c1.1,0,2-0.9,2-2C187.7,147.9,186.8,147,185.7,147z"/>
		<path class="st1" d="M169.2,147c-1.1,0-2,0.9-2,2c0,1.1,0.9,2,2,2c1.1,0,2-0.9,2-2C171.2,147.9,170.3,147,169.2,147z"/>
		<path class="st1" d="M152.7,146.8c-1.3,0-2.3,1-2.3,2.3c0,1.3,1,2.3,2.3,2.3c1.3,0,2.3-1,2.3-2.3C155,147.8,154,146.8,152.7,146.8
			z"/>
		<path class="st1" d="M136.3,146.5c-1.4,0-2.6,1.1-2.6,2.6s1.1,2.6,2.6,2.6s2.6-1.1,2.6-2.6S137.7,146.5,136.3,146.5z"/>
		<path class="st1" d="M119.8,146.3c-1.5,0-2.8,1.2-2.8,2.8c0,1.5,1.2,2.8,2.8,2.8c1.5,0,2.8-1.2,2.8-2.8
			C122.6,147.5,121.4,146.3,119.8,146.3z"/>
		<path class="st1" d="M103.4,146c-1.7,0-3.1,1.4-3.1,3.1s1.4,3.1,3.1,3.1c1.7,0,3.1-1.4,3.1-3.1S105.1,146,103.4,146z"/>
		<path class="st1" d="M86.9,145.7c-1.8,0-3.3,1.5-3.3,3.3c0,1.8,1.5,3.3,3.3,3.3c1.8,0,3.3-1.5,3.3-3.3
			C90.3,147.2,88.8,145.7,86.9,145.7z"/>
		<path class="st1" d="M70.5,145.4c-2,0-3.6,1.6-3.6,3.6s1.6,3.6,3.6,3.6c2,0,3.6-1.6,3.6-3.6S72.5,145.4,70.5,145.4z"/>
		<ellipse transform="matrix(0.9246 -0.3809 0.3809 0.9246 -52.6973 31.8115)" class="st1" cx="54" cy="149" rx="3.9" ry="3.9"/>
		<ellipse transform="matrix(0.9246 -0.3808 0.3808 0.9246 -53.9279 25.5364)" class="st1" cx="37.6" cy="149" rx="4.1" ry="4.1"/>
		<path class="st1" d="M21.1,144.7c-2.4,0-4.4,2-4.4,4.4c0,2.4,2,4.4,4.4,4.4c2.4,0,4.4-2,4.4-4.4C25.5,146.6,23.5,144.7,21.1,144.7
			z"/>
		<ellipse transform="matrix(0.9247 -0.3807 0.3807 0.9247 -56.3813 12.9914)" class="st1" cx="4.7" cy="149" rx="4.7" ry="4.7"/>
		<path class="st1" d="M185.7,130.6c-1.1,0-2,0.9-2,2c0,1.1,0.9,2,2,2c1.1,0,2-0.9,2-2C187.7,131.5,186.8,130.6,185.7,130.6z"/>
		<path class="st1" d="M169.2,130.6c-1.1,0-2,0.9-2,2c0,1.1,0.9,2,2,2c1.1,0,2-0.9,2-2C171.2,131.5,170.3,130.6,169.2,130.6z"/>
		<path class="st1" d="M152.7,130.3c-1.3,0-2.3,1-2.3,2.3c0,1.3,1,2.3,2.3,2.3c1.3,0,2.3-1,2.3-2.3C155,131.3,154,130.3,152.7,130.3
			z"/>
		<path class="st1" d="M136.3,130c-1.4,0-2.6,1.1-2.6,2.6s1.1,2.6,2.6,2.6s2.6-1.1,2.6-2.6S137.7,130,136.3,130z"/>
		<path class="st1" d="M119.8,129.8c-1.5,0-2.8,1.2-2.8,2.8c0,1.5,1.2,2.8,2.8,2.8c1.5,0,2.8-1.2,2.8-2.8
			C122.6,131,121.4,129.8,119.8,129.8z"/>
		<path class="st1" d="M103.4,129.5c-1.7,0-3.1,1.4-3.1,3.1s1.4,3.1,3.1,3.1c1.7,0,3.1-1.4,3.1-3.1S105.1,129.5,103.4,129.5z"/>
		<path class="st1" d="M86.9,129.3c-1.8,0-3.3,1.5-3.3,3.3c0,1.8,1.5,3.3,3.3,3.3c1.8,0,3.3-1.5,3.3-3.3
			C90.3,130.7,88.8,129.3,86.9,129.3z"/>
		<path class="st1" d="M70.5,129c-2,0-3.6,1.6-3.6,3.6s1.6,3.6,3.6,3.6c2,0,3.6-1.6,3.6-3.6S72.5,129,70.5,129z"/>
		<ellipse transform="matrix(0.9246 -0.3809 0.3809 0.9246 -46.4296 30.571)" class="st1" cx="54" cy="132.6" rx="3.9" ry="3.9"/>
		
			<ellipse transform="matrix(0.9246 -0.3808 0.3808 0.9246 -47.6614 24.2964)" class="st1" cx="37.6" cy="132.6" rx="4.1" ry="4.1"/>
		<path class="st1" d="M21.1,128.2c-2.4,0-4.4,2-4.4,4.4c0,2.4,2,4.4,4.4,4.4c2.4,0,4.4-2,4.4-4.4C25.5,130.2,23.5,128.2,21.1,128.2
			z"/>
		<ellipse transform="matrix(0.9247 -0.3807 0.3807 0.9247 -50.1178 11.7527)" class="st1" cx="4.7" cy="132.6" rx="4.7" ry="4.7"/>
		<path class="st1" d="M185.7,114.1c-1.1,0-2,0.9-2,2s0.9,2,2,2c1.1,0,2-0.9,2-2S186.8,114.1,185.7,114.1z"/>
		<path class="st1" d="M169.2,114.1c-1.1,0-2,0.9-2,2s0.9,2,2,2c1.1,0,2-0.9,2-2S170.3,114.1,169.2,114.1z"/>
		<path class="st1" d="M152.7,113.8c-1.3,0-2.3,1-2.3,2.3s1,2.3,2.3,2.3c1.3,0,2.3-1,2.3-2.3S154,113.8,152.7,113.8z"/>
		<path class="st1" d="M136.3,113.6c-1.4,0-2.6,1.1-2.6,2.6c0,1.4,1.1,2.6,2.6,2.6s2.6-1.1,2.6-2.6
			C138.8,114.7,137.7,113.6,136.3,113.6z"/>
		<path class="st1" d="M119.8,113.3c-1.5,0-2.8,1.2-2.8,2.8c0,1.5,1.2,2.8,2.8,2.8c1.5,0,2.8-1.2,2.8-2.8
			C122.6,114.6,121.4,113.3,119.8,113.3z"/>
		<path class="st1" d="M103.4,113.1c-1.7,0-3.1,1.4-3.1,3.1s1.4,3.1,3.1,3.1c1.7,0,3.1-1.4,3.1-3.1S105.1,113.1,103.4,113.1z"/>
		<path class="st1" d="M86.9,112.8c-1.8,0-3.3,1.5-3.3,3.3s1.5,3.3,3.3,3.3c1.8,0,3.3-1.5,3.3-3.3S88.8,112.8,86.9,112.8z"/>
		<path class="st1" d="M70.5,112.5c-2,0-3.6,1.6-3.6,3.6s1.6,3.6,3.6,3.6c2,0,3.6-1.6,3.6-3.6S72.5,112.5,70.5,112.5z"/>
		<ellipse transform="matrix(0.9246 -0.3809 0.3809 0.9246 -40.1618 29.3305)" class="st1" cx="54" cy="116.1" rx="3.9" ry="3.9"/>
		
			<ellipse transform="matrix(0.9246 -0.3808 0.3808 0.9246 -41.3949 23.0565)" class="st1" cx="37.6" cy="116.1" rx="4.1" ry="4.1"/>
		<path class="st1" d="M21.1,111.7c-2.4,0-4.4,2-4.4,4.4s2,4.4,4.4,4.4c2.4,0,4.4-2,4.4-4.4S23.5,111.7,21.1,111.7z"/>
		<ellipse transform="matrix(0.9247 -0.3807 0.3807 0.9247 -43.8542 10.5139)" class="st1" cx="4.7" cy="116.1" rx="4.7" ry="4.7"/>
	</g>
	<g class="st0">
		<path class="st1" d="M185.7,101.4c-1.1,0-2,0.9-2,2s0.9,2,2,2c1.1,0,2-0.9,2-2S186.8,101.4,185.7,101.4z"/>
		<path class="st1" d="M169.2,101.4c-1.1,0-2,0.9-2,2s0.9,2,2,2c1.1,0,2-0.9,2-2S170.3,101.4,169.2,101.4z"/>
		<path class="st1" d="M152.7,101.1c-1.3,0-2.3,1-2.3,2.3s1,2.3,2.3,2.3c1.3,0,2.3-1,2.3-2.3S154,101.1,152.7,101.1z"/>
		<path class="st1" d="M136.3,100.8c-1.4,0-2.6,1.1-2.6,2.6c0,1.4,1.1,2.6,2.6,2.6s2.6-1.1,2.6-2.6
			C138.8,102,137.7,100.8,136.3,100.8z"/>
		<path class="st1" d="M119.8,100.6c-1.5,0-2.8,1.2-2.8,2.8c0,1.5,1.2,2.8,2.8,2.8c1.5,0,2.8-1.2,2.8-2.8
			C122.6,101.8,121.4,100.6,119.8,100.6z"/>
		<path class="st1" d="M103.4,100.3c-1.7,0-3.1,1.4-3.1,3.1c0,1.7,1.4,3.1,3.1,3.1c1.7,0,3.1-1.4,3.1-3.1
			C106.4,101.7,105.1,100.3,103.4,100.3z"/>
		<path class="st1" d="M86.9,100.1c-1.8,0-3.3,1.5-3.3,3.3s1.5,3.3,3.3,3.3c1.8,0,3.3-1.5,3.3-3.3S88.8,100.1,86.9,100.1z"/>
		<path class="st1" d="M70.5,99.8c-2,0-3.6,1.6-3.6,3.6c0,2,1.6,3.6,3.6,3.6c2,0,3.6-1.6,3.6-3.6C74.1,101.4,72.5,99.8,70.5,99.8z"
			/>
		<ellipse transform="matrix(0.9246 -0.3809 0.3809 0.9246 -35.307 28.3697)" class="st1" cx="54" cy="103.4" rx="3.9" ry="3.9"/>
		<ellipse transform="matrix(0.9246 -0.3808 0.3808 0.9246 -36.5409 22.096)" class="st1" cx="37.6" cy="103.4" rx="4.1" ry="4.1"/>
		<path class="st1" d="M21.1,99c-2.4,0-4.4,2-4.4,4.4s2,4.4,4.4,4.4c2.4,0,4.4-2,4.4-4.4S23.5,99,21.1,99z"/>
		<ellipse transform="matrix(0.9247 -0.3807 0.3807 0.9247 -39.0026 9.5544)" class="st1" cx="4.7" cy="103.4" rx="4.7" ry="4.7"/>
		<path class="st1" d="M185.7,84.9c-1.1,0-2,0.9-2,2c0,1.1,0.9,2,2,2c1.1,0,2-0.9,2-2C187.7,85.8,186.8,84.9,185.7,84.9z"/>
		<path class="st1" d="M169.2,84.9c-1.1,0-2,0.9-2,2c0,1.1,0.9,2,2,2c1.1,0,2-0.9,2-2C171.2,85.8,170.3,84.9,169.2,84.9z"/>
		<path class="st1" d="M152.7,84.6c-1.3,0-2.3,1-2.3,2.3s1,2.3,2.3,2.3c1.3,0,2.3-1,2.3-2.3S154,84.6,152.7,84.6z"/>
		<path class="st1" d="M136.3,84.4c-1.4,0-2.6,1.1-2.6,2.6c0,1.4,1.1,2.6,2.6,2.6s2.6-1.1,2.6-2.6C138.8,85.5,137.7,84.4,136.3,84.4
			z"/>
		<path class="st1" d="M119.8,84.1c-1.5,0-2.8,1.2-2.8,2.8c0,1.5,1.2,2.8,2.8,2.8c1.5,0,2.8-1.2,2.8-2.8
			C122.6,85.4,121.4,84.1,119.8,84.1z"/>
		<path class="st1" d="M103.4,83.9c-1.7,0-3.1,1.4-3.1,3.1c0,1.7,1.4,3.1,3.1,3.1c1.7,0,3.1-1.4,3.1-3.1
			C106.4,85.2,105.1,83.9,103.4,83.9z"/>
		<path class="st1" d="M86.9,83.6c-1.8,0-3.3,1.5-3.3,3.3s1.5,3.3,3.3,3.3c1.8,0,3.3-1.5,3.3-3.3S88.8,83.6,86.9,83.6z"/>
		<path class="st1" d="M70.5,83.3c-2,0-3.6,1.6-3.6,3.6c0,2,1.6,3.6,3.6,3.6c2,0,3.6-1.6,3.6-3.6C74.1,84.9,72.5,83.3,70.5,83.3z"/>
		<ellipse transform="matrix(0.9246 -0.3809 0.3809 0.9246 -29.0392 27.1292)" class="st1" cx="54" cy="86.9" rx="3.9" ry="3.9"/>
		<ellipse transform="matrix(0.9246 -0.3808 0.3808 0.9246 -30.2744 20.856)" class="st1" cx="37.6" cy="86.9" rx="4.1" ry="4.1"/>
		<path class="st1" d="M21.1,82.5c-2.4,0-4.4,2-4.4,4.4s2,4.4,4.4,4.4c2.4,0,4.4-2,4.4-4.4S23.5,82.5,21.1,82.5z"/>
		<ellipse transform="matrix(0.9247 -0.3807 0.3807 0.9247 -32.739 8.3157)" class="st1" cx="4.7" cy="86.9" rx="4.7" ry="4.7"/>
		<path class="st1" d="M185.7,68.5c-1.1,0-2,0.9-2,2c0,1.1,0.9,2,2,2c1.1,0,2-0.9,2-2C187.7,69.4,186.8,68.5,185.7,68.5z"/>
		<path class="st1" d="M169.2,68.5c-1.1,0-2,0.9-2,2c0,1.1,0.9,2,2,2c1.1,0,2-0.9,2-2C171.2,69.4,170.3,68.5,169.2,68.5z"/>
		<path class="st1" d="M152.7,68.2c-1.3,0-2.3,1-2.3,2.3s1,2.3,2.3,2.3c1.3,0,2.3-1,2.3-2.3S154,68.2,152.7,68.2z"/>
		<path class="st1" d="M136.3,67.9c-1.4,0-2.6,1.1-2.6,2.6c0,1.4,1.1,2.6,2.6,2.6s2.6-1.1,2.6-2.6C138.8,69.1,137.7,67.9,136.3,67.9
			z"/>
		<path class="st1" d="M119.8,67.7c-1.5,0-2.8,1.2-2.8,2.8c0,1.5,1.2,2.8,2.8,2.8c1.5,0,2.8-1.2,2.8-2.8
			C122.6,68.9,121.4,67.7,119.8,67.7z"/>
		<path class="st1" d="M103.4,67.4c-1.7,0-3.1,1.4-3.1,3.1c0,1.7,1.4,3.1,3.1,3.1c1.7,0,3.1-1.4,3.1-3.1
			C106.4,68.8,105.1,67.4,103.4,67.4z"/>
		<path class="st1" d="M86.9,67.1c-1.8,0-3.3,1.5-3.3,3.3s1.5,3.3,3.3,3.3c1.8,0,3.3-1.5,3.3-3.3S88.8,67.1,86.9,67.1z"/>
		<path class="st1" d="M70.5,66.9c-2,0-3.6,1.6-3.6,3.6c0,2,1.6,3.6,3.6,3.6c2,0,3.6-1.6,3.6-3.6C74.1,68.5,72.5,66.9,70.5,66.9z"/>
		<ellipse transform="matrix(0.9246 -0.3809 0.3809 0.9246 -22.7715 25.8887)" class="st1" cx="54" cy="70.5" rx="3.9" ry="3.9"/>
		<ellipse transform="matrix(0.9246 -0.3808 0.3808 0.9246 -24.0079 19.6161)" class="st1" cx="37.6" cy="70.5" rx="4.1" ry="4.1"/>
		<path class="st1" d="M21.1,66.1c-2.4,0-4.4,2-4.4,4.4s2,4.4,4.4,4.4c2.4,0,4.4-2,4.4-4.4S23.5,66.1,21.1,66.1z"/>
		<ellipse transform="matrix(0.9247 -0.3807 0.3807 0.9247 -26.4754 7.0769)" class="st1" cx="4.7" cy="70.5" rx="4.7" ry="4.7"/>
		<path class="st1" d="M185.7,52c-1.1,0-2,0.9-2,2s0.9,2,2,2c1.1,0,2-0.9,2-2S186.8,52,185.7,52z"/>
		<path class="st1" d="M169.2,52c-1.1,0-2,0.9-2,2s0.9,2,2,2c1.1,0,2-0.9,2-2S170.3,52,169.2,52z"/>
		<path class="st1" d="M152.7,51.7c-1.3,0-2.3,1-2.3,2.3s1,2.3,2.3,2.3c1.3,0,2.3-1,2.3-2.3S154,51.7,152.7,51.7z"/>
		<path class="st1" d="M136.3,51.5c-1.4,0-2.6,1.1-2.6,2.6s1.1,2.6,2.6,2.6s2.6-1.1,2.6-2.6S137.7,51.5,136.3,51.5z"/>
		<path class="st1" d="M119.8,51.2c-1.5,0-2.8,1.2-2.8,2.8s1.2,2.8,2.8,2.8c1.5,0,2.8-1.2,2.8-2.8S121.4,51.2,119.8,51.2z"/>
		<path class="st1" d="M103.4,51c-1.7,0-3.1,1.4-3.1,3.1c0,1.7,1.4,3.1,3.1,3.1c1.7,0,3.1-1.4,3.1-3.1C106.4,52.3,105.1,51,103.4,51
			z"/>
		<path class="st1" d="M86.9,50.7c-1.8,0-3.3,1.5-3.3,3.3s1.5,3.3,3.3,3.3c1.8,0,3.3-1.5,3.3-3.3S88.8,50.7,86.9,50.7z"/>
		<path class="st1" d="M70.5,50.4c-2,0-3.6,1.6-3.6,3.6c0,2,1.6,3.6,3.6,3.6c2,0,3.6-1.6,3.6-3.6C74.1,52,72.5,50.4,70.5,50.4z"/>
		<ellipse transform="matrix(0.9246 -0.3809 0.3809 0.9246 -16.5037 24.6483)" class="st1" cx="54" cy="54" rx="3.9" ry="3.9"/>
		<ellipse transform="matrix(0.9246 -0.3808 0.3808 0.9246 -17.7414 18.3761)" class="st1" cx="37.6" cy="54" rx="4.1" ry="4.1"/>
		<path class="st1" d="M21.1,49.6c-2.4,0-4.4,2-4.4,4.4s2,4.4,4.4,4.4c2.4,0,4.4-2,4.4-4.4S23.5,49.6,21.1,49.6z"/>
		<ellipse transform="matrix(0.9247 -0.3807 0.3807 0.9247 -20.2119 5.8382)" class="st1" cx="4.7" cy="54" rx="4.7" ry="4.7"/>
		<path class="st1" d="M185.7,35.6c-1.1,0-2,0.9-2,2c0,1.1,0.9,2,2,2c1.1,0,2-0.9,2-2C187.7,36.5,186.8,35.6,185.7,35.6z"/>
		<path class="st1" d="M169.2,35.6c-1.1,0-2,0.9-2,2c0,1.1,0.9,2,2,2c1.1,0,2-0.9,2-2C171.2,36.5,170.3,35.6,169.2,35.6z"/>
		<path class="st1" d="M152.7,35.3c-1.3,0-2.3,1-2.3,2.3s1,2.3,2.3,2.3c1.3,0,2.3-1,2.3-2.3S154,35.3,152.7,35.3z"/>
		<path class="st1" d="M136.3,35c-1.4,0-2.6,1.1-2.6,2.6c0,1.4,1.1,2.6,2.6,2.6s2.6-1.1,2.6-2.6C138.8,36.2,137.7,35,136.3,35z"/>
		<path class="st1" d="M119.8,34.8c-1.5,0-2.8,1.2-2.8,2.8s1.2,2.8,2.8,2.8c1.5,0,2.8-1.2,2.8-2.8S121.4,34.8,119.8,34.8z"/>
		<path class="st1" d="M103.4,34.5c-1.7,0-3.1,1.4-3.1,3.1c0,1.7,1.4,3.1,3.1,3.1c1.7,0,3.1-1.4,3.1-3.1
			C106.4,35.9,105.1,34.5,103.4,34.5z"/>
		<path class="st1" d="M86.9,34.2c-1.8,0-3.3,1.5-3.3,3.3s1.5,3.3,3.3,3.3c1.8,0,3.3-1.5,3.3-3.3S88.8,34.2,86.9,34.2z"/>
		<path class="st1" d="M70.5,34c-2,0-3.6,1.6-3.6,3.6c0,2,1.6,3.6,3.6,3.6c2,0,3.6-1.6,3.6-3.6C74.1,35.6,72.5,34,70.5,34z"/>
		<ellipse transform="matrix(0.9246 -0.3809 0.3809 0.9246 -10.236 23.4078)" class="st1" cx="54" cy="37.6" rx="3.9" ry="3.9"/>
		<ellipse transform="matrix(0.9246 -0.3808 0.3808 0.9246 -11.4748 17.1361)" class="st1" cx="37.6" cy="37.6" rx="4.1" ry="4.1"/>
		<path class="st1" d="M21.1,33.2c-2.4,0-4.4,2-4.4,4.4s2,4.4,4.4,4.4c2.4,0,4.4-2,4.4-4.4S23.5,33.2,21.1,33.2z"/>
		<ellipse transform="matrix(0.9247 -0.3807 0.3807 0.9247 -13.9483 4.5994)" class="st1" cx="4.7" cy="37.6" rx="4.7" ry="4.7"/>
		<path class="st1" d="M185.7,19.1c-1.1,0-2,0.9-2,2s0.9,2,2,2c1.1,0,2-0.9,2-2S186.8,19.1,185.7,19.1z"/>
		<path class="st1" d="M169.2,19.1c-1.1,0-2,0.9-2,2s0.9,2,2,2c1.1,0,2-0.9,2-2S170.3,19.1,169.2,19.1z"/>
		<path class="st1" d="M152.7,18.8c-1.3,0-2.3,1-2.3,2.3s1,2.3,2.3,2.3c1.3,0,2.3-1,2.3-2.3S154,18.8,152.7,18.8z"/>
		<path class="st1" d="M136.3,18.6c-1.4,0-2.6,1.1-2.6,2.6s1.1,2.6,2.6,2.6s2.6-1.1,2.6-2.6S137.7,18.6,136.3,18.6z"/>
		<path class="st1" d="M119.8,18.3c-1.5,0-2.8,1.2-2.8,2.8s1.2,2.8,2.8,2.8c1.5,0,2.8-1.2,2.8-2.8S121.4,18.3,119.8,18.3z"/>
		<path class="st1" d="M103.4,18.1c-1.7,0-3.1,1.4-3.1,3.1s1.4,3.1,3.1,3.1c1.7,0,3.1-1.4,3.1-3.1S105.1,18.1,103.4,18.1z"/>
		<path class="st1" d="M86.9,17.8c-1.8,0-3.3,1.5-3.3,3.3s1.5,3.3,3.3,3.3c1.8,0,3.3-1.5,3.3-3.3S88.8,17.8,86.9,17.8z"/>
		<path class="st1" d="M70.5,17.5c-2,0-3.6,1.6-3.6,3.6s1.6,3.6,3.6,3.6c2,0,3.6-1.6,3.6-3.6S72.5,17.5,70.5,17.5z"/>
		<ellipse transform="matrix(0.9246 -0.3809 0.3809 0.9246 -3.9682 22.1673)" class="st1" cx="54" cy="21.1" rx="3.9" ry="3.9"/>
		<ellipse transform="matrix(0.9246 -0.3808 0.3808 0.9246 -5.2083 15.8962)" class="st1" cx="37.6" cy="21.1" rx="4.1" ry="4.1"/>
		<path class="st1" d="M21.1,16.7c-2.4,0-4.4,2-4.4,4.4s2,4.4,4.4,4.4c2.4,0,4.4-2,4.4-4.4S23.5,16.7,21.1,16.7z"/>
		<ellipse transform="matrix(0.9247 -0.3807 0.3807 0.9247 -7.6848 3.3607)" class="st1" cx="4.7" cy="21.1" rx="4.7" ry="4.7"/>
		<path class="st1" d="M185.7,2.6c-1.1,0-2,0.9-2,2s0.9,2,2,2c1.1,0,2-0.9,2-2S186.8,2.6,185.7,2.6z"/>
		<path class="st1" d="M169.2,2.6c-1.1,0-2,0.9-2,2s0.9,2,2,2c1.1,0,2-0.9,2-2S170.3,2.6,169.2,2.6z"/>
		<path class="st1" d="M152.7,2.4c-1.3,0-2.3,1-2.3,2.3s1,2.3,2.3,2.3c1.3,0,2.3-1,2.3-2.3S154,2.4,152.7,2.4z"/>
		<path class="st1" d="M136.3,2.1c-1.4,0-2.6,1.1-2.6,2.6s1.1,2.6,2.6,2.6s2.6-1.1,2.6-2.6S137.7,2.1,136.3,2.1z"/>
		<path class="st1" d="M119.8,1.9c-1.5,0-2.8,1.2-2.8,2.8s1.2,2.8,2.8,2.8c1.5,0,2.8-1.2,2.8-2.8S121.4,1.9,119.8,1.9z"/>
		<path class="st1" d="M103.4,1.6c-1.7,0-3.1,1.4-3.1,3.1s1.4,3.1,3.1,3.1c1.7,0,3.1-1.4,3.1-3.1S105.1,1.6,103.4,1.6z"/>
		<path class="st1" d="M86.9,1.3c-1.8,0-3.3,1.5-3.3,3.3S85.1,8,86.9,8c1.8,0,3.3-1.5,3.3-3.3S88.8,1.3,86.9,1.3z"/>
		<path class="st1" d="M70.5,1c-2,0-3.6,1.6-3.6,3.6s1.6,3.6,3.6,3.6c2,0,3.6-1.6,3.6-3.6S72.5,1,70.5,1z"/>
		<ellipse transform="matrix(0.9246 -0.3809 0.3809 0.9246 2.2995 20.9268)" class="st1" cx="54" cy="4.7" rx="3.9" ry="3.9"/>
		<ellipse transform="matrix(0.9246 -0.3808 0.3808 0.9246 1.0582 14.6562)" class="st1" cx="37.6" cy="4.7" rx="4.1" ry="4.1"/>
		<path class="st1" d="M21.1,0.3c-2.4,0-4.4,2-4.4,4.4s2,4.4,4.4,4.4c2.4,0,4.4-2,4.4-4.4S23.5,0.3,21.1,0.3z"/>
		<ellipse transform="matrix(0.9247 -0.3807 0.3807 0.9247 -1.4212 2.1219)" class="st1" cx="4.7" cy="4.7" rx="4.7" ry="4.7"/>
	</g>
</g>
</svg>
