<?xml version="1.0" encoding="utf-8"?>
<!-- Generator: Adobe Illustrator 23.0.6, SVG Export Plug-In . SVG Version: 6.00 Build 0)  -->
<svg version="1.1" id="Layer_1" xmlns="http://www.w3.org/2000/svg" xmlns:xlink="http://www.w3.org/1999/xlink" x="0px" y="0px"
	 viewBox="0 0 187.7 331" style="enable-background:new 0 0 187.7 331;" xml:space="preserve">
<style type="text/css">
	.st0{opacity:0.15;}
	.st1{fill:#656565;}
</style>
<g class="st0">
	<g class="st0">
		<path class="st1" d="M2,6.7c1.1,0,2-0.9,2-2s-0.9-2-2-2c-1.1,0-2,0.9-2,2S0.9,6.7,2,6.7z"/>
		<path class="st1" d="M18.5,6.7c1.1,0,2-0.9,2-2s-0.9-2-2-2c-1.1,0-2,0.9-2,2S17.4,6.7,18.5,6.7z"/>
		<path class="st1" d="M34.9,6.9c1.3,0,2.3-1,2.3-2.3s-1-2.3-2.3-2.3c-1.3,0-2.3,1-2.3,2.3S33.7,6.9,34.9,6.9z"/>
		<path class="st1" d="M51.4,7.2c1.4,0,2.6-1.1,2.6-2.6s-1.1-2.6-2.6-2.6c-1.4,0-2.6,1.1-2.6,2.6S50,7.2,51.4,7.2z"/>
		<path class="st1" d="M67.8,7.4c1.5,0,2.8-1.2,2.8-2.8s-1.2-2.8-2.8-2.8c-1.5,0-2.8,1.2-2.8,2.8S66.3,7.4,67.8,7.4z"/>
		<path class="st1" d="M84.3,7.7c1.7,0,3.1-1.4,3.1-3.1S86,1.6,84.3,1.6c-1.7,0-3.1,1.4-3.1,3.1S82.6,7.7,84.3,7.7z"/>
		<path class="st1" d="M100.7,8c1.8,0,3.3-1.5,3.3-3.3s-1.5-3.3-3.3-3.3c-1.8,0-3.3,1.5-3.3,3.3S98.9,8,100.7,8z"/>
		<path class="st1" d="M117.2,8.3c2,0,3.6-1.6,3.6-3.6S119.2,1,117.2,1c-2,0-3.6,1.6-3.6,3.6S115.2,8.3,117.2,8.3z"/>
		<ellipse transform="matrix(0.9246 -0.3809 0.3809 0.9246 8.3024 51.2575)" class="st1" cx="133.6" cy="4.7" rx="3.9" ry="3.9"/>
		<ellipse transform="matrix(0.9246 -0.3808 0.3808 0.9246 9.5386 57.514)" class="st1" cx="150.1" cy="4.7" rx="4.1" ry="4.1"/>
		<path class="st1" d="M166.6,9c2.4,0,4.4-2,4.4-4.4s-2-4.4-4.4-4.4c-2.4,0-4.4,2-4.4,4.4S164.1,9,166.6,9z"/>
		<ellipse transform="matrix(0.9247 -0.3807 0.3807 0.9247 12.0058 70.0137)" class="st1" cx="183" cy="4.7" rx="4.7" ry="4.7"/>
		<path class="st1" d="M2,23.1c1.1,0,2-0.9,2-2c0-1.1-0.9-2-2-2c-1.1,0-2,0.9-2,2C0,22.2,0.9,23.1,2,23.1z"/>
		<path class="st1" d="M18.5,23.1c1.1,0,2-0.9,2-2c0-1.1-0.9-2-2-2c-1.1,0-2,0.9-2,2C16.5,22.2,17.4,23.1,18.5,23.1z"/>
		<path class="st1" d="M34.9,23.4c1.3,0,2.3-1,2.3-2.3s-1-2.3-2.3-2.3c-1.3,0-2.3,1-2.3,2.3S33.7,23.4,34.9,23.4z"/>
		<path class="st1" d="M51.4,23.7c1.4,0,2.6-1.1,2.6-2.6s-1.1-2.6-2.6-2.6c-1.4,0-2.6,1.1-2.6,2.6S50,23.7,51.4,23.7z"/>
		<path class="st1" d="M67.8,23.9c1.5,0,2.8-1.2,2.8-2.8s-1.2-2.8-2.8-2.8c-1.5,0-2.8,1.2-2.8,2.8S66.3,23.9,67.8,23.9z"/>
		<path class="st1" d="M84.3,24.2c1.7,0,3.1-1.4,3.1-3.1s-1.4-3.1-3.1-3.1c-1.7,0-3.1,1.4-3.1,3.1S82.6,24.2,84.3,24.2z"/>
		<path class="st1" d="M100.7,24.4c1.8,0,3.3-1.5,3.3-3.3s-1.5-3.3-3.3-3.3c-1.8,0-3.3,1.5-3.3,3.3S98.9,24.4,100.7,24.4z"/>
		<path class="st1" d="M117.2,24.7c2,0,3.6-1.6,3.6-3.6s-1.6-3.6-3.6-3.6c-2,0-3.6,1.6-3.6,3.6S115.2,24.7,117.2,24.7z"/>
		<ellipse transform="matrix(0.9246 -0.3809 0.3809 0.9246 2.0346 52.498)" class="st1" cx="133.6" cy="21.1" rx="3.9" ry="3.9"/>
		<ellipse transform="matrix(0.9246 -0.3808 0.3808 0.9246 3.2721 58.754)" class="st1" cx="150.1" cy="21.1" rx="4.1" ry="4.1"/>
		<path class="st1" d="M166.6,25.5c2.4,0,4.4-2,4.4-4.4s-2-4.4-4.4-4.4c-2.4,0-4.4,2-4.4,4.4S164.1,25.5,166.6,25.5z"/>
		<ellipse transform="matrix(0.9247 -0.3807 0.3807 0.9247 5.7422 71.2524)" class="st1" cx="183" cy="21.1" rx="4.7" ry="4.7"/>
		<path class="st1" d="M2,39.6c1.1,0,2-0.9,2-2c0-1.1-0.9-2-2-2c-1.1,0-2,0.9-2,2C0,38.7,0.9,39.6,2,39.6z"/>
		<path class="st1" d="M18.5,39.6c1.1,0,2-0.9,2-2c0-1.1-0.9-2-2-2c-1.1,0-2,0.9-2,2C16.5,38.7,17.4,39.6,18.5,39.6z"/>
		<path class="st1" d="M34.9,39.8c1.3,0,2.3-1,2.3-2.3c0-1.3-1-2.3-2.3-2.3c-1.3,0-2.3,1-2.3,2.3C32.6,38.8,33.7,39.8,34.9,39.8z"/>
		<path class="st1" d="M51.4,40.1c1.4,0,2.6-1.1,2.6-2.6c0-1.4-1.1-2.6-2.6-2.6c-1.4,0-2.6,1.1-2.6,2.6C48.8,39,50,40.1,51.4,40.1z"
			/>
		<path class="st1" d="M67.8,40.3c1.5,0,2.8-1.2,2.8-2.8c0-1.5-1.2-2.8-2.8-2.8c-1.5,0-2.8,1.2-2.8,2.8C65,39.1,66.3,40.3,67.8,40.3
			z"/>
		<path class="st1" d="M84.3,40.6c1.7,0,3.1-1.4,3.1-3.1c0-1.7-1.4-3.1-3.1-3.1c-1.7,0-3.1,1.4-3.1,3.1
			C81.2,39.3,82.6,40.6,84.3,40.6z"/>
		<path class="st1" d="M100.7,40.9c1.8,0,3.3-1.5,3.3-3.3s-1.5-3.3-3.3-3.3c-1.8,0-3.3,1.5-3.3,3.3S98.9,40.9,100.7,40.9z"/>
		<path class="st1" d="M117.2,41.2c2,0,3.6-1.6,3.6-3.6c0-2-1.6-3.6-3.6-3.6c-2,0-3.6,1.6-3.6,3.6C113.6,39.6,115.2,41.2,117.2,41.2
			z"/>
		<ellipse transform="matrix(0.9246 -0.3809 0.3809 0.9246 -4.2331 53.7384)" class="st1" cx="133.6" cy="37.6" rx="3.9" ry="3.9"/>
		<ellipse transform="matrix(0.9246 -0.3808 0.3808 0.9246 -2.9944 59.9939)" class="st1" cx="150.1" cy="37.6" rx="4.1" ry="4.1"/>
		<path class="st1" d="M166.6,41.9c2.4,0,4.4-2,4.4-4.4c0-2.4-2-4.4-4.4-4.4c-2.4,0-4.4,2-4.4,4.4C162.2,40,164.1,41.9,166.6,41.9z"
			/>
		<ellipse transform="matrix(0.9247 -0.3807 0.3807 0.9247 -0.5213 72.4912)" class="st1" cx="183" cy="37.6" rx="4.7" ry="4.7"/>
		<path class="st1" d="M2,56c1.1,0,2-0.9,2-2c0-1.1-0.9-2-2-2c-1.1,0-2,0.9-2,2C0,55.1,0.9,56,2,56z"/>
		<path class="st1" d="M18.5,56c1.1,0,2-0.9,2-2c0-1.1-0.9-2-2-2c-1.1,0-2,0.9-2,2C16.5,55.1,17.4,56,18.5,56z"/>
		<path class="st1" d="M34.9,56.3c1.3,0,2.3-1,2.3-2.3s-1-2.3-2.3-2.3c-1.3,0-2.3,1-2.3,2.3S33.7,56.3,34.9,56.3z"/>
		<path class="st1" d="M51.4,56.6c1.4,0,2.6-1.1,2.6-2.6c0-1.4-1.1-2.6-2.6-2.6c-1.4,0-2.6,1.1-2.6,2.6C48.8,55.4,50,56.6,51.4,56.6
			z"/>
		<path class="st1" d="M67.8,56.8c1.5,0,2.8-1.2,2.8-2.8s-1.2-2.8-2.8-2.8c-1.5,0-2.8,1.2-2.8,2.8S66.3,56.8,67.8,56.8z"/>
		<path class="st1" d="M84.3,57.1c1.7,0,3.1-1.4,3.1-3.1c0-1.7-1.4-3.1-3.1-3.1c-1.7,0-3.1,1.4-3.1,3.1
			C81.2,55.7,82.6,57.1,84.3,57.1z"/>
		<path class="st1" d="M100.7,57.3c1.8,0,3.3-1.5,3.3-3.3s-1.5-3.3-3.3-3.3c-1.8,0-3.3,1.5-3.3,3.3S98.9,57.3,100.7,57.3z"/>
		<path class="st1" d="M117.2,57.6c2,0,3.6-1.6,3.6-3.6c0-2-1.6-3.6-3.6-3.6c-2,0-3.6,1.6-3.6,3.6C113.6,56,115.2,57.6,117.2,57.6z"
			/>
		<ellipse transform="matrix(0.9246 -0.3809 0.3809 0.9246 -10.5009 54.9789)" class="st1" cx="133.6" cy="54" rx="3.9" ry="3.9"/>
		<ellipse transform="matrix(0.9246 -0.3808 0.3808 0.9246 -9.261 61.2339)" class="st1" cx="150.1" cy="54" rx="4.1" ry="4.1"/>
		<path class="st1" d="M166.6,58.4c2.4,0,4.4-2,4.4-4.4s-2-4.4-4.4-4.4c-2.4,0-4.4,2-4.4,4.4S164.1,58.4,166.6,58.4z"/>
		<ellipse transform="matrix(0.9247 -0.3807 0.3807 0.9247 -6.7849 73.7299)" class="st1" cx="183" cy="54" rx="4.7" ry="4.7"/>
		<path class="st1" d="M2,72.5c1.1,0,2-0.9,2-2c0-1.1-0.9-2-2-2c-1.1,0-2,0.9-2,2C0,71.6,0.9,72.5,2,72.5z"/>
		<path class="st1" d="M18.5,72.5c1.1,0,2-0.9,2-2c0-1.1-0.9-2-2-2c-1.1,0-2,0.9-2,2C16.5,71.6,17.4,72.5,18.5,72.5z"/>
		<path class="st1" d="M34.9,72.8c1.3,0,2.3-1,2.3-2.3c0-1.3-1-2.3-2.3-2.3c-1.3,0-2.3,1-2.3,2.3C32.6,71.7,33.7,72.8,34.9,72.8z"/>
		<path class="st1" d="M51.4,73c1.4,0,2.6-1.1,2.6-2.6c0-1.4-1.1-2.6-2.6-2.6c-1.4,0-2.6,1.1-2.6,2.6C48.8,71.9,50,73,51.4,73z"/>
		<path class="st1" d="M67.8,73.3c1.5,0,2.8-1.2,2.8-2.8c0-1.5-1.2-2.8-2.8-2.8c-1.5,0-2.8,1.2-2.8,2.8C65,72,66.3,73.3,67.8,73.3z"
			/>
		<path class="st1" d="M84.3,73.5c1.7,0,3.1-1.4,3.1-3.1c0-1.7-1.4-3.1-3.1-3.1c-1.7,0-3.1,1.4-3.1,3.1
			C81.2,72.2,82.6,73.5,84.3,73.5z"/>
		<path class="st1" d="M100.7,73.8c1.8,0,3.3-1.5,3.3-3.3s-1.5-3.3-3.3-3.3c-1.8,0-3.3,1.5-3.3,3.3S98.9,73.8,100.7,73.8z"/>
		<path class="st1" d="M117.2,74.1c2,0,3.6-1.6,3.6-3.6c0-2-1.6-3.6-3.6-3.6c-2,0-3.6,1.6-3.6,3.6C113.6,72.5,115.2,74.1,117.2,74.1
			z"/>
		
			<ellipse transform="matrix(0.9246 -0.3809 0.3809 0.9246 -16.7686 56.2194)" class="st1" cx="133.6" cy="70.5" rx="3.9" ry="3.9"/>
		
			<ellipse transform="matrix(0.9246 -0.3808 0.3808 0.9246 -15.5275 62.4739)" class="st1" cx="150.1" cy="70.5" rx="4.1" ry="4.1"/>
		<path class="st1" d="M166.6,74.9c2.4,0,4.4-2,4.4-4.4s-2-4.4-4.4-4.4c-2.4,0-4.4,2-4.4,4.4S164.1,74.9,166.6,74.9z"/>
		<ellipse transform="matrix(0.9247 -0.3807 0.3807 0.9247 -13.0484 74.9687)" class="st1" cx="183" cy="70.5" rx="4.7" ry="4.7"/>
		<path class="st1" d="M2,88.9c1.1,0,2-0.9,2-2c0-1.1-0.9-2-2-2c-1.1,0-2,0.9-2,2C0,88,0.9,88.9,2,88.9z"/>
		<path class="st1" d="M18.5,88.9c1.1,0,2-0.9,2-2c0-1.1-0.9-2-2-2c-1.1,0-2,0.9-2,2C16.5,88,17.4,88.9,18.5,88.9z"/>
		<path class="st1" d="M34.9,89.2c1.3,0,2.3-1,2.3-2.3c0-1.3-1-2.3-2.3-2.3c-1.3,0-2.3,1-2.3,2.3C32.6,88.2,33.7,89.2,34.9,89.2z"/>
		<path class="st1" d="M51.4,89.5c1.4,0,2.6-1.1,2.6-2.6c0-1.4-1.1-2.6-2.6-2.6c-1.4,0-2.6,1.1-2.6,2.6C48.8,88.3,50,89.5,51.4,89.5
			z"/>
		<path class="st1" d="M67.8,89.7c1.5,0,2.8-1.2,2.8-2.8c0-1.5-1.2-2.8-2.8-2.8c-1.5,0-2.8,1.2-2.8,2.8C65,88.5,66.3,89.7,67.8,89.7
			z"/>
		<path class="st1" d="M84.3,90c1.7,0,3.1-1.4,3.1-3.1c0-1.7-1.4-3.1-3.1-3.1c-1.7,0-3.1,1.4-3.1,3.1C81.2,88.6,82.6,90,84.3,90z"/>
		<path class="st1" d="M100.7,90.3c1.8,0,3.3-1.5,3.3-3.3s-1.5-3.3-3.3-3.3c-1.8,0-3.3,1.5-3.3,3.3S98.9,90.3,100.7,90.3z"/>
		<path class="st1" d="M117.2,90.5c2,0,3.6-1.6,3.6-3.6c0-2-1.6-3.6-3.6-3.6c-2,0-3.6,1.6-3.6,3.6C113.6,88.9,115.2,90.5,117.2,90.5
			z"/>
		
			<ellipse transform="matrix(0.9246 -0.3809 0.3809 0.9246 -23.0363 57.4599)" class="st1" cx="133.6" cy="86.9" rx="3.9" ry="3.9"/>
		<ellipse transform="matrix(0.9246 -0.3808 0.3808 0.9246 -21.794 63.7138)" class="st1" cx="150.1" cy="86.9" rx="4.1" ry="4.1"/>
		<path class="st1" d="M166.6,91.3c2.4,0,4.4-2,4.4-4.4s-2-4.4-4.4-4.4c-2.4,0-4.4,2-4.4,4.4S164.1,91.3,166.6,91.3z"/>
		<ellipse transform="matrix(0.9247 -0.3807 0.3807 0.9247 -19.312 76.2074)" class="st1" cx="183" cy="86.9" rx="4.7" ry="4.7"/>
		<path class="st1" d="M2,105.4c1.1,0,2-0.9,2-2c0-1.1-0.9-2-2-2c-1.1,0-2,0.9-2,2C0,104.5,0.9,105.4,2,105.4z"/>
		<path class="st1" d="M18.5,105.4c1.1,0,2-0.9,2-2c0-1.1-0.9-2-2-2c-1.1,0-2,0.9-2,2C16.5,104.5,17.4,105.4,18.5,105.4z"/>
		<path class="st1" d="M34.9,105.7c1.3,0,2.3-1,2.3-2.3s-1-2.3-2.3-2.3c-1.3,0-2.3,1-2.3,2.3S33.7,105.7,34.9,105.7z"/>
		<path class="st1" d="M51.4,105.9c1.4,0,2.6-1.1,2.6-2.6c0-1.4-1.1-2.6-2.6-2.6c-1.4,0-2.6,1.1-2.6,2.6
			C48.8,104.8,50,105.9,51.4,105.9z"/>
		<path class="st1" d="M67.8,106.2c1.5,0,2.8-1.2,2.8-2.8c0-1.5-1.2-2.8-2.8-2.8c-1.5,0-2.8,1.2-2.8,2.8
			C65,104.9,66.3,106.2,67.8,106.2z"/>
		<path class="st1" d="M84.3,106.4c1.7,0,3.1-1.4,3.1-3.1c0-1.7-1.4-3.1-3.1-3.1c-1.7,0-3.1,1.4-3.1,3.1
			C81.2,105.1,82.6,106.4,84.3,106.4z"/>
		<path class="st1" d="M100.7,106.7c1.8,0,3.3-1.5,3.3-3.3s-1.5-3.3-3.3-3.3c-1.8,0-3.3,1.5-3.3,3.3S98.9,106.7,100.7,106.7z"/>
		<path class="st1" d="M117.2,107c2,0,3.6-1.6,3.6-3.6c0-2-1.6-3.6-3.6-3.6c-2,0-3.6,1.6-3.6,3.6C113.6,105.4,115.2,107,117.2,107z"
			/>
		
			<ellipse transform="matrix(0.9246 -0.3809 0.3809 0.9246 -29.3041 58.7003)" class="st1" cx="133.6" cy="103.4" rx="3.9" ry="3.9"/>
		
			<ellipse transform="matrix(0.9246 -0.3808 0.3808 0.9246 -28.0605 64.9538)" class="st1" cx="150.1" cy="103.4" rx="4.1" ry="4.1"/>
		<path class="st1" d="M166.6,107.8c2.4,0,4.4-2,4.4-4.4s-2-4.4-4.4-4.4c-2.4,0-4.4,2-4.4,4.4S164.1,107.8,166.6,107.8z"/>
		<ellipse transform="matrix(0.9247 -0.3807 0.3807 0.9247 -25.5756 77.4462)" class="st1" cx="183" cy="103.4" rx="4.7" ry="4.7"/>
	</g>
	<g class="st0">
		<path class="st1" d="M2,118.1c1.1,0,2-0.9,2-2s-0.9-2-2-2c-1.1,0-2,0.9-2,2S0.9,118.1,2,118.1z"/>
		<path class="st1" d="M18.5,118.1c1.1,0,2-0.9,2-2s-0.9-2-2-2c-1.1,0-2,0.9-2,2S17.4,118.1,18.5,118.1z"/>
		<path class="st1" d="M34.9,118.4c1.3,0,2.3-1,2.3-2.3s-1-2.3-2.3-2.3c-1.3,0-2.3,1-2.3,2.3S33.7,118.4,34.9,118.4z"/>
		<path class="st1" d="M51.4,118.7c1.4,0,2.6-1.1,2.6-2.6s-1.1-2.6-2.6-2.6c-1.4,0-2.6,1.1-2.6,2.6S50,118.7,51.4,118.7z"/>
		<path class="st1" d="M67.8,118.9c1.5,0,2.8-1.2,2.8-2.8c0-1.5-1.2-2.8-2.8-2.8c-1.5,0-2.8,1.2-2.8,2.8
			C65,117.7,66.3,118.9,67.8,118.9z"/>
		<path class="st1" d="M84.3,119.2c1.7,0,3.1-1.4,3.1-3.1s-1.4-3.1-3.1-3.1c-1.7,0-3.1,1.4-3.1,3.1S82.6,119.2,84.3,119.2z"/>
		<path class="st1" d="M100.7,119.5c1.8,0,3.3-1.5,3.3-3.3s-1.5-3.3-3.3-3.3c-1.8,0-3.3,1.5-3.3,3.3S98.9,119.5,100.7,119.5z"/>
		<path class="st1" d="M117.2,119.7c2,0,3.6-1.6,3.6-3.6s-1.6-3.6-3.6-3.6c-2,0-3.6,1.6-3.6,3.6S115.2,119.7,117.2,119.7z"/>
		
			<ellipse transform="matrix(0.9246 -0.3809 0.3809 0.9246 -34.159 59.6612)" class="st1" cx="133.6" cy="116.1" rx="3.9" ry="3.9"/>
		
			<ellipse transform="matrix(0.9246 -0.3808 0.3808 0.9246 -32.9145 65.9143)" class="st1" cx="150.1" cy="116.1" rx="4.1" ry="4.1"/>
		<path class="st1" d="M166.6,120.5c2.4,0,4.4-2,4.4-4.4s-2-4.4-4.4-4.4c-2.4,0-4.4,2-4.4,4.4S164.1,120.5,166.6,120.5z"/>
		<ellipse transform="matrix(0.9247 -0.3807 0.3807 0.9247 -30.4272 78.4057)" class="st1" cx="183" cy="116.1" rx="4.7" ry="4.7"/>
		<path class="st1" d="M2,134.6c1.1,0,2-0.9,2-2c0-1.1-0.9-2-2-2c-1.1,0-2,0.9-2,2C0,133.7,0.9,134.6,2,134.6z"/>
		<path class="st1" d="M18.5,134.6c1.1,0,2-0.9,2-2c0-1.1-0.9-2-2-2c-1.1,0-2,0.9-2,2C16.5,133.7,17.4,134.6,18.5,134.6z"/>
		<path class="st1" d="M34.9,134.9c1.3,0,2.3-1,2.3-2.3c0-1.3-1-2.3-2.3-2.3c-1.3,0-2.3,1-2.3,2.3C32.6,133.8,33.7,134.9,34.9,134.9
			z"/>
		<path class="st1" d="M51.4,135.1c1.4,0,2.6-1.1,2.6-2.6c0-1.4-1.1-2.6-2.6-2.6c-1.4,0-2.6,1.1-2.6,2.6
			C48.8,134,50,135.1,51.4,135.1z"/>
		<path class="st1" d="M67.8,135.4c1.5,0,2.8-1.2,2.8-2.8c0-1.5-1.2-2.8-2.8-2.8c-1.5,0-2.8,1.2-2.8,2.8
			C65,134.1,66.3,135.4,67.8,135.4z"/>
		<path class="st1" d="M84.3,135.6c1.7,0,3.1-1.4,3.1-3.1c0-1.7-1.4-3.1-3.1-3.1c-1.7,0-3.1,1.4-3.1,3.1
			C81.2,134.3,82.6,135.6,84.3,135.6z"/>
		<path class="st1" d="M100.7,135.9c1.8,0,3.3-1.5,3.3-3.3c0-1.8-1.5-3.3-3.3-3.3c-1.8,0-3.3,1.5-3.3,3.3
			C97.4,134.4,98.9,135.9,100.7,135.9z"/>
		<path class="st1" d="M117.2,136.2c2,0,3.6-1.6,3.6-3.6c0-2-1.6-3.6-3.6-3.6c-2,0-3.6,1.6-3.6,3.6
			C113.6,134.6,115.2,136.2,117.2,136.2z"/>
		
			<ellipse transform="matrix(0.9246 -0.3809 0.3809 0.9246 -40.4267 60.9016)" class="st1" cx="133.6" cy="132.6" rx="3.9" ry="3.9"/>
		
			<ellipse transform="matrix(0.9246 -0.3808 0.3808 0.9246 -39.181 67.1542)" class="st1" cx="150.1" cy="132.6" rx="4.1" ry="4.1"/>
		<path class="st1" d="M166.6,137c2.4,0,4.4-2,4.4-4.4c0-2.4-2-4.4-4.4-4.4c-2.4,0-4.4,2-4.4,4.4C162.2,135,164.1,137,166.6,137z"/>
		<ellipse transform="matrix(0.9247 -0.3807 0.3807 0.9247 -36.6907 79.6444)" class="st1" cx="183" cy="132.6" rx="4.7" ry="4.7"/>
		<path class="st1" d="M2,151c1.1,0,2-0.9,2-2c0-1.1-0.9-2-2-2c-1.1,0-2,0.9-2,2C0,150.1,0.9,151,2,151z"/>
		<path class="st1" d="M18.5,151c1.1,0,2-0.9,2-2c0-1.1-0.9-2-2-2c-1.1,0-2,0.9-2,2C16.5,150.1,17.4,151,18.5,151z"/>
		<path class="st1" d="M34.9,151.3c1.3,0,2.3-1,2.3-2.3c0-1.3-1-2.3-2.3-2.3c-1.3,0-2.3,1-2.3,2.3C32.6,150.3,33.7,151.3,34.9,151.3
			z"/>
		<path class="st1" d="M51.4,151.6c1.4,0,2.6-1.1,2.6-2.6s-1.1-2.6-2.6-2.6c-1.4,0-2.6,1.1-2.6,2.6S50,151.6,51.4,151.6z"/>
		<path class="st1" d="M67.8,151.8c1.5,0,2.8-1.2,2.8-2.8c0-1.5-1.2-2.8-2.8-2.8c-1.5,0-2.8,1.2-2.8,2.8
			C65,150.6,66.3,151.8,67.8,151.8z"/>
		<path class="st1" d="M84.3,152.1c1.7,0,3.1-1.4,3.1-3.1S86,146,84.3,146c-1.7,0-3.1,1.4-3.1,3.1S82.6,152.1,84.3,152.1z"/>
		<path class="st1" d="M100.7,152.4c1.8,0,3.3-1.5,3.3-3.3c0-1.8-1.5-3.3-3.3-3.3c-1.8,0-3.3,1.5-3.3,3.3
			C97.4,150.9,98.9,152.4,100.7,152.4z"/>
		<path class="st1" d="M117.2,152.6c2,0,3.6-1.6,3.6-3.6s-1.6-3.6-3.6-3.6c-2,0-3.6,1.6-3.6,3.6S115.2,152.6,117.2,152.6z"/>
		<ellipse transform="matrix(0.9246 -0.3809 0.3809 0.9246 -46.6944 62.1421)" class="st1" cx="133.6" cy="149" rx="3.9" ry="3.9"/>
		<ellipse transform="matrix(0.9246 -0.3808 0.3808 0.9246 -45.4475 68.3942)" class="st1" cx="150.1" cy="149" rx="4.1" ry="4.1"/>
		<path class="st1" d="M166.6,153.4c2.4,0,4.4-2,4.4-4.4c0-2.4-2-4.4-4.4-4.4c-2.4,0-4.4,2-4.4,4.4
			C162.2,151.5,164.1,153.4,166.6,153.4z"/>
		<ellipse transform="matrix(0.9247 -0.3807 0.3807 0.9247 -42.9543 80.8832)" class="st1" cx="183" cy="149" rx="4.7" ry="4.7"/>
		<path class="st1" d="M2,167.5c1.1,0,2-0.9,2-2c0-1.1-0.9-2-2-2c-1.1,0-2,0.9-2,2C0,166.6,0.9,167.5,2,167.5z"/>
		<path class="st1" d="M18.5,167.5c1.1,0,2-0.9,2-2c0-1.1-0.9-2-2-2c-1.1,0-2,0.9-2,2C16.5,166.6,17.4,167.5,18.5,167.5z"/>
		<path class="st1" d="M34.9,167.8c1.3,0,2.3-1,2.3-2.3c0-1.3-1-2.3-2.3-2.3c-1.3,0-2.3,1-2.3,2.3C32.6,166.8,33.7,167.8,34.9,167.8
			z"/>
		<path class="st1" d="M51.4,168c1.4,0,2.6-1.1,2.6-2.6s-1.1-2.6-2.6-2.6c-1.4,0-2.6,1.1-2.6,2.6S50,168,51.4,168z"/>
		<path class="st1" d="M67.8,168.3c1.5,0,2.8-1.2,2.8-2.8c0-1.5-1.2-2.8-2.8-2.8c-1.5,0-2.8,1.2-2.8,2.8
			C65,167,66.3,168.3,67.8,168.3z"/>
		<path class="st1" d="M84.3,168.5c1.7,0,3.1-1.4,3.1-3.1s-1.4-3.1-3.1-3.1c-1.7,0-3.1,1.4-3.1,3.1S82.6,168.5,84.3,168.5z"/>
		<path class="st1" d="M100.7,168.8c1.8,0,3.3-1.5,3.3-3.3c0-1.8-1.5-3.3-3.3-3.3c-1.8,0-3.3,1.5-3.3,3.3
			C97.4,167.3,98.9,168.8,100.7,168.8z"/>
		<path class="st1" d="M117.2,169.1c2,0,3.6-1.6,3.6-3.6s-1.6-3.6-3.6-3.6c-2,0-3.6,1.6-3.6,3.6S115.2,169.1,117.2,169.1z"/>
		
			<ellipse transform="matrix(0.9246 -0.3809 0.3809 0.9246 -52.9622 63.3826)" class="st1" cx="133.6" cy="165.5" rx="3.9" ry="3.9"/>
		
			<ellipse transform="matrix(0.9246 -0.3808 0.3808 0.9246 -51.714 69.6342)" class="st1" cx="150.1" cy="165.5" rx="4.1" ry="4.1"/>
		<path class="st1" d="M166.6,169.9c2.4,0,4.4-2,4.4-4.4c0-2.4-2-4.4-4.4-4.4c-2.4,0-4.4,2-4.4,4.4
			C162.2,167.9,164.1,169.9,166.6,169.9z"/>
		<ellipse transform="matrix(0.9247 -0.3807 0.3807 0.9247 -49.2179 82.1219)" class="st1" cx="183" cy="165.5" rx="4.7" ry="4.7"/>
		<path class="st1" d="M2,184c1.1,0,2-0.9,2-2c0-1.1-0.9-2-2-2c-1.1,0-2,0.9-2,2C0,183.1,0.9,184,2,184z"/>
		<path class="st1" d="M18.5,184c1.1,0,2-0.9,2-2c0-1.1-0.9-2-2-2c-1.1,0-2,0.9-2,2C16.5,183.1,17.4,184,18.5,184z"/>
		<path class="st1" d="M34.9,184.2c1.3,0,2.3-1,2.3-2.3c0-1.3-1-2.3-2.3-2.3c-1.3,0-2.3,1-2.3,2.3C32.6,183.2,33.7,184.2,34.9,184.2
			z"/>
		<path class="st1" d="M51.4,184.5c1.4,0,2.6-1.1,2.6-2.6s-1.1-2.6-2.6-2.6c-1.4,0-2.6,1.1-2.6,2.6S50,184.5,51.4,184.5z"/>
		<path class="st1" d="M67.8,184.7c1.5,0,2.8-1.2,2.8-2.8s-1.2-2.8-2.8-2.8c-1.5,0-2.8,1.2-2.8,2.8S66.3,184.7,67.8,184.7z"/>
		<path class="st1" d="M84.3,185c1.7,0,3.1-1.4,3.1-3.1s-1.4-3.1-3.1-3.1c-1.7,0-3.1,1.4-3.1,3.1S82.6,185,84.3,185z"/>
		<path class="st1" d="M100.7,185.3c1.8,0,3.3-1.5,3.3-3.3c0-1.8-1.5-3.3-3.3-3.3c-1.8,0-3.3,1.5-3.3,3.3
			C97.4,183.8,98.9,185.3,100.7,185.3z"/>
		<path class="st1" d="M117.2,185.6c2,0,3.6-1.6,3.6-3.6s-1.6-3.6-3.6-3.6c-2,0-3.6,1.6-3.6,3.6S115.2,185.6,117.2,185.6z"/>
		
			<ellipse transform="matrix(0.9246 -0.3809 0.3809 0.9246 -59.2299 64.6231)" class="st1" cx="133.6" cy="181.9" rx="3.9" ry="3.9"/>
		
			<ellipse transform="matrix(0.9246 -0.3808 0.3808 0.9246 -57.9806 70.8741)" class="st1" cx="150.1" cy="181.9" rx="4.1" ry="4.1"/>
		<path class="st1" d="M166.6,186.3c2.4,0,4.4-2,4.4-4.4c0-2.4-2-4.4-4.4-4.4c-2.4,0-4.4,2-4.4,4.4
			C162.2,184.4,164.1,186.3,166.6,186.3z"/>
		<ellipse transform="matrix(0.9247 -0.3807 0.3807 0.9247 -55.4814 83.3607)" class="st1" cx="183" cy="181.9" rx="4.7" ry="4.7"/>
		<path class="st1" d="M2,200.4c1.1,0,2-0.9,2-2c0-1.1-0.9-2-2-2c-1.1,0-2,0.9-2,2C0,199.5,0.9,200.4,2,200.4z"/>
		<path class="st1" d="M18.5,200.4c1.1,0,2-0.9,2-2c0-1.1-0.9-2-2-2c-1.1,0-2,0.9-2,2C16.5,199.5,17.4,200.4,18.5,200.4z"/>
		<path class="st1" d="M34.9,200.7c1.3,0,2.3-1,2.3-2.3c0-1.3-1-2.3-2.3-2.3c-1.3,0-2.3,1-2.3,2.3C32.6,199.7,33.7,200.7,34.9,200.7
			z"/>
		<path class="st1" d="M51.4,201c1.4,0,2.6-1.1,2.6-2.6s-1.1-2.6-2.6-2.6c-1.4,0-2.6,1.1-2.6,2.6S50,201,51.4,201z"/>
		<path class="st1" d="M67.8,201.2c1.5,0,2.8-1.2,2.8-2.8s-1.2-2.8-2.8-2.8c-1.5,0-2.8,1.2-2.8,2.8S66.3,201.2,67.8,201.2z"/>
		<path class="st1" d="M84.3,201.5c1.7,0,3.1-1.4,3.1-3.1s-1.4-3.1-3.1-3.1c-1.7,0-3.1,1.4-3.1,3.1S82.6,201.5,84.3,201.5z"/>
		<path class="st1" d="M100.7,201.7c1.8,0,3.3-1.5,3.3-3.3c0-1.8-1.5-3.3-3.3-3.3c-1.8,0-3.3,1.5-3.3,3.3
			C97.4,200.2,98.9,201.7,100.7,201.7z"/>
		<path class="st1" d="M117.2,202c2,0,3.6-1.6,3.6-3.6s-1.6-3.6-3.6-3.6c-2,0-3.6,1.6-3.6,3.6S115.2,202,117.2,202z"/>
		
			<ellipse transform="matrix(0.9246 -0.3809 0.3809 0.9246 -65.4977 65.8635)" class="st1" cx="133.6" cy="198.4" rx="3.9" ry="3.9"/>
		
			<ellipse transform="matrix(0.9246 -0.3808 0.3808 0.9246 -64.2471 72.1141)" class="st1" cx="150.1" cy="198.4" rx="4.1" ry="4.1"/>
		<path class="st1" d="M166.6,202.8c2.4,0,4.4-2,4.4-4.4c0-2.4-2-4.4-4.4-4.4c-2.4,0-4.4,2-4.4,4.4
			C162.2,200.8,164.1,202.8,166.6,202.8z"/>
		<ellipse transform="matrix(0.9247 -0.3807 0.3807 0.9247 -61.745 84.5994)" class="st1" cx="183" cy="198.4" rx="4.7" ry="4.7"/>
		<path class="st1" d="M2,216.9c1.1,0,2-0.9,2-2c0-1.1-0.9-2-2-2c-1.1,0-2,0.9-2,2C0,216,0.9,216.9,2,216.9z"/>
		<path class="st1" d="M18.5,216.9c1.1,0,2-0.9,2-2c0-1.1-0.9-2-2-2c-1.1,0-2,0.9-2,2C16.5,216,17.4,216.9,18.5,216.9z"/>
		<path class="st1" d="M34.9,217.1c1.3,0,2.3-1,2.3-2.3c0-1.3-1-2.3-2.3-2.3c-1.3,0-2.3,1-2.3,2.3C32.6,216.1,33.7,217.1,34.9,217.1
			z"/>
		<path class="st1" d="M51.4,217.4c1.4,0,2.6-1.1,2.6-2.6s-1.1-2.6-2.6-2.6c-1.4,0-2.6,1.1-2.6,2.6S50,217.4,51.4,217.4z"/>
		<path class="st1" d="M67.8,217.6c1.5,0,2.8-1.2,2.8-2.8s-1.2-2.8-2.8-2.8c-1.5,0-2.8,1.2-2.8,2.8S66.3,217.6,67.8,217.6z"/>
		<path class="st1" d="M84.3,217.9c1.7,0,3.1-1.4,3.1-3.1s-1.4-3.1-3.1-3.1c-1.7,0-3.1,1.4-3.1,3.1S82.6,217.9,84.3,217.9z"/>
		<path class="st1" d="M100.7,218.2c1.8,0,3.3-1.5,3.3-3.3c0-1.8-1.5-3.3-3.3-3.3c-1.8,0-3.3,1.5-3.3,3.3
			C97.4,216.7,98.9,218.2,100.7,218.2z"/>
		<path class="st1" d="M117.2,218.5c2,0,3.6-1.6,3.6-3.6s-1.6-3.6-3.6-3.6c-2,0-3.6,1.6-3.6,3.6S115.2,218.5,117.2,218.5z"/>
		
			<ellipse transform="matrix(0.9246 -0.3809 0.3809 0.9246 -71.7654 67.104)" class="st1" cx="133.6" cy="214.9" rx="3.9" ry="3.9"/>
		
			<ellipse transform="matrix(0.9246 -0.3808 0.3808 0.9246 -70.5136 73.3541)" class="st1" cx="150.1" cy="214.9" rx="4.1" ry="4.1"/>
		<path class="st1" d="M166.6,219.2c2.4,0,4.4-2,4.4-4.4c0-2.4-2-4.4-4.4-4.4c-2.4,0-4.4,2-4.4,4.4
			C162.2,217.3,164.1,219.2,166.6,219.2z"/>
		<ellipse transform="matrix(0.9247 -0.3807 0.3807 0.9247 -68.0085 85.8382)" class="st1" cx="183" cy="214.9" rx="4.7" ry="4.7"/>
	</g>
	<g class="st0">
		<path class="st1" d="M2,229.6c1.1,0,2-0.9,2-2c0-1.1-0.9-2-2-2c-1.1,0-2,0.9-2,2C0,228.7,0.9,229.6,2,229.6z"/>
		<path class="st1" d="M18.5,229.6c1.1,0,2-0.9,2-2c0-1.1-0.9-2-2-2c-1.1,0-2,0.9-2,2C16.5,228.7,17.4,229.6,18.5,229.6z"/>
		<path class="st1" d="M34.9,229.9c1.3,0,2.3-1,2.3-2.3c0-1.3-1-2.3-2.3-2.3c-1.3,0-2.3,1-2.3,2.3C32.6,228.9,33.7,229.9,34.9,229.9
			z"/>
		<path class="st1" d="M51.4,230.2c1.4,0,2.6-1.1,2.6-2.6c0-1.4-1.1-2.6-2.6-2.6c-1.4,0-2.6,1.1-2.6,2.6
			C48.8,229,50,230.2,51.4,230.2z"/>
		<path class="st1" d="M67.8,230.4c1.5,0,2.8-1.2,2.8-2.8c0-1.5-1.2-2.8-2.8-2.8c-1.5,0-2.8,1.2-2.8,2.8
			C65,229.1,66.3,230.4,67.8,230.4z"/>
		<path class="st1" d="M84.3,230.7c1.7,0,3.1-1.4,3.1-3.1c0-1.7-1.4-3.1-3.1-3.1c-1.7,0-3.1,1.4-3.1,3.1
			C81.2,229.3,82.6,230.7,84.3,230.7z"/>
		<path class="st1" d="M100.7,230.9c1.8,0,3.3-1.5,3.3-3.3c0-1.8-1.5-3.3-3.3-3.3c-1.8,0-3.3,1.5-3.3,3.3
			C97.4,229.4,98.9,230.9,100.7,230.9z"/>
		<path class="st1" d="M117.2,231.2c2,0,3.6-1.6,3.6-3.6c0-2-1.6-3.6-3.6-3.6c-2,0-3.6,1.6-3.6,3.6
			C113.6,229.6,115.2,231.2,117.2,231.2z"/>
		
			<ellipse transform="matrix(0.9246 -0.3809 0.3809 0.9246 -76.6203 68.0648)" class="st1" cx="133.6" cy="227.6" rx="3.9" ry="3.9"/>
		
			<ellipse transform="matrix(0.9246 -0.3808 0.3808 0.9246 -75.3676 74.3145)" class="st1" cx="150.1" cy="227.6" rx="4.1" ry="4.1"/>
		<path class="st1" d="M166.6,232c2.4,0,4.4-2,4.4-4.4c0-2.4-2-4.4-4.4-4.4c-2.4,0-4.4,2-4.4,4.4C162.2,230,164.1,232,166.6,232z"/>
		<ellipse transform="matrix(0.9247 -0.3807 0.3807 0.9247 -72.8602 86.7977)" class="st1" cx="183" cy="227.6" rx="4.7" ry="4.7"/>
		<path class="st1" d="M2,246.1c1.1,0,2-0.9,2-2c0-1.1-0.9-2-2-2c-1.1,0-2,0.9-2,2C0,245.2,0.9,246.1,2,246.1z"/>
		<path class="st1" d="M18.5,246.1c1.1,0,2-0.9,2-2c0-1.1-0.9-2-2-2c-1.1,0-2,0.9-2,2C16.5,245.2,17.4,246.1,18.5,246.1z"/>
		<path class="st1" d="M34.9,246.3c1.3,0,2.3-1,2.3-2.3c0-1.3-1-2.3-2.3-2.3c-1.3,0-2.3,1-2.3,2.3C32.6,245.3,33.7,246.3,34.9,246.3
			z"/>
		<path class="st1" d="M51.4,246.6c1.4,0,2.6-1.1,2.6-2.6c0-1.4-1.1-2.6-2.6-2.6c-1.4,0-2.6,1.1-2.6,2.6
			C48.8,245.5,50,246.6,51.4,246.6z"/>
		<path class="st1" d="M67.8,246.8c1.5,0,2.8-1.2,2.8-2.8c0-1.5-1.2-2.8-2.8-2.8c-1.5,0-2.8,1.2-2.8,2.8
			C65,245.6,66.3,246.8,67.8,246.8z"/>
		<path class="st1" d="M84.3,247.1c1.7,0,3.1-1.4,3.1-3.1S86,241,84.3,241c-1.7,0-3.1,1.4-3.1,3.1S82.6,247.1,84.3,247.1z"/>
		<path class="st1" d="M100.7,247.4c1.8,0,3.3-1.5,3.3-3.3c0-1.8-1.5-3.3-3.3-3.3c-1.8,0-3.3,1.5-3.3,3.3
			C97.4,245.9,98.9,247.4,100.7,247.4z"/>
		<path class="st1" d="M117.2,247.7c2,0,3.6-1.6,3.6-3.6s-1.6-3.6-3.6-3.6c-2,0-3.6,1.6-3.6,3.6S115.2,247.7,117.2,247.7z"/>
		
			<ellipse transform="matrix(0.9246 -0.3809 0.3809 0.9246 -82.888 69.3053)" class="st1" cx="133.6" cy="244.1" rx="3.9" ry="3.9"/>
		
			<ellipse transform="matrix(0.9246 -0.3808 0.3808 0.9246 -81.6341 75.5545)" class="st1" cx="150.1" cy="244.1" rx="4.1" ry="4.1"/>
		<path class="st1" d="M166.6,248.4c2.4,0,4.4-2,4.4-4.4c0-2.4-2-4.4-4.4-4.4c-2.4,0-4.4,2-4.4,4.4
			C162.2,246.5,164.1,248.4,166.6,248.4z"/>
		<ellipse transform="matrix(0.9247 -0.3807 0.3807 0.9247 -79.1237 88.0364)" class="st1" cx="183" cy="244.1" rx="4.7" ry="4.7"/>
		<path class="st1" d="M2,262.5c1.1,0,2-0.9,2-2s-0.9-2-2-2c-1.1,0-2,0.9-2,2S0.9,262.5,2,262.5z"/>
		<path class="st1" d="M18.5,262.5c1.1,0,2-0.9,2-2s-0.9-2-2-2c-1.1,0-2,0.9-2,2S17.4,262.5,18.5,262.5z"/>
		<path class="st1" d="M34.9,262.8c1.3,0,2.3-1,2.3-2.3s-1-2.3-2.3-2.3c-1.3,0-2.3,1-2.3,2.3S33.7,262.8,34.9,262.8z"/>
		<path class="st1" d="M51.4,263.1c1.4,0,2.6-1.1,2.6-2.6s-1.1-2.6-2.6-2.6c-1.4,0-2.6,1.1-2.6,2.6S50,263.1,51.4,263.1z"/>
		<path class="st1" d="M67.8,263.3c1.5,0,2.8-1.2,2.8-2.8c0-1.5-1.2-2.8-2.8-2.8c-1.5,0-2.8,1.2-2.8,2.8
			C65,262,66.3,263.3,67.8,263.3z"/>
		<path class="st1" d="M84.3,263.6c1.7,0,3.1-1.4,3.1-3.1s-1.4-3.1-3.1-3.1c-1.7,0-3.1,1.4-3.1,3.1S82.6,263.6,84.3,263.6z"/>
		<path class="st1" d="M100.7,263.8c1.8,0,3.3-1.5,3.3-3.3s-1.5-3.3-3.3-3.3c-1.8,0-3.3,1.5-3.3,3.3S98.9,263.8,100.7,263.8z"/>
		<path class="st1" d="M117.2,264.1c2,0,3.6-1.6,3.6-3.6c0-2-1.6-3.6-3.6-3.6c-2,0-3.6,1.6-3.6,3.6
			C113.6,262.5,115.2,264.1,117.2,264.1z"/>
		
			<ellipse transform="matrix(0.9246 -0.3809 0.3809 0.9246 -89.1558 70.5458)" class="st1" cx="133.6" cy="260.5" rx="3.9" ry="3.9"/>
		
			<ellipse transform="matrix(0.9246 -0.3808 0.3808 0.9246 -87.9006 76.7945)" class="st1" cx="150.1" cy="260.5" rx="4.1" ry="4.1"/>
		<path class="st1" d="M166.6,264.9c2.4,0,4.4-2,4.4-4.4s-2-4.4-4.4-4.4c-2.4,0-4.4,2-4.4,4.4S164.1,264.9,166.6,264.9z"/>
		<ellipse transform="matrix(0.9247 -0.3807 0.3807 0.9247 -85.3873 89.2752)" class="st1" cx="183" cy="260.5" rx="4.7" ry="4.7"/>
		<path class="st1" d="M2,279c1.1,0,2-0.9,2-2c0-1.1-0.9-2-2-2c-1.1,0-2,0.9-2,2C0,278.1,0.9,279,2,279z"/>
		<path class="st1" d="M18.5,279c1.1,0,2-0.9,2-2c0-1.1-0.9-2-2-2c-1.1,0-2,0.9-2,2C16.5,278.1,17.4,279,18.5,279z"/>
		<path class="st1" d="M34.9,279.2c1.3,0,2.3-1,2.3-2.3c0-1.3-1-2.3-2.3-2.3c-1.3,0-2.3,1-2.3,2.3C32.6,278.2,33.7,279.2,34.9,279.2
			z"/>
		<path class="st1" d="M51.4,279.5c1.4,0,2.6-1.1,2.6-2.6s-1.1-2.6-2.6-2.6c-1.4,0-2.6,1.1-2.6,2.6S50,279.5,51.4,279.5z"/>
		<path class="st1" d="M67.8,279.8c1.5,0,2.8-1.2,2.8-2.8c0-1.5-1.2-2.8-2.8-2.8c-1.5,0-2.8,1.2-2.8,2.8
			C65,278.5,66.3,279.8,67.8,279.8z"/>
		<path class="st1" d="M84.3,280c1.7,0,3.1-1.4,3.1-3.1s-1.4-3.1-3.1-3.1c-1.7,0-3.1,1.4-3.1,3.1S82.6,280,84.3,280z"/>
		<path class="st1" d="M100.7,280.3c1.8,0,3.3-1.5,3.3-3.3c0-1.8-1.5-3.3-3.3-3.3c-1.8,0-3.3,1.5-3.3,3.3
			C97.4,278.8,98.9,280.3,100.7,280.3z"/>
		<path class="st1" d="M117.2,280.6c2,0,3.6-1.6,3.6-3.6c0-2-1.6-3.6-3.6-3.6c-2,0-3.6,1.6-3.6,3.6
			C113.6,279,115.2,280.6,117.2,280.6z"/>
		<ellipse transform="matrix(0.9246 -0.3809 0.3809 0.9246 -95.4235 71.7862)" class="st1" cx="133.6" cy="277" rx="3.9" ry="3.9"/>
		<ellipse transform="matrix(0.9246 -0.3808 0.3808 0.9246 -94.1671 78.0344)" class="st1" cx="150.1" cy="277" rx="4.1" ry="4.1"/>
		<path class="st1" d="M166.6,281.3c2.4,0,4.4-2,4.4-4.4c0-2.4-2-4.4-4.4-4.4c-2.4,0-4.4,2-4.4,4.4
			C162.2,279.4,164.1,281.3,166.6,281.3z"/>
		<ellipse transform="matrix(0.9247 -0.3807 0.3807 0.9247 -91.6508 90.5139)" class="st1" cx="183" cy="277" rx="4.7" ry="4.7"/>
		<path class="st1" d="M2,295.4c1.1,0,2-0.9,2-2s-0.9-2-2-2c-1.1,0-2,0.9-2,2S0.9,295.4,2,295.4z"/>
		<path class="st1" d="M18.5,295.4c1.1,0,2-0.9,2-2s-0.9-2-2-2c-1.1,0-2,0.9-2,2S17.4,295.4,18.5,295.4z"/>
		<path class="st1" d="M34.9,295.7c1.3,0,2.3-1,2.3-2.3s-1-2.3-2.3-2.3c-1.3,0-2.3,1-2.3,2.3S33.7,295.7,34.9,295.7z"/>
		<path class="st1" d="M51.4,296c1.4,0,2.6-1.1,2.6-2.6s-1.1-2.6-2.6-2.6c-1.4,0-2.6,1.1-2.6,2.6S50,296,51.4,296z"/>
		<path class="st1" d="M67.8,296.2c1.5,0,2.8-1.2,2.8-2.8s-1.2-2.8-2.8-2.8c-1.5,0-2.8,1.2-2.8,2.8S66.3,296.2,67.8,296.2z"/>
		<path class="st1" d="M84.3,296.5c1.7,0,3.1-1.4,3.1-3.1s-1.4-3.1-3.1-3.1c-1.7,0-3.1,1.4-3.1,3.1S82.6,296.5,84.3,296.5z"/>
		<path class="st1" d="M100.7,296.8c1.8,0,3.3-1.5,3.3-3.3s-1.5-3.3-3.3-3.3c-1.8,0-3.3,1.5-3.3,3.3S98.9,296.8,100.7,296.8z"/>
		<path class="st1" d="M117.2,297c2,0,3.6-1.6,3.6-3.6c0-2-1.6-3.6-3.6-3.6c-2,0-3.6,1.6-3.6,3.6C113.6,295.4,115.2,297,117.2,297z"
			/>
		
			<ellipse transform="matrix(0.9246 -0.3809 0.3809 0.9246 -101.6913 73.0267)" class="st1" cx="133.6" cy="293.4" rx="3.9" ry="3.9"/>
		
			<ellipse transform="matrix(0.9246 -0.3808 0.3808 0.9246 -100.4337 79.2744)" class="st1" cx="150.1" cy="293.4" rx="4.1" ry="4.1"/>
		<path class="st1" d="M166.6,297.8c2.4,0,4.4-2,4.4-4.4s-2-4.4-4.4-4.4c-2.4,0-4.4,2-4.4,4.4S164.1,297.8,166.6,297.8z"/>
		<ellipse transform="matrix(0.9247 -0.3807 0.3807 0.9247 -97.9144 91.7527)" class="st1" cx="183" cy="293.4" rx="4.7" ry="4.7"/>
		<path class="st1" d="M2,311.9c1.1,0,2-0.9,2-2c0-1.1-0.9-2-2-2c-1.1,0-2,0.9-2,2C0,311,0.9,311.9,2,311.9z"/>
		<path class="st1" d="M18.5,311.9c1.1,0,2-0.9,2-2c0-1.1-0.9-2-2-2c-1.1,0-2,0.9-2,2C16.5,311,17.4,311.9,18.5,311.9z"/>
		<path class="st1" d="M34.9,312.2c1.3,0,2.3-1,2.3-2.3c0-1.3-1-2.3-2.3-2.3c-1.3,0-2.3,1-2.3,2.3C32.6,311.1,33.7,312.2,34.9,312.2
			z"/>
		<path class="st1" d="M51.4,312.4c1.4,0,2.6-1.1,2.6-2.6s-1.1-2.6-2.6-2.6c-1.4,0-2.6,1.1-2.6,2.6S50,312.4,51.4,312.4z"/>
		<path class="st1" d="M67.8,312.7c1.5,0,2.8-1.2,2.8-2.8c0-1.5-1.2-2.8-2.8-2.8c-1.5,0-2.8,1.2-2.8,2.8
			C65,311.4,66.3,312.7,67.8,312.7z"/>
		<path class="st1" d="M84.3,312.9c1.7,0,3.1-1.4,3.1-3.1s-1.4-3.1-3.1-3.1c-1.7,0-3.1,1.4-3.1,3.1S82.6,312.9,84.3,312.9z"/>
		<path class="st1" d="M100.7,313.2c1.8,0,3.3-1.5,3.3-3.3c0-1.8-1.5-3.3-3.3-3.3c-1.8,0-3.3,1.5-3.3,3.3
			C97.4,311.7,98.9,313.2,100.7,313.2z"/>
		<path class="st1" d="M117.2,313.5c2,0,3.6-1.6,3.6-3.6c0-2-1.6-3.6-3.6-3.6c-2,0-3.6,1.6-3.6,3.6
			C113.6,311.9,115.2,313.5,117.2,313.5z"/>
		
			<ellipse transform="matrix(0.9246 -0.3809 0.3809 0.9246 -107.959 74.2672)" class="st1" cx="133.6" cy="309.9" rx="3.9" ry="3.9"/>
		
			<ellipse transform="matrix(0.9246 -0.3808 0.3808 0.9246 -106.7002 80.5144)" class="st1" cx="150.1" cy="309.9" rx="4.1" ry="4.1"/>
		<path class="st1" d="M166.6,314.3c2.4,0,4.4-2,4.4-4.4c0-2.4-2-4.4-4.4-4.4c-2.4,0-4.4,2-4.4,4.4
			C162.2,312.3,164.1,314.3,166.6,314.3z"/>
		
			<ellipse transform="matrix(0.9247 -0.3807 0.3807 0.9247 -104.1779 92.9914)" class="st1" cx="183" cy="309.9" rx="4.7" ry="4.7"/>
		<path class="st1" d="M2,328.3c1.1,0,2-0.9,2-2s-0.9-2-2-2c-1.1,0-2,0.9-2,2S0.9,328.3,2,328.3z"/>
		<path class="st1" d="M18.5,328.3c1.1,0,2-0.9,2-2s-0.9-2-2-2c-1.1,0-2,0.9-2,2S17.4,328.3,18.5,328.3z"/>
		<path class="st1" d="M34.9,328.6c1.3,0,2.3-1,2.3-2.3s-1-2.3-2.3-2.3c-1.3,0-2.3,1-2.3,2.3S33.7,328.6,34.9,328.6z"/>
		<path class="st1" d="M51.4,328.9c1.4,0,2.6-1.1,2.6-2.6s-1.1-2.6-2.6-2.6c-1.4,0-2.6,1.1-2.6,2.6S50,328.9,51.4,328.9z"/>
		<path class="st1" d="M67.8,329.1c1.5,0,2.8-1.2,2.8-2.8s-1.2-2.8-2.8-2.8c-1.5,0-2.8,1.2-2.8,2.8S66.3,329.1,67.8,329.1z"/>
		<path class="st1" d="M84.3,329.4c1.7,0,3.1-1.4,3.1-3.1s-1.4-3.1-3.1-3.1c-1.7,0-3.1,1.4-3.1,3.1S82.6,329.4,84.3,329.4z"/>
		<path class="st1" d="M100.7,329.7c1.8,0,3.3-1.5,3.3-3.3s-1.5-3.3-3.3-3.3c-1.8,0-3.3,1.5-3.3,3.3S98.9,329.7,100.7,329.7z"/>
		<path class="st1" d="M117.2,329.9c2,0,3.6-1.6,3.6-3.6c0-2-1.6-3.6-3.6-3.6c-2,0-3.6,1.6-3.6,3.6
			C113.6,328.3,115.2,329.9,117.2,329.9z"/>
		
			<ellipse transform="matrix(0.9246 -0.3809 0.3809 0.9246 -114.2267 75.5077)" class="st1" cx="133.6" cy="326.3" rx="3.9" ry="3.9"/>
		
			<ellipse transform="matrix(0.9246 -0.3808 0.3808 0.9246 -112.9667 81.7544)" class="st1" cx="150.1" cy="326.3" rx="4.1" ry="4.1"/>
		<path class="st1" d="M166.6,330.7c2.4,0,4.4-2,4.4-4.4s-2-4.4-4.4-4.4c-2.4,0-4.4,2-4.4,4.4S164.1,330.7,166.6,330.7z"/>
		
			<ellipse transform="matrix(0.9247 -0.3807 0.3807 0.9247 -110.4415 94.2302)" class="st1" cx="183" cy="326.3" rx="4.7" ry="4.7"/>
	</g>
</g>
</svg>
