<?xml version="1.0" encoding="utf-8"?>
<!-- Generator: Adobe Illustrator 23.0.6, SVG Export Plug-In . SVG Version: 6.00 Build 0)  -->
<svg version="1.1" id="Layer_1" xmlns="http://www.w3.org/2000/svg" xmlns:xlink="http://www.w3.org/1999/xlink" x="0px" y="0px"
	 viewBox="0 0 410.1 410" style="enable-background:new 0 0 410.1 410;" xml:space="preserve">
<style type="text/css">
	.st0{fill:#FFDA44;}
	.st1{fill:#D80027;}
</style>
<g>
	<path class="st0" d="M12.8,276.3C41.7,354.4,116.9,410,205,410s163.3-55.6,192.2-133.7L205,258.5L12.8,276.3z"/>
	<path d="M205,0C116.9,0,41.7,55.6,12.8,133.7L205,151.5l192.2-17.8C368.3,55.6,293.1,0,205,0z"/>
	<path class="st1" d="M12.8,133.7C4.5,155.9,0,179.9,0,205s4.5,49.1,12.8,71.3h384.5c8.2-22.2,12.8-46.2,12.8-71.3
		s-4.5-49.1-12.8-71.3L12.8,133.7L12.8,133.7z"/>
</g>
</svg>
