<?xml version="1.0" encoding="utf-8"?>
<!-- Generator: Adobe Illustrator 23.0.6, SVG Export Plug-In . SVG Version: 6.00 Build 0)  -->
<svg version="1.1" id="Layer_1" xmlns="http://www.w3.org/2000/svg" xmlns:xlink="http://www.w3.org/1999/xlink" x="0px" y="0px"
	 viewBox="0 0 72.3 28" style="enable-background:new 0 0 72.3 28;" xml:space="preserve">
<style type="text/css">
	.st0{fill:#2BB1EB;}
	.st1{fill:url(#SVGID_1_);}
	.st2{fill:url(#SVGID_2_);}
	.st3{fill:url(#SVGID_3_);}
	.st4{fill:url(#SVGID_4_);}
	.st5{fill:url(#SVGID_5_);}
	.st6{fill:url(#SVGID_6_);}
	.st7{fill:url(#SVGID_7_);}
	.st8{fill:url(#SVGID_8_);}
	.st9{fill:url(#SVGID_9_);}
	.st10{fill:url(#SVGID_10_);}
	.st11{fill:url(#SVGID_11_);}
	.st12{fill:url(#SVGID_12_);}
	.st13{fill:url(#SVGID_13_);}
	.st14{fill:url(#SVGID_14_);}
	.st15{fill:url(#SVGID_15_);}
	.st16{fill:url(#SVGID_16_);}
	.st17{fill:url(#SVGID_17_);}
	.st18{fill:url(#SVGID_18_);}
	.st19{fill:url(#SVGID_19_);}
	.st20{fill:url(#SVGID_20_);}
	.st21{fill:url(#SVGID_21_);}
	.st22{fill:url(#SVGID_22_);}
	.st23{fill:url(#SVGID_23_);}
	.st24{fill:url(#SVGID_24_);}
	.st25{fill:url(#SVGID_25_);}
	.st26{fill:url(#SVGID_26_);}
	.st27{fill:url(#SVGID_27_);}
	.st28{fill:url(#SVGID_28_);}
</style>
<g>
	<polygon points="62.8,14.9 64.9,2.4 45.2,3.5 44.2,0 41.9,3.6 8.4,5.4 10.1,8.5 8.5,17.7 0,18.2 1.2,20.6 0.3,26.3 10.4,25.8 
		11.6,28 13.4,25.6 71,22.6 72.3,14.4 	"/>
	<g>
		<polygon class="st0" points="16.8,6.5 16.1,10.3 13.5,10.4 14.2,6.6 10.7,6.8 11.5,8.2 10.1,16.9 12.5,16.8 13.1,12.9 15.7,12.8 
			15.1,16.6 17.5,16.5 19.2,6.3 		"/>
		<polygon class="st0" points="22.6,8.7 27.6,8.4 28,5.9 19.6,6.3 20.3,7.8 18.9,16.4 26.3,16 26.7,13.5 21.7,13.8 21.9,12.5 
			26.9,12.2 27.4,9.7 22.4,10 		"/>
		<path class="st0" d="M36.8,5.4l-8.4,0.5l0.8,1.5L27.7,16l2.4-0.1l0.6-3.5l1.2-0.1l0.8,3.5l2.4-0.1l-0.7-3.5l1.3-0.1L36.8,5.4z
			 M33.7,9.6l-2.6,0.1l0.3-1.6L34,8.1L33.7,9.6z"/>
		<path class="st0" d="M44.6,5l-0.7,0l0-2.5l-1,2.6l-1.6,4.3L44,9.2l-4.4,6.1l3.6-0.2c0.5,0,0.9-0.4,1-0.9l1.5-7.9
			C45.8,5.6,45.2,4.9,44.6,5z"/>
		<polygon class="st0" points="49,7.2 54,7 54.4,4.4 46,4.9 46.8,6.4 45.3,15 52.7,14.6 53.1,12.1 48.2,12.4 48.4,11.1 53.4,10.8 
			53.8,8.3 48.8,8.5 		"/>
		<polygon class="st0" points="62.8,6.5 63.2,4 54.8,4.4 55.6,5.9 54.8,10.7 59.8,10.4 59.5,11.8 54.6,12 54.1,14.5 61.5,14.1 
			62.6,7.8 57.6,8.1 57.8,6.8 		"/>
		<path class="st0" d="M38.4,11.4l1.9-6.2l-1.7,0.1c-0.5,0-0.9,0.4-1,0.9l-1.5,7.9c-0.1,0.7,0.4,1.4,1.1,1.4l0.7,0l0,1.5l2.5-5.6
			L38.4,11.4z"/>
	</g>
	
		<linearGradient id="SVGID_1_" gradientUnits="userSpaceOnUse" x1="47.3282" y1="26.8881" x2="47.3282" y2="30.1168" gradientTransform="matrix(0.9986 -5.201129e-02 5.556756e-02 1.0669 -34.6276 -14.2789)">
		<stop  offset="0" style="stop-color:#005ABB"/>
		<stop  offset="1" style="stop-color:#29AAE1"/>
	</linearGradient>
	<polygon class="st1" points="10.5,16.5 12.2,16.4 12.8,12.6 16.1,12.4 15.5,16.2 17.2,16.2 18,11.4 11.3,11.7 	"/>
	
		<linearGradient id="SVGID_2_" gradientUnits="userSpaceOnUse" x1="56.1564" y1="26.8748" x2="56.1564" y2="30.1035" gradientTransform="matrix(0.9986 -5.201129e-02 5.556756e-02 1.0669 -34.6276 -14.2789)">
		<stop  offset="0" style="stop-color:#005ABB"/>
		<stop  offset="1" style="stop-color:#29AAE1"/>
	</linearGradient>
	<polygon class="st2" points="19.3,16 26,15.7 26.3,13.9 21.3,14.2 21.6,12.1 26.6,11.9 26.8,10.9 20.1,11.3 	"/>
	
		<linearGradient id="SVGID_3_" gradientUnits="userSpaceOnUse" x1="64.9819" y1="26.8615" x2="64.9819" y2="30.0902" gradientTransform="matrix(0.9986 -5.201129e-02 5.556756e-02 1.0669 -34.6276 -14.2789)">
		<stop  offset="0" style="stop-color:#005ABB"/>
		<stop  offset="1" style="stop-color:#29AAE1"/>
	</linearGradient>
	<polygon class="st3" points="28.1,15.6 29.8,15.5 30.4,11.9 32.2,11.9 32.9,15.3 34.7,15.2 33.9,11.8 35.4,11.7 35.6,10.4 
		28.9,10.8 	"/>
	
		<linearGradient id="SVGID_4_" gradientUnits="userSpaceOnUse" x1="75.5968" y1="26.8475" x2="75.5968" y2="30.0727" gradientTransform="matrix(0.9986 -5.201129e-02 5.556756e-02 1.0669 -34.6276 -14.2789)">
		<stop  offset="0" style="stop-color:#005ABB"/>
		<stop  offset="1" style="stop-color:#29AAE1"/>
	</linearGradient>
	<path class="st4" d="M40.3,14.9l2.8-0.2c0.3,0,0.6-0.3,0.6-0.6l0.8-4.2l-0.7,0L40.3,14.9z"/>
	
		<linearGradient id="SVGID_5_" gradientUnits="userSpaceOnUse" x1="82.6301" y1="26.8349" x2="82.6301" y2="30.0636" gradientTransform="matrix(0.9986 -5.201129e-02 5.556756e-02 1.0669 -34.6276 -14.2789)">
		<stop  offset="0" style="stop-color:#005ABB"/>
		<stop  offset="1" style="stop-color:#29AAE1"/>
	</linearGradient>
	<polygon class="st5" points="45.7,14.6 52.4,14.3 52.7,12.5 47.7,12.8 48.1,10.7 53.1,10.4 53.2,9.5 46.5,9.8 	"/>
	
		<linearGradient id="SVGID_6_" gradientUnits="userSpaceOnUse" x1="91.4549" y1="26.8216" x2="91.4549" y2="30.0503" gradientTransform="matrix(0.9986 -5.201129e-02 5.556756e-02 1.0669 -34.6276 -14.2789)">
		<stop  offset="3.297702e-03" style="stop-color:#005ABB"/>
		<stop  offset="1" style="stop-color:#29AAE1"/>
	</linearGradient>
	<polygon class="st6" points="55.3,9.4 55.2,10.3 60.2,10.1 59.8,12.1 54.9,12.4 54.6,14.1 61.2,13.8 62,9 	"/>
	<linearGradient id="SVGID_7_" gradientUnits="userSpaceOnUse" x1="38.1482" y1="10.6047" x2="38.1482" y2="13.6182">
		<stop  offset="0" style="stop-color:#005ABB"/>
		<stop  offset="1" style="stop-color:#29AAE1"/>
	</linearGradient>
	<path class="st7" d="M37.9,11.7l0.4-1.4l-1.2,0.1l-0.7,3.8c0,0.2,0,0.5,0.2,0.7c0.1,0.2,0.3,0.3,0.5,0.3l1.2-0.1l1.5-3.3L37.9,11.7
		z"/>
	<g>
		<path class="st0" d="M2.1,24.7l0.6-4.3l-0.4-0.7l3.9-0.2l-0.5,3.6l-1.3,1.6L2.1,24.7z M5,20.7l-1.2,0.1l-0.4,2.6l0.6,0l0.7-1
			L5,20.7z"/>
		<path class="st0" d="M7.9,20.6l-0.1,0.6l2.3-0.1l-0.2,1.3l-2.3,0.1l-0.1,0.7L9.8,23l-0.2,1.3l-3.4,0.2l0.6-4.3l-0.4-0.7l3.9-0.2
			l-0.2,1.3L7.9,20.6z"/>
		<path class="st0" d="M13.9,22.5l-2.1,2.7l-1.3-2.5l0.4-2.8l-0.4-0.7l1.6-0.1L11.7,22l0.5,0.9l0.7-1l0.4-2.9l1.1-0.1L13.9,22.5z"/>
		<path class="st0" d="M16,20.1l-0.1,0.6l2.3-0.1l-0.2,1.3L15.8,22l-0.1,0.7l2.3-0.1l-0.2,1.3L14.4,24l0.6-4.3l-0.4-0.7l3.9-0.2
			L18.4,20L16,20.1z"/>
		<path class="st0" d="M20.3,18.6l-0.6,3.8l2.1-0.1l-0.2,1.3l-3.3,0.2l0.6-4.3l-0.4-0.7L20.3,18.6z"/>
		<path class="st0" d="M22.5,18.5l3.9-0.2l-0.8,5.1l-3.4,0.2l0.6-4.3L22.5,18.5z M23.5,22.3l1.2-0.1l0.4-2.6l-1.2,0.1L23.5,22.3z"/>
		<path class="st0" d="M30.5,18.1L30,21.6l-2.3,0.1l-0.2,1.6l-1.1,0.1l0.6-4.3l-0.4-0.7L30.5,18.1z M28,19.5l-0.1,0.9l1.2-0.1
			l0.1-0.9L28,19.5z"/>
		<path class="st0" d="M31,18.8l-0.4-0.7l5.3-0.3l-0.8,5.1L34.1,23l0.6-3.8l-0.7,0L33.4,23l-1.1,0.1l0.6-3.8l-0.7,0l-0.6,3.8
			l-1.1,0.1L31,18.8z"/>
		<path class="st0" d="M37.6,19l-0.1,0.6l2.3-0.1l-0.2,1.3l-2.3,0.1l-0.1,0.7l2.3-0.1l-0.2,1.3l-3.4,0.2l0.6-4.3l-0.4-0.7l3.9-0.2
			l-0.2,1.3L37.6,19z"/>
		<path class="st0" d="M40.6,18.3l-0.4-0.7l1.6-0.1l0.9,2.2l0.3-2.3l1.1-0.1l-0.8,5.1l-1.1,0.1l-0.9-2.2l-0.3,2.3L40,22.7L40.6,18.3
			z"/>
		<path class="st0" d="M44.9,18.6l-0.6-1.2l3.7-0.2l-0.2,1.3l-1.1,0.1l-0.6,3.8l-1.1,0.1l0.6-3.8L44.9,18.6z"/>
		<path class="st0" d="M54.9,21.8L51.2,22l0.7-4.3l-0.4-0.7l4.2-0.2L55.5,18L53,18.1l-0.4,2.6l1.3-0.1L54,20l-0.6,0l0.2-1.3l1.8-0.1
			L54.9,21.8z"/>
		<path class="st0" d="M56.3,17.4l-0.4-0.7l5.8-0.3l-0.8,5.1l-1.2,0.1l0.6-3.8l-0.8,0l-0.6,3.8l-1.2,0.1l0.6-3.8l-0.8,0l-0.6,3.8
			l-1.2,0.1L56.3,17.4z"/>
		<path class="st0" d="M61.5,21.5l0.7-4.3l-0.4-0.7l4.2-0.2l-0.3,1.7L65,18.8l0.6,0l-0.4,2.5L61.5,21.5z M63.1,19.5L63,20.2l1.3-0.1
			l0.1-0.7L63.1,19.5z M63.3,18.2l0.6,0l0.6-0.7l-1.1,0.1L63.3,18.2z"/>
		<path class="st0" d="M66.7,16.9l-0.4-0.7l1.7-0.1L67.7,18L69,18l0.3-1.9l1.2-0.1l-0.8,5.1l-1.2,0.1l0.3-1.9l-1.3,0.1l-0.3,1.9
			L66,21.3L66.7,16.9z"/>
	</g>
	<g>
		<linearGradient id="SVGID_8_" gradientUnits="userSpaceOnUse" x1="42.7208" y1="19.8916" x2="42.9051" y2="22.5644">
			<stop  offset="0" style="stop-color:#005ABB"/>
			<stop  offset="1" style="stop-color:#29AAE1"/>
		</linearGradient>
		<polygon class="st8" points="42.8,19.9 42.6,19.9 42.8,20.3 		"/>
		<linearGradient id="SVGID_9_" gradientUnits="userSpaceOnUse" x1="3.9581" y1="22.6493" x2="4.1423" y2="25.3201">
			<stop  offset="0" style="stop-color:#005ABB"/>
			<stop  offset="1" style="stop-color:#29AAE1"/>
		</linearGradient>
		<polygon class="st9" points="4.9,22.4 4.1,23.5 3.2,23.5 3.4,22 2.6,22.1 2.3,24.5 4.4,24.4 5.6,22.9 5.7,21.9 4.9,22 		"/>
		<linearGradient id="SVGID_10_" gradientUnits="userSpaceOnUse" x1="8.0453" y1="22.3583" x2="8.2294" y2="25.0269">
			<stop  offset="0" style="stop-color:#005ABB"/>
			<stop  offset="1" style="stop-color:#29AAE1"/>
		</linearGradient>
		<polygon class="st10" points="6.4,24.3 9.5,24.1 9.6,23.2 7.3,23.3 7.4,22.3 9.7,22.2 9.8,21.7 6.7,21.9 		"/>
		<linearGradient id="SVGID_11_" gradientUnits="userSpaceOnUse" x1="12.2862" y1="22.0581" x2="12.4705" y2="24.7314">
			<stop  offset="0" style="stop-color:#005ABB"/>
			<stop  offset="1" style="stop-color:#29AAE1"/>
		</linearGradient>
		<polygon class="st11" points="13.1,22 12.1,23.2 11.5,22 11.6,21.6 10.8,21.6 10.7,22.7 11.9,24.9 13.8,22.4 13.9,21.5 13.1,21.5 
					"/>
		<linearGradient id="SVGID_12_" gradientUnits="userSpaceOnUse" x1="16.2207" y1="21.7773" x2="16.4048" y2="24.4459">
			<stop  offset="0" style="stop-color:#005ABB"/>
			<stop  offset="1" style="stop-color:#29AAE1"/>
		</linearGradient>
		<polygon class="st12" points="14.5,23.8 17.6,23.7 17.8,22.8 15.5,22.9 15.6,21.9 17.9,21.8 18,21.3 14.9,21.4 		"/>
		<linearGradient id="SVGID_13_" gradientUnits="userSpaceOnUse" x1="20.0569" y1="21.5042" x2="20.241" y2="24.1732">
			<stop  offset="0" style="stop-color:#005ABB"/>
			<stop  offset="1" style="stop-color:#29AAE1"/>
		</linearGradient>
		<polygon class="st13" points="18.6,23.6 21.6,23.5 21.7,22.5 19.6,22.7 19.8,21.2 19,21.2 		"/>
		<linearGradient id="SVGID_14_" gradientUnits="userSpaceOnUse" x1="24.0714" y1="21.2194" x2="24.2554" y2="23.888">
			<stop  offset="0" style="stop-color:#005ABB"/>
			<stop  offset="1" style="stop-color:#29AAE1"/>
		</linearGradient>
		<polygon class="st14" points="24.9,22.4 23.3,22.5 23.6,21 22.8,21 22.4,23.4 25.5,23.3 25.9,20.8 25.1,20.9 		"/>
		<linearGradient id="SVGID_15_" gradientUnits="userSpaceOnUse" x1="28.1583" y1="20.9294" x2="28.3427" y2="23.6034">
			<stop  offset="0" style="stop-color:#005ABB"/>
			<stop  offset="1" style="stop-color:#29AAE1"/>
		</linearGradient>
		<polygon class="st15" points="26.5,23.2 27.3,23.2 27.5,21.5 29.8,21.4 30,20.6 26.9,20.8 		"/>
		<linearGradient id="SVGID_16_" gradientUnits="userSpaceOnUse" x1="31.0842" y1="20.7189" x2="31.2686" y2="23.3929">
			<stop  offset="0" style="stop-color:#005ABB"/>
			<stop  offset="1" style="stop-color:#29AAE1"/>
		</linearGradient>
		<polygon class="st16" points="30.6,23 31.4,23 31.7,20.5 30.9,20.6 		"/>
		<linearGradient id="SVGID_17_" gradientUnits="userSpaceOnUse" x1="32.9365" y1="20.5872" x2="33.1209" y2="23.2612">
			<stop  offset="0" style="stop-color:#005ABB"/>
			<stop  offset="1" style="stop-color:#29AAE1"/>
		</linearGradient>
		<polygon class="st17" points="32.4,22.9 33.2,22.9 33.6,20.4 32.8,20.5 		"/>
		<linearGradient id="SVGID_18_" gradientUnits="userSpaceOnUse" x1="34.7904" y1="20.4554" x2="34.9748" y2="23.1294">
			<stop  offset="0" style="stop-color:#005ABB"/>
			<stop  offset="1" style="stop-color:#29AAE1"/>
		</linearGradient>
		<polygon class="st18" points="34.3,22.8 35.1,22.8 35.4,20.3 34.7,20.4 		"/>
		<linearGradient id="SVGID_19_" gradientUnits="userSpaceOnUse" x1="37.7211" y1="20.2494" x2="37.9051" y2="22.918">
			<stop  offset="0" style="stop-color:#005ABB"/>
			<stop  offset="1" style="stop-color:#29AAE1"/>
		</linearGradient>
		<polygon class="st19" points="36.1,22.7 39.2,22.5 39.3,21.6 37,21.7 37.1,20.7 39.5,20.6 39.5,20.1 36.4,20.3 		"/>
		<linearGradient id="SVGID_20_" gradientUnits="userSpaceOnUse" x1="42.5497" y1="19.9058" x2="42.7339" y2="22.5766">
			<stop  offset="0" style="stop-color:#005ABB"/>
			<stop  offset="1" style="stop-color:#29AAE1"/>
		</linearGradient>
		<polygon class="st20" points="42.8,20.3 42.6,19.9 41.5,20 42.4,22.4 43.3,22.3 43.6,19.9 42.8,19.9 		"/>
		<linearGradient id="SVGID_21_" gradientUnits="userSpaceOnUse" x1="40.6524" y1="20.0386" x2="40.8368" y2="22.7126">
			<stop  offset="0" style="stop-color:#005ABB"/>
			<stop  offset="1" style="stop-color:#29AAE1"/>
		</linearGradient>
		<polygon class="st21" points="40.2,22.5 41,22.5 41.3,20 40.5,20.1 		"/>
		<linearGradient id="SVGID_22_" gradientUnits="userSpaceOnUse" x1="45.778" y1="19.6742" x2="45.9624" y2="22.3482">
			<stop  offset="0" style="stop-color:#005ABB"/>
			<stop  offset="1" style="stop-color:#29AAE1"/>
		</linearGradient>
		<polygon class="st22" points="45.3,22.2 46.1,22.2 46.4,19.7 45.7,19.8 		"/>
		
			<linearGradient id="SVGID_23_" gradientUnits="userSpaceOnUse" x1="52.639" y1="18.866" x2="52.823" y2="21.5338" gradientTransform="matrix(1 -2.003111e-03 2.003111e-03 1 0.4574 0.4099)">
			<stop  offset="0" style="stop-color:#005ABB"/>
			<stop  offset="1" style="stop-color:#29AAE1"/>
		</linearGradient>
		<polygon class="st23" points="53.5,19.8 54.2,19.8 54,20.8 52.4,20.9 52.6,19.4 51.7,19.5 51.3,21.8 54.7,21.7 55.1,19.3 
			53.6,19.4 		"/>
		
			<linearGradient id="SVGID_24_" gradientUnits="userSpaceOnUse" x1="59.8329" y1="18.3509" x2="60.0173" y2="21.0247" gradientTransform="matrix(1 -2.003111e-03 2.003111e-03 1 0.4574 0.4099)">
			<stop  offset="0" style="stop-color:#005ABB"/>
			<stop  offset="1" style="stop-color:#29AAE1"/>
		</linearGradient>
		<polygon class="st24" points="59.8,21.4 60.7,21.4 61.1,19 60.2,19 		"/>
		
			<linearGradient id="SVGID_25_" gradientUnits="userSpaceOnUse" x1="55.813" y1="18.637" x2="55.9974" y2="21.3108" gradientTransform="matrix(1 -2.003111e-03 2.003111e-03 1 0.4574 0.4099)">
			<stop  offset="0" style="stop-color:#005ABB"/>
			<stop  offset="1" style="stop-color:#29AAE1"/>
		</linearGradient>
		<polygon class="st25" points="55.8,21.6 56.7,21.6 57,19.2 56.2,19.2 		"/>
		
			<linearGradient id="SVGID_26_" gradientUnits="userSpaceOnUse" x1="57.8221" y1="18.494" x2="58.0065" y2="21.1678" gradientTransform="matrix(1 -2.003111e-03 2.003111e-03 1 0.4574 0.4099)">
			<stop  offset="0" style="stop-color:#005ABB"/>
			<stop  offset="1" style="stop-color:#29AAE1"/>
		</linearGradient>
		<polygon class="st26" points="57.8,21.5 58.7,21.5 59.1,19.1 58.2,19.1 		"/>
		
			<linearGradient id="SVGID_27_" gradientUnits="userSpaceOnUse" x1="62.9846" y1="18.1302" x2="63.1686" y2="20.7981" gradientTransform="matrix(1 -2.003111e-03 2.003111e-03 1 0.4574 0.4099)">
			<stop  offset="0" style="stop-color:#005ABB"/>
			<stop  offset="1" style="stop-color:#29AAE1"/>
		</linearGradient>
		<path class="st27" d="M61.7,21.3l3.4-0.2l0.4-2.2l-0.8,0l0.2-0.2l-2.7,0.1L61.7,21.3z M64.5,19.3l-0.2,1l-1.6,0.1l0.2-1L64.5,19.3
			z"/>
		
			<linearGradient id="SVGID_28_" gradientUnits="userSpaceOnUse" x1="67.4455" y1="17.813" x2="67.6295" y2="20.4809" gradientTransform="matrix(1 -2.003111e-03 2.003111e-03 1 0.4574 0.4099)">
			<stop  offset="0" style="stop-color:#005ABB"/>
			<stop  offset="1" style="stop-color:#29AAE1"/>
		</linearGradient>
		<polygon class="st28" points="66.6,18.7 66.2,21.1 67.1,21 67.4,19.1 69,19 68.7,21 69.6,20.9 70,18.5 		"/>
	</g>
</g>
</svg>
