<?xml version="1.0" encoding="utf-8"?>
<!-- Generator: Adobe Illustrator 23.0.6, SVG Export Plug-In . SVG Version: 6.00 Build 0)  -->
<svg version="1.1" id="Layer_1" xmlns="http://www.w3.org/2000/svg" xmlns:xlink="http://www.w3.org/1999/xlink" x="0px" y="0px"
	 viewBox="0 0 25 25" style="enable-background:new 0 0 25 25;" xml:space="preserve">
<style type="text/css">
	.st0{fill:#FFFFFF;}
</style>
<g>
	<path class="st0" d="M24.5,16.5c-0.2-1.5-0.7-2.8-1.7-4c-0.9-1.1-2.1-1.8-3.4-2.2c0.5-1.4,0.6-3,0.2-4.4c-0.4-1.5-1.3-2.9-2.6-3.9
		c-1.3-1-2.8-1.5-4.4-1.5S9.4,1,8.1,2S5.9,4.3,5.5,5.8c-0.4,1.5-0.3,3,0.2,4.4c-1.6,0.5-3,1.5-3.9,2.9c-1,1.5-1.4,3.2-1.2,5
		s1.1,3.4,2.4,4.5s3,1.8,4.8,1.8h0c1.7,0,3.4-0.6,4.7-1.8c1.1,0.9,2.4,1.5,3.8,1.7c1.5,0.2,2.9-0.1,4.2-0.7c1.3-0.7,2.4-1.7,3.1-3
		C24.3,19.4,24.6,17.9,24.5,16.5z M17.6,11.1c-0.8,1.2-2.1,2.1-3.5,2.5c-0.2-0.4-0.5-0.8-0.8-1.1C14.5,11.5,16,11,17.6,11.1z
		 M12.1,13.9c0.1-0.2,0.2-0.3,0.4-0.5c0.1,0.2,0.3,0.3,0.4,0.5C12.6,13.9,12.4,13.9,12.1,13.9z M11.7,12.5c-0.3,0.3-0.6,0.7-0.8,1.1
		c-1.4-0.4-2.7-1.3-3.5-2.5C9,11,10.5,11.5,11.7,12.5z M18.2,10c-2.1-0.3-4.1,0.3-5.7,1.7c-1.3-1.1-3-1.8-4.7-1.8
		c-0.3,0-0.7,0-1,0.1C6.1,8.2,6.3,6.1,7.4,4.4c1.1-1.7,3-2.7,5.1-2.7s3.9,1,5.1,2.7C18.7,6.1,18.9,8.2,18.2,10z M6.2,11.3
		c0.9,1.6,2.4,2.8,4.2,3.4c-0.4,1.2-0.6,2.5-0.3,3.7c0.2,1.3,0.8,2.4,1.6,3.4c-1.9,1.6-4.6,1.8-6.7,0.7c-2.2-1.2-3.5-3.6-3.2-6.1
		C2,14,3.8,12,6.2,11.3z M11.1,17.2c0-0.8,0.1-1.5,0.4-2.2c0.6,0.1,1.3,0.1,1.9,0c0.8,2,0.4,4.4-1,6.1C11.6,20,11.1,18.6,11.1,17.2
		L11.1,17.2z M14.9,18.5c0.2-1.3,0.1-2.6-0.3-3.7c1.8-0.5,3.3-1.8,4.2-3.4c2.6,0.7,4.5,3.1,4.5,5.9c0,2.4-1.4,4.6-3.6,5.6
		c-2.1,1-4.6,0.6-6.4-0.9C14.2,20.9,14.7,19.8,14.9,18.5z"/>
</g>
</svg>
