<?xml version="1.0" encoding="utf-8"?>
<!-- Generator: Adobe Illustrator 23.0.6, SVG Export Plug-In . SVG Version: 6.00 Build 0)  -->
<svg version="1.1" id="Capa_1" xmlns="http://www.w3.org/2000/svg" xmlns:xlink="http://www.w3.org/1999/xlink" x="0px" y="0px"
	 viewBox="0 0 816 816" style="enable-background:new 0 0 816 816;" xml:space="preserve">
<style type="text/css">
	.st0{fill:#373940;}
</style>
<path class="st0" d="M783.9,249.2c-20.6-48.6-50-92.2-87.4-129.7C659,82,615.4,52.6,566.8,32.1C516.5,10.8,463.1,0,408,0
	S299.5,10.8,249.2,32.1c-48.6,20.5-92.2,50-129.7,87.4C82,157,52.6,200.6,32.1,249.2C10.8,299.5,0,352.9,0,408
	s10.8,108.5,32.1,158.8c20.5,48.6,50,92.2,87.4,129.7c37.5,37.5,81.1,66.9,129.7,87.4C299.5,805.2,352.9,816,408,816
	s108.5-10.8,158.8-32.1c48.6-20.6,92.2-50,129.7-87.4c37.5-37.5,66.9-81.1,87.4-129.7C805.2,516.5,816,463.1,816,408
	S805.2,299.5,783.9,249.2z M408,800C191.9,800,16,624.1,16,408C16,191.8,191.9,16,408,16s392,175.9,392,392S624.1,800,408,800z"/>
<g>
	<path class="st0" d="M586.5,427.1v120.2h-69.7V435.2c0-28.2-10.1-47.4-35.3-47.4c-19.3,0-30.7,12.9-35.7,25.5
		c-1.8,4.5-2.3,10.7-2.3,17v117h-69.7c0,0,0.9-189.9,0-209.5h69.7v29.7c-0.1,0.2-0.3,0.5-0.5,0.7h0.5v-0.7
		c9.3-14.2,25.8-34.6,62.8-34.6C552.1,332.8,586.5,362.8,586.5,427.1L586.5,427.1z M300.9,236.7c-23.8,0-39.4,15.6-39.4,36.2
		c0,20.1,15.1,36.2,38.5,36.2h0.5c24.3,0,39.4-16.1,39.4-36.2C339.4,252.4,324.8,236.7,300.9,236.7L300.9,236.7z M265.6,547.3h69.7
		V337.7h-69.7L265.6,547.3L265.6,547.3z"/>
</g>
</svg>
