<?xml version="1.0" encoding="utf-8"?>
<!-- Generator: Adobe Illustrator 23.0.6, SVG Export Plug-In . SVG Version: 6.00 Build 0)  -->
<svg version="1.1" id="Capa_1" xmlns="http://www.w3.org/2000/svg" xmlns:xlink="http://www.w3.org/1999/xlink" x="0px" y="0px"
	 viewBox="0 0 364.9 455.1" style="enable-background:new 0 0 364.9 455.1;" xml:space="preserve">
<style type="text/css">
	.st0{fill:#373940;}
</style>
<g>
	<g>
		<path class="st0" d="M182.4,0C81.9,0,0,81.8,0,182.4c0,11.4,1,23,3.2,34.2c0.1,0.7,0.5,2.7,1.2,6.1c2.8,12.3,6.9,24.4,12.2,36
			C36.3,305,79.6,376,174.4,452.2c2.4,1.9,5.2,2.9,8.1,2.9s5.7-1,8.1-2.9c94.7-76.1,138-147.2,157.7-193.5
			c5.3-11.5,9.4-23.6,12.2-36c0.8-3.4,1.1-5.4,1.2-6.1c2.1-11.3,3.2-22.8,3.2-34.2C364.8,81.8,283,0,182.4,0z M336.2,212.1
			c0,0.2-0.1,0.4-0.1,0.6c-0.1,0.5-0.4,1.9-0.9,4.1c0,0.1,0,0.1,0,0.2c-2.4,10.7-5.9,21.1-10.6,31.1c-0.1,0.1-0.1,0.3-0.2,0.4
			c-17.8,42.3-57,106.8-142.1,177.1C97.2,355.3,58.1,290.8,40.2,248.5c-0.1-0.1-0.1-0.3-0.2-0.4c-4.6-9.9-8.1-20.4-10.6-31.1
			c0-0.1,0-0.1,0-0.2c-0.6-2.2-0.8-3.6-0.9-4.1c0-0.2-0.1-0.4-0.1-0.7c-1.9-9.8-2.9-19.7-2.9-29.8c0-86.3,70.3-156.6,156.6-156.6
			s156.6,70.3,156.6,156.6C339.1,192.4,338.1,202.4,336.2,212.1z"/>
		<path class="st0" d="M182.4,68.6c-63.8,0-115.8,52-115.8,115.8s52,115.8,115.8,115.8s115.8-52,115.8-115.8S246.2,68.6,182.4,68.6z
			 M182.4,274.4c-49.7,0-90.1-40.4-90.1-90.1s40.4-90.1,90.1-90.1s90.1,40.4,90.1,90.1S232.1,274.4,182.4,274.4z"/>
	</g>
</g>
</svg>
