<?xml version="1.0" encoding="utf-8"?>
<!-- Generator: Adobe Illustrator 23.0.6, SVG Export Plug-In . SVG Version: 6.00 Build 0)  -->
<svg version="1.1" id="Capa_1" xmlns="http://www.w3.org/2000/svg" xmlns:xlink="http://www.w3.org/1999/xlink" x="0px" y="0px"
	 viewBox="0 0 457.9 458" style="enable-background:new 0 0 457.9 458;" xml:space="preserve">
<style type="text/css">
	.st0{fill:url(#SVGID_1_);}
</style>
<g>
	<linearGradient id="SVGID_1_" gradientUnits="userSpaceOnUse" x1="0" y1="229" x2="457.9" y2="229">
		<stop  offset="2.131116e-08" style="stop-color:#29AAE1"/>
		<stop  offset="1" style="stop-color:#005ABB"/>
	</linearGradient>
	<path class="st0" d="M453,429L345.7,321.7c29.6-35.3,45.9-79.8,45.9-125.9C391.6,87.8,303.8,0,195.8,0C87.9,0,0,87.8,0,195.8
		s87.8,195.8,195.8,195.8c46.1,0,90.7-16.3,125.9-45.9L429,453c3.2,3.2,7.6,5,12,5c4.5,0,8.9-1.8,12-5c3.2-3.2,4.9-7.4,4.9-12
		C457.9,436.4,456.2,432.2,453,429z M357.5,195.8c0,89.3-72.6,161.9-161.8,161.9S34,285.1,34,195.8C34,106.6,106.6,34,195.8,34
		S357.5,106.6,357.5,195.8z"/>
</g>
</svg>
