<?xml version="1.0" encoding="utf-8"?>
<!-- Generator: Adobe Illustrator 23.0.6, SVG Export Plug-In . SVG Version: 6.00 Build 0)  -->
<svg version="1.1" id="Capa_1" xmlns="http://www.w3.org/2000/svg" xmlns:xlink="http://www.w3.org/1999/xlink" x="0px" y="0px"
	 viewBox="0 0 284.7 407.7" style="enable-background:new 0 0 284.7 407.7;" xml:space="preserve">
<style type="text/css">
	.st0{fill:#3F3F36;}
</style>
<g>
	<path class="st0" d="M284.7,144.7C284.7,64.9,220.9,0,142.4,0S0,64.9,0,144.7V263c0,79.8,63.9,144.7,142.4,144.7
		S284.7,343,284.7,263.5V144.7z M265.2,263.5c0,68.7-55.1,124.7-122.8,124.7C74.6,388.2,19.5,332,19.5,263V144.7
		c0-69,55.1-125.1,122.8-125.1c67.7,0,122.8,56.1,122.8,125.1V263.5z"/>
	<path class="st0" d="M152.1,123.6c0-5.4-4.4-9.8-9.8-9.8c-5.4,0-9.8,4.4-9.8,9.8v48.2c0,5.4,4.4,9.8,9.8,9.8c5.4,0,9.8-4.4,9.8-9.8
		V123.6z"/>
</g>
</svg>
