<?xml version="1.0" encoding="utf-8"?>
<!-- Generator: Adobe Illustrator 23.0.6, SVG Export Plug-In . SVG Version: 6.00 Build 0)  -->
<svg version="1.1" id="Capa_1" xmlns="http://www.w3.org/2000/svg" xmlns:xlink="http://www.w3.org/1999/xlink" x="0px" y="0px"
	 viewBox="0 0 30.7 30.8" style="enable-background:new 0 0 30.7 30.8;" xml:space="preserve">
<style type="text/css">
	.st0{fill:#373940;}
</style>
<path class="st0" d="M28.3,20.9c-4.6-3.7-6.4-1.8-8.1-0.1l-0.3,0.3c-0.1,0.1-0.7,0.1-1.9-0.7c-1.1-0.7-2.5-1.9-4.1-3.6
	c-4.9-4.9-4.3-6-4.3-6l0.3-0.3c1.8-1.8,3.6-3.6-0.1-8.1C8.6,0.8,7.4,0.1,6.1,0c-2-0.1-3.4,1.4-4.5,2.7C1.4,2.8,1.2,3,1.1,3.2
	C-0.3,4.6-0.3,7.4,1,10.9c1.4,3.7,4.1,7.7,7.7,11.2c3.6,3.6,7.5,6.3,11.2,7.7c1.7,0.6,3.2,1,4.5,1c1.4,0,2.5-0.4,3.2-1.1
	c0.1-0.1,0.3-0.3,0.4-0.4l0.1-0.1c1.2-1.1,2.7-2.5,2.6-4.5C30.7,23.4,29.9,22.1,28.3,20.9z M3.1,4C4,3.1,5,2,6,2V1.5l0,0L6.1,2
	c0.7,0,1.5,0.6,2.3,1.6c2.5,3.2,1.7,3.9,0.1,5.5L8.2,9.4c-1.6,1.6-0.3,4.3,4.3,8.9c1.7,1.7,3.2,3,4.5,3.8c1.9,1.3,3.4,1.4,4.4,0.4
	l0.3-0.3c1.6-1.6,2.3-2.3,5.5,0.2c1,0.8,1.6,1.6,1.6,2.3c0,1-1,2-2,2.9c-0.2,0.2-0.4,0.4-0.6,0.6c-0.6,0.6-2.6,0.8-5.6-0.4
	c-3.4-1.3-7.1-3.8-10.5-7.2s-5.9-7.1-7.2-10.5c-1.1-3-1-5-0.4-5.6C2.7,4.4,2.8,4.2,3.1,4z"/>
</svg>
