<?xml version="1.0" encoding="utf-8"?>
<!-- Generator: Adobe Illustrator 23.0.6, SVG Export Plug-In . SVG Version: 6.00 Build 0)  -->
<svg version="1.1" id="Layer_1" xmlns="http://www.w3.org/2000/svg" xmlns:xlink="http://www.w3.org/1999/xlink" x="0px" y="0px"
	 viewBox="0 0 346.4 352.7" style="enable-background:new 0 0 346.4 352.7;" xml:space="preserve">
<style type="text/css">
	.st0{clip-path:url(#SVGID_2_);fill:#FFFFFF;}
	.st1{clip-path:url(#SVGID_4_);fill:#FFFFFF;}
	.st2{clip-path:url(#SVGID_6_);fill:#FFFFFF;}
	.st3{clip-path:url(#SVGID_8_);fill:#FFFFFF;}
	.st4{clip-path:url(#SVGID_10_);fill:#FFFFFF;}
	.st5{clip-path:url(#SVGID_12_);fill:#FFFFFF;}
	.st6{clip-path:url(#SVGID_14_);fill:#FFFFFF;}
	.st7{clip-path:url(#SVGID_16_);fill:#FFFFFF;}
	.st8{clip-path:url(#SVGID_18_);fill:#FFFFFF;}
	.st9{clip-path:url(#SVGID_20_);fill:#FFFFFF;}
	.st10{clip-path:url(#SVGID_22_);fill:#FFFFFF;}
	.st11{clip-path:url(#SVGID_24_);fill:#FFFFFF;}
	.st12{clip-path:url(#SVGID_26_);fill:#FFFFFF;}
	.st13{clip-path:url(#SVGID_28_);fill:#FFFFFF;}
	.st14{clip-path:url(#SVGID_30_);fill:#FFFFFF;}
	.st15{clip-path:url(#SVGID_32_);fill:#FFFFFF;}
	.st16{clip-path:url(#SVGID_34_);fill:#FFFFFF;}
	.st17{clip-path:url(#SVGID_36_);fill:#FFFFFF;}
	.st18{clip-path:url(#SVGID_38_);fill:#FFFFFF;}
	.st19{clip-path:url(#SVGID_40_);fill:#FFFFFF;}
	.st20{clip-path:url(#SVGID_42_);fill:#FFFFFF;}
	.st21{clip-path:url(#SVGID_44_);fill:#FFFFFF;}
	.st22{clip-path:url(#SVGID_46_);fill:#FFFFFF;}
	.st23{clip-path:url(#SVGID_48_);fill:#FFFFFF;}
	.st24{clip-path:url(#SVGID_50_);fill:#FFFFFF;}
	.st25{clip-path:url(#SVGID_52_);fill:#FFFFFF;}
	.st26{clip-path:url(#SVGID_54_);fill:#FFFFFF;}
	.st27{clip-path:url(#SVGID_56_);fill:#FFFFFF;}
	.st28{clip-path:url(#SVGID_58_);fill:#FFFFFF;}
	.st29{fill:#FFFFFF;}
	.st30{clip-path:url(#SVGID_60_);fill:#FFFFFF;}
</style>
<g>
	<g>
		<defs>
			<path id="SVGID_1_" d="M108.3,183.7c0-34.5,28.1-62.5,62.5-62.5c34.5,0,62.5,28.1,62.5,62.5c0,34.5-28.1,62.5-62.5,62.5
				C136.4,246.3,108.3,218.2,108.3,183.7 M107.2,183.7c0,35.1,28.6,63.7,63.7,63.7c35.1,0,63.7-28.6,63.7-63.7
				c0-35.1-28.6-63.7-63.7-63.7C135.7,120,107.2,148.6,107.2,183.7"/>
		</defs>
		<use xlink:href="#SVGID_1_"  style="overflow:visible;fill:#FFFFFF;"/>
		<clipPath id="SVGID_2_">
			<use xlink:href="#SVGID_1_"  style="overflow:visible;"/>
		</clipPath>
		<rect x="107.2" y="120" class="st0" width="127.4" height="127.4"/>
	</g>
	<g>
		<defs>
			<path id="SVGID_3_" d="M171.4,135.3c4.1,0,8.1,0.6,11.9,1.6l2.9-11.1c-4.7-1.3-9.7-1.9-14.8-2V135.3z"/>
		</defs>
		<use xlink:href="#SVGID_3_"  style="overflow:visible;fill:#FFFFFF;"/>
		<clipPath id="SVGID_4_">
			<use xlink:href="#SVGID_3_"  style="overflow:visible;"/>
		</clipPath>
		<rect x="171.4" y="123.9" class="st1" width="14.8" height="13.1"/>
	</g>
	<g>
		<defs>
			<path id="SVGID_5_" d="M155.9,125.7l2.8,11.1c3.7-1,7.6-1.5,11.6-1.5v-11.4C165.3,123.9,160.5,124.5,155.9,125.7"/>
		</defs>
		<use xlink:href="#SVGID_5_"  style="overflow:visible;fill:#FFFFFF;"/>
		<clipPath id="SVGID_6_">
			<use xlink:href="#SVGID_5_"  style="overflow:visible;"/>
		</clipPath>
		<rect x="155.9" y="123.9" class="st2" width="14.4" height="13"/>
	</g>
	<g>
		<defs>
			<path id="SVGID_7_" d="M111,186.8c0.2,4.7,1,9.3,2.3,13.6l11.1-2.8c-1-3.5-1.7-7.1-1.9-10.8H111z"/>
		</defs>
		<use xlink:href="#SVGID_7_"  style="overflow:visible;fill:#FFFFFF;"/>
		<clipPath id="SVGID_8_">
			<use xlink:href="#SVGID_7_"  style="overflow:visible;"/>
		</clipPath>
		<rect x="111" y="186.8" class="st3" width="13.4" height="13.6"/>
	</g>
	<g>
		<defs>
			<path id="SVGID_9_" d="M112.5,170.3l11.1,2.9c0.9-4.1,2.4-8.1,4.3-11.8l-9.9-5.8C115.6,160.2,113.7,165.1,112.5,170.3"/>
		</defs>
		<use xlink:href="#SVGID_9_"  style="overflow:visible;fill:#FFFFFF;"/>
		<clipPath id="SVGID_10_">
			<use xlink:href="#SVGID_9_"  style="overflow:visible;"/>
		</clipPath>
		<rect x="112.5" y="155.6" class="st4" width="15.4" height="17.6"/>
	</g>
	<g>
		<defs>
			<path id="SVGID_11_" d="M140.1,132.4l5.8,9.9c3.7-2.2,7.6-3.9,11.8-5.1l-2.8-11.1C149.6,127.5,144.7,129.6,140.1,132.4"/>
		</defs>
		<use xlink:href="#SVGID_11_"  style="overflow:visible;fill:#FFFFFF;"/>
		<clipPath id="SVGID_12_">
			<use xlink:href="#SVGID_11_"  style="overflow:visible;"/>
		</clipPath>
		<rect x="140.1" y="126" class="st5" width="17.6" height="16.2"/>
	</g>
	<g>
		<defs>
			<path id="SVGID_13_" d="M184.4,137.2c4.2,1.2,8.1,3,11.8,5.2l5.8-9.9c-4.5-2.8-9.5-4.9-14.7-6.4L184.4,137.2z"/>
		</defs>
		<use xlink:href="#SVGID_13_"  style="overflow:visible;fill:#FFFFFF;"/>
		<clipPath id="SVGID_14_">
			<use xlink:href="#SVGID_13_"  style="overflow:visible;"/>
		</clipPath>
		<rect x="184.4" y="126.2" class="st6" width="17.6" height="16.3"/>
	</g>
	<g>
		<defs>
			<path id="SVGID_15_" d="M118.5,154.6l9.9,5.8c1.8-3.4,4.1-6.5,6.6-9.3l-8.1-8.1C123.7,146.6,120.9,150.4,118.5,154.6"/>
		</defs>
		<use xlink:href="#SVGID_15_"  style="overflow:visible;fill:#FFFFFF;"/>
		<clipPath id="SVGID_16_">
			<use xlink:href="#SVGID_15_"  style="overflow:visible;"/>
		</clipPath>
		<rect x="118.5" y="143.1" class="st7" width="16.5" height="17.4"/>
	</g>
	<g>
		<defs>
			<path id="SVGID_17_" d="M206.7,151.2c2.6,2.9,4.9,6.1,6.8,9.6l9.9-5.8c-2.4-4.3-5.3-8.3-8.6-11.9L206.7,151.2z"/>
		</defs>
		<use xlink:href="#SVGID_17_"  style="overflow:visible;fill:#FFFFFF;"/>
		<clipPath id="SVGID_18_">
			<use xlink:href="#SVGID_17_"  style="overflow:visible;"/>
		</clipPath>
		<rect x="206.7" y="143.1" class="st8" width="16.7" height="17.7"/>
	</g>
	<g>
		<defs>
			<path id="SVGID_19_" d="M204.2,218.8l8.1,8.1c3.3-3.1,6.2-6.6,8.6-10.4l-9.9-5.8C209.1,213.6,206.8,216.4,204.2,218.8"/>
		</defs>
		<use xlink:href="#SVGID_19_"  style="overflow:visible;fill:#FFFFFF;"/>
		<clipPath id="SVGID_20_">
			<use xlink:href="#SVGID_19_"  style="overflow:visible;"/>
		</clipPath>
		<rect x="204.2" y="210.7" class="st9" width="16.7" height="16.2"/>
	</g>
	<g>
		<defs>
			<path id="SVGID_21_" d="M120.6,216.2c2.5,3.9,5.5,7.5,8.9,10.7l8.1-8.1c-2.7-2.5-5-5.3-7-8.4L120.6,216.2z"/>
		</defs>
		<use xlink:href="#SVGID_21_"  style="overflow:visible;fill:#FFFFFF;"/>
		<clipPath id="SVGID_22_">
			<use xlink:href="#SVGID_21_"  style="overflow:visible;"/>
		</clipPath>
		<rect x="120.6" y="210.4" class="st10" width="16.9" height="16.5"/>
	</g>
	<g>
		<defs>
			<path id="SVGID_23_" d="M111,183.7c0,0.6,0,1.3,0,1.9h11.5c0-0.6-0.1-1.3-0.1-1.9c0-3.2,0.3-6.4,0.9-9.5l-11.1-2.9
				C111.4,175.3,111,179.5,111,183.7"/>
		</defs>
		<use xlink:href="#SVGID_23_"  style="overflow:visible;fill:#FFFFFF;"/>
		<clipPath id="SVGID_24_">
			<use xlink:href="#SVGID_23_"  style="overflow:visible;"/>
		</clipPath>
		<rect x="111" y="171.3" class="st11" width="12.4" height="14.3"/>
	</g>
	<g>
		<defs>
			<path id="SVGID_25_" d="M214,161.7c1.9,3.7,3.3,7.6,4.2,11.8l11.1-2.8c-1.2-5.2-3-10.1-5.4-14.7L214,161.7z"/>
		</defs>
		<use xlink:href="#SVGID_25_"  style="overflow:visible;fill:#FFFFFF;"/>
		<clipPath id="SVGID_26_">
			<use xlink:href="#SVGID_25_"  style="overflow:visible;"/>
		</clipPath>
		<rect x="214" y="156" class="st12" width="15.3" height="17.6"/>
	</g>
	<g>
		<defs>
			<path id="SVGID_27_" d="M211.7,209.8l9.9,5.8c2.7-4.2,4.8-8.9,6.4-13.7l-11.1-2.9C215.6,202.8,213.9,206.4,211.7,209.8"/>
		</defs>
		<use xlink:href="#SVGID_27_"  style="overflow:visible;fill:#FFFFFF;"/>
		<clipPath id="SVGID_28_">
			<use xlink:href="#SVGID_27_"  style="overflow:visible;"/>
		</clipPath>
		<rect x="211.7" y="198.9" class="st13" width="16.3" height="16.7"/>
	</g>
	<g>
		<defs>
			<path id="SVGID_29_" d="M218.4,174.6c0.6,3,0.9,6,0.9,9.2c0,0.6,0,1.3,0,1.9h11.5c0-0.6,0-1.3,0-1.9c0-4.1-0.4-8.1-1.2-12
				L218.4,174.6z"/>
		</defs>
		<use xlink:href="#SVGID_29_"  style="overflow:visible;fill:#FFFFFF;"/>
		<clipPath id="SVGID_30_">
			<use xlink:href="#SVGID_29_"  style="overflow:visible;"/>
		</clipPath>
		<rect x="218.4" y="171.7" class="st14" width="12.3" height="13.9"/>
	</g>
	<g>
		<defs>
			<path id="SVGID_31_" d="M194.6,225.9l5.8,9.9c4-2.3,7.8-5,11.1-8.2l-8.1-8.1C200.8,222,197.8,224.1,194.6,225.9"/>
		</defs>
		<use xlink:href="#SVGID_31_"  style="overflow:visible;fill:#FFFFFF;"/>
		<clipPath id="SVGID_32_">
			<use xlink:href="#SVGID_31_"  style="overflow:visible;"/>
		</clipPath>
		<rect x="194.6" y="219.6" class="st15" width="16.9" height="16.2"/>
	</g>
	<g>
		<defs>
			<path id="SVGID_33_" d="M219.2,186.8c-0.2,3.8-0.9,7.6-2,11.1l11.1,2.9c1.3-4.5,2.2-9.2,2.4-14H219.2z"/>
		</defs>
		<use xlink:href="#SVGID_33_"  style="overflow:visible;fill:#FFFFFF;"/>
		<clipPath id="SVGID_34_">
			<use xlink:href="#SVGID_33_"  style="overflow:visible;"/>
		</clipPath>
		<rect x="217.2" y="186.8" class="st16" width="13.5" height="14"/>
	</g>
	<g>
		<defs>
			<path id="SVGID_35_" d="M197.1,143c3.2,2.1,6.2,4.6,8.9,7.4l8.1-8.1c-3.3-3.5-7.1-6.5-11.1-9.1L197.1,143z"/>
		</defs>
		<use xlink:href="#SVGID_35_"  style="overflow:visible;fill:#FFFFFF;"/>
		<clipPath id="SVGID_36_">
			<use xlink:href="#SVGID_35_"  style="overflow:visible;"/>
		</clipPath>
		<rect x="197.1" y="133.2" class="st17" width="17" height="17.2"/>
	</g>
	<g>
		<defs>
			<path id="SVGID_37_" d="M127.7,142.3l8.1,8.1c2.7-2.9,5.8-5.4,9.2-7.5l-5.8-9.9C135,135.6,131.1,138.7,127.7,142.3"/>
		</defs>
		<use xlink:href="#SVGID_37_"  style="overflow:visible;fill:#FFFFFF;"/>
		<clipPath id="SVGID_38_">
			<use xlink:href="#SVGID_37_"  style="overflow:visible;"/>
		</clipPath>
		<rect x="127.7" y="132.9" class="st18" width="17.2" height="17.4"/>
	</g>
	<g>
		<defs>
			<path id="SVGID_39_" d="M113.6,201.5c1.5,4.9,3.7,9.5,6.3,13.8l9.9-5.8c-2.1-3.4-3.8-7-5.1-10.9L113.6,201.5z"/>
		</defs>
		<use xlink:href="#SVGID_39_"  style="overflow:visible;fill:#FFFFFF;"/>
		<clipPath id="SVGID_40_">
			<use xlink:href="#SVGID_39_"  style="overflow:visible;"/>
		</clipPath>
		<rect x="113.6" y="198.6" class="st19" width="16.2" height="16.6"/>
	</g>
	<g>
		<defs>
			<path id="SVGID_41_" d="M130.2,227.7c3.3,3,6.9,5.7,10.8,8l5.8-9.9c-3.1-1.8-5.9-3.8-8.5-6.2L130.2,227.7z"/>
		</defs>
		<use xlink:href="#SVGID_41_"  style="overflow:visible;fill:#FFFFFF;"/>
		<clipPath id="SVGID_42_">
			<use xlink:href="#SVGID_41_"  style="overflow:visible;"/>
		</clipPath>
		<rect x="130.2" y="219.6" class="st20" width="16.6" height="16.1"/>
	</g>
	<g>
		<defs>
			<path id="SVGID_43_" d="M142,236.2c4.3,2.4,8.9,4.2,13.7,5.5l2.9-11.1c-3.8-1-7.4-2.4-10.8-4.3L142,236.2z"/>
		</defs>
		<use xlink:href="#SVGID_43_"  style="overflow:visible;fill:#FFFFFF;"/>
		<clipPath id="SVGID_44_">
			<use xlink:href="#SVGID_43_"  style="overflow:visible;"/>
		</clipPath>
		<rect x="142" y="226.3" class="st21" width="16.6" height="15.4"/>
	</g>
	<g>
		<defs>
			<path id="SVGID_45_" d="M171.4,232.2v11.4c4.5,0,9-0.6,13.2-1.6l-2.8-11.1C178.4,231.7,175,232.1,171.4,232.2"/>
		</defs>
		<use xlink:href="#SVGID_45_"  style="overflow:visible;fill:#FFFFFF;"/>
		<clipPath id="SVGID_46_">
			<use xlink:href="#SVGID_45_"  style="overflow:visible;"/>
		</clipPath>
		<rect x="171.4" y="230.9" class="st22" width="13.2" height="12.7"/>
	</g>
	<g>
		<defs>
			<path id="SVGID_47_" d="M156.7,241.9c4.4,1.1,8.9,1.6,13.6,1.7v-11.4c-3.7,0-7.2-0.5-10.6-1.3L156.7,241.9z"/>
		</defs>
		<use xlink:href="#SVGID_47_"  style="overflow:visible;fill:#FFFFFF;"/>
		<clipPath id="SVGID_48_">
			<use xlink:href="#SVGID_47_"  style="overflow:visible;"/>
		</clipPath>
		<rect x="156.7" y="230.9" class="st23" width="13.6" height="12.8"/>
	</g>
	<g>
		<defs>
			<path id="SVGID_49_" d="M182.8,230.7l2.8,11.1c4.8-1.2,9.5-3.1,13.8-5.4l-5.8-9.9C190.3,228.3,186.7,229.7,182.8,230.7"/>
		</defs>
		<use xlink:href="#SVGID_49_"  style="overflow:visible;fill:#FFFFFF;"/>
		<clipPath id="SVGID_50_">
			<use xlink:href="#SVGID_49_"  style="overflow:visible;"/>
		</clipPath>
		<rect x="182.8" y="226.5" class="st24" width="16.6" height="15.3"/>
	</g>
	<g>
		<defs>
			<path id="SVGID_51_" d="M120.2,6.1l9.3,36.1c12-3.1,24.7-4.8,37.6-4.9V0C150.9,0.1,135.2,2.2,120.2,6.1"/>
		</defs>
		<use xlink:href="#SVGID_51_"  style="overflow:visible;fill:#FFFFFF;"/>
		<clipPath id="SVGID_52_">
			<use xlink:href="#SVGID_51_"  style="overflow:visible;"/>
		</clipPath>
		<rect x="120.2" class="st25" width="46.9" height="42.2"/>
	</g>
	<g>
		<defs>
			<path id="SVGID_53_" d="M68.7,27.7l18.8,32.2c11.9-7.2,24.8-12.8,38.5-16.7l-9.3-36.1C99.7,11.8,83.6,18.8,68.7,27.7"/>
		</defs>
		<use xlink:href="#SVGID_53_"  style="overflow:visible;fill:#FFFFFF;"/>
		<clipPath id="SVGID_54_">
			<use xlink:href="#SVGID_53_"  style="overflow:visible;"/>
		</clipPath>
		<rect x="68.7" y="7.1" class="st26" width="57.3" height="52.8"/>
	</g>
	<g>
		<defs>
			<path id="SVGID_55_" d="M28.3,60l26.4,26.3c8.9-9.3,18.9-17.6,29.8-24.5L65.7,29.6C52,38.2,39.4,48.4,28.3,60"/>
		</defs>
		<use xlink:href="#SVGID_55_"  style="overflow:visible;fill:#FFFFFF;"/>
		<clipPath id="SVGID_56_">
			<use xlink:href="#SVGID_55_"  style="overflow:visible;"/>
		</clipPath>
		<rect x="28.3" y="29.6" class="st27" width="56.2" height="56.7"/>
	</g>
	<g>
		<defs>
			<path id="SVGID_57_" d="M127.5,183.7c0-0.2,0-0.4,0-0.6h4.2c0-21.2,17.3-38.5,38.5-38.5v-4.2c0.2,0,0.4,0,0.6,0
				c23.9,0,43.3,19.4,43.3,43.3c0,3.4-0.4,6.6-1.1,9.7l-4.2-1c-4.9,21-26,34.1-47.1,29.2l-1,4.2
				C141.8,221.4,127.5,204.2,127.5,183.7 M170.3,139.1L170.3,139.1c-24.3,0-44,19.7-44,44h0c0,0.2,0,0.4,0,0.6
				c0,24.6,20,44.6,44.6,44.6c19.5,0,36.2-12.6,42.2-30.2c0,0,0,0,0-0.1c0.2-0.6,0.4-1.3,0.6-1.9c0-0.2,0.1-0.3,0.1-0.5
				c0.1-0.5,0.3-1,0.4-1.5c0-0.2,0.1-0.3,0.1-0.5l0,0c0.7-3.2,1.2-6.6,1.2-10c0-24.6-20-44.6-44.6-44.6
				C170.7,139.1,170.5,139.1,170.3,139.1"/>
		</defs>
		<use xlink:href="#SVGID_57_"  style="overflow:visible;fill:#FFFFFF;"/>
		<clipPath id="SVGID_58_">
			<use xlink:href="#SVGID_57_"  style="overflow:visible;"/>
		</clipPath>
		<rect x="126.2" y="139.1" class="st28" width="89.2" height="89.2"/>
	</g>
	<path class="st29" d="M262.5,214.9l-0.4,0.9c-10.3,25.1-29.6,45.2-54.3,56.6l-0.9,0.4l38.7,80l0.9-0.4
		c46.2-21.7,81.5-59.8,99.7-107.2l0.4-1L262.5,214.9z M246.5,350l-36.9-76.4c24.5-11.5,43.6-31.5,54.1-56.3l80.2,27.9
		C325.9,291.5,291.4,328.6,246.5,350z"/>
	<path class="st29" d="M62.6,301.1c-66-51.1-78.1-146.3-27-212.3l0,0c0.2-0.3,0.4-0.5,0.7-0.8c0.2-0.2,0.4-0.5,0.6-0.7l0.6-0.8
		l-3.1-2.4l-0.6,0.8c-0.2,0.2-0.4,0.4-0.5,0.7c-0.2,0.3-0.5,0.6-0.7,0.8C7.1,119.1-4,159.8,1.3,201c5.2,41.2,26.2,77.9,58.9,103.2
		l0.8,0.6l2.4-3.1L62.6,301.1z"/>
	<g>
		<path class="st29" d="M231.3,15c0.8,0.3,1.5,0.6,2.3,1l0.2-0.4c-0.8-0.4-1.7-0.7-2.5-1.1l-0.2-0.1l-1.1,2.8l0.4,0.2L231.3,15z"/>
		
			<rect x="239.9" y="118.8" transform="matrix(0.6961 -0.718 0.718 0.6961 -13.4018 210.9792)" class="st29" width="5.3" height="5"/>
		<rect x="247.2" y="111.3" transform="matrix(0.6961 -0.718 0.718 0.6961 -5.7609 213.938)" class="st29" width="5.3" height="5"/>
		
			<rect x="232.6" y="126.4" transform="matrix(0.6961 -0.718 0.718 0.6961 -21.0431 208.0204)" class="st29" width="5.3" height="5"/>
		
			<rect x="225.2" y="133.9" transform="matrix(0.6961 -0.718 0.718 0.6961 -28.684 205.0616)" class="st29" width="5.3" height="5"/>
		<rect x="276.5" y="81.1" transform="matrix(0.6961 -0.718 0.718 0.6961 24.8034 225.774)" class="st29" width="5.3" height="5"/>
		<rect x="291.1" y="66" transform="matrix(0.6961 -0.718 0.718 0.6961 40.0914 231.7009)" class="st29" width="5.3" height="5"/>
		<rect x="283.8" y="73.5" transform="matrix(0.6961 -0.718 0.718 0.6961 32.4444 228.7329)" class="st29" width="5.3" height="5"/>
		<rect x="269.1" y="88.6" transform="matrix(0.6961 -0.718 0.718 0.6961 17.1624 222.8148)" class="st29" width="5.3" height="5"/>
		<rect x="254.5" y="103.7" transform="matrix(0.6961 -0.718 0.718 0.6961 1.8802 216.8972)" class="st29" width="5.3" height="5"/>
		<rect x="261.8" y="96.2" transform="matrix(0.6961 -0.718 0.718 0.6961 9.5211 219.8561)" class="st29" width="5.3" height="5"/>
		<path class="st29" d="M253.8,22.7c-1.6-0.8-3.1-1.7-4.7-2.5l-2.3,4.4c1.5,0.8,3.1,1.6,4.6,2.4L253.8,22.7z"/>
		<path class="st29" d="M263,28c-1.5-0.9-3-1.8-4.6-2.7l-2.5,4.3c1.5,0.9,3,1.7,4.5,2.6L263,28z"/>
		<path class="st29" d="M244.4,17.9c-1.6-0.8-3.2-1.5-4.8-2.3l-2.1,4.6c1.6,0.7,3.1,1.4,4.7,2.2L244.4,17.9z"/>
		<path class="st29" d="M297,53.5c-1.3-1.2-2.6-2.4-4-3.5l-3.3,3.8c1.3,1.1,2.6,2.3,3.9,3.5L297,53.5z"/>
		<path class="st29" d="M289,46.5c-1.4-1.1-2.7-2.2-4.1-3.3l-3.1,3.9c1.4,1.1,2.7,2.2,4,3.3L289,46.5z"/>
		<path class="st29" d="M280.6,39.9c-1.4-1.1-2.8-2.1-4.3-3.1l-2.9,4.1c1.4,1,2.8,2,4.2,3.1L280.6,39.9z"/>
		<path class="st29" d="M272,33.8c-1.5-1-2.9-2-4.4-2.9l-2.7,4.2c1.5,0.9,2.9,1.9,4.3,2.9L272,33.8z"/>
		
			<rect x="224.5" y="22.1" transform="matrix(0.3783 -0.9257 0.9257 0.3783 118.4671 225.5209)" class="st29" width="5.3" height="5"/>
		
			<rect x="188.7" y="109.6" transform="matrix(0.3783 -0.9257 0.9257 0.3783 15.2445 246.8175)" class="st29" width="5.3" height="5"/>
		
			<rect x="212.6" y="51.2" transform="matrix(0.3783 -0.9257 0.9257 0.3783 84.0595 232.6198)" class="st29" width="5.3" height="5"/>
		<rect x="208.6" y="61" transform="matrix(0.3783 -0.9257 0.9257 0.3783 72.5906 234.9863)" class="st29" width="5.3" height="5"/>
		
			<rect x="220.5" y="31.8" transform="matrix(0.3783 -0.9257 0.9257 0.3783 106.9982 227.8875)" class="st29" width="5.3" height="5"/>
		
			<rect x="204.6" y="70.7" transform="matrix(0.3785 -0.9256 0.9256 0.3785 61.0918 237.326)" class="st29" width="5.3" height="5"/>
		
			<rect x="216.6" y="41.5" transform="matrix(0.3783 -0.9257 0.9257 0.3783 95.5287 230.2531)" class="st29" width="5.3" height="5"/>
		
			<rect x="192.7" y="99.8" transform="matrix(0.3783 -0.9257 0.9257 0.3783 26.7142 244.4517)" class="st29" width="5.3" height="5"/>
		
			<rect x="200.7" y="80.4" transform="matrix(0.3783 -0.9257 0.9257 0.3783 49.652 239.7186)" class="st29" width="5.3" height="5"/>
		
			<rect x="196.7" y="90.1" transform="matrix(0.3783 -0.9257 0.9257 0.3783 38.1831 242.0851)" class="st29" width="5.3" height="5"/>
	</g>
	<g>
		<defs>
			<path id="SVGID_59_" d="M226.3,81.5c0,0,0.1,0.1,0.1,0.1C226.4,81.6,226.4,81.5,226.3,81.5 M225,80.8
				c-20.5-11.2-44.1-16.1-67.7-13.7C181.1,64.4,204.8,69.5,225,80.8 M127.6,57.4l5.2,15c-4.6,1.6-9.2,3.4-13.8,5.6
				c-57.4,27.8-81.6,97.1-53.8,154.5c26.3,54.5,90,79,145.5,57.7l-0.4-0.8c-55,21-118.1-3.3-144.2-57.3
				c-27.5-57-3.6-125.7,53.4-153.2c56.6-27.4,124.9-3.9,152.8,52.4c1.7,3.6,3.2,7.3,4.5,11.1l0.2-0.1c9.3,25,9.3,51.6,1.4,75.6
				l0.9,0.3c7.9-24.2,8-51-1.4-76.2l14.2-4.9c-18.5-53.3-68.7-86.8-122.2-86.8C155.9,50.2,141.6,52.5,127.6,57.4"/>
		</defs>
		<use xlink:href="#SVGID_59_"  style="overflow:visible;fill:#FFFFFF;"/>
		<clipPath id="SVGID_60_">
			<use xlink:href="#SVGID_59_"  style="overflow:visible;"/>
		</clipPath>
		
			<rect x="-6.6" y="7.9" transform="matrix(0.9003 -0.4352 0.4352 0.9003 -62.2801 89.7352)" class="st30" width="342.9" height="346"/>
	</g>
	<polygon class="st29" points="248.5,179.3 248.4,179.4 248.4,188.1 248.5,188.2 253.2,183.8 	"/>
	<polygon class="st29" points="257,179.3 256.9,179.4 256.9,188.1 257,188.2 261.7,183.8 	"/>
	<polygon class="st29" points="265.5,179.3 265.4,179.4 265.4,188.1 265.5,188.2 270.2,183.8 	"/>
	<polygon class="st29" points="90.2,179.3 90.2,179.4 90.2,188.1 90.2,188.2 85.4,183.8 	"/>
	<polygon class="st29" points="81.7,179.3 81.7,179.4 81.7,188.1 81.7,188.2 76.9,183.8 	"/>
	<polygon class="st29" points="73.2,179.3 73.2,179.4 73.2,188.1 73.2,188.2 68.4,183.8 	"/>
	<path class="st29" d="M181.1,183.7c0,5.6-4.6,10.2-10.2,10.2c-5.6,0-10.2-4.6-10.2-10.2c0-5.6,4.6-10.2,10.2-10.2
		C176.5,173.5,181.1,178.1,181.1,183.7z"/>
	<g>
		<path class="st29" d="M303.1,241.9l7.3,3.2c-0.8,1.7-1.6,3.5-2.4,5.2l-7.2-3.5C301.6,245.2,302.4,243.6,303.1,241.9"/>
		<path class="st29" d="M307,231.9l7.5,2.7c-0.6,1.8-1.3,3.6-2,5.3l-7.4-2.9C305.8,235.3,306.4,233.6,307,231.9"/>
		<path class="st29" d="M286.9,269.8l6.4,4.8c-1.1,1.5-2.3,3-3.5,4.5l-6.2-5C284.7,272.7,285.8,271.3,286.9,269.8"/>
		<path class="st29" d="M310.3,221.6l7.7,2.1c-0.5,1.8-1,3.7-1.6,5.5l-7.6-2.4C309.3,225.1,309.8,223.3,310.3,221.6"/>
		<path class="st29" d="M293,260.9l6.8,4.3c-1,1.6-2.1,3.2-3.1,4.8l-6.6-4.5C291,264,292,262.4,293,260.9"/>
		<path class="st29" d="M298.4,251.6l7.1,3.8c-0.9,1.7-1.8,3.3-2.8,5l-6.9-4C296.7,254.8,297.5,253.2,298.4,251.6"/>
		<path class="st29" d="M315.1,189.7l8,0.3c-0.1,1.9-0.2,3.8-0.3,5.7l-8-0.6C314.9,193.3,315.1,191.5,315.1,189.7"/>
		<path class="st29" d="M312.7,211.1l7.9,1.5c-0.4,1.9-0.8,3.7-1.2,5.6l-7.8-1.8C312,214.6,312.3,212.9,312.7,211.1"/>
		<rect x="315.2" y="183.8" class="st29" width="8" height="0.4"/>
		<path class="st29" d="M280.1,278.2l6.1,5.2c-1.2,1.4-2.5,2.8-3.8,4.2l-5.9-5.5C277.7,280.9,278.9,279.6,280.1,278.2"/>
		<path class="st29" d="M314.3,200.4l7.9,0.9c-0.2,1.9-0.5,3.8-0.8,5.6l-7.9-1.2C313.9,204,314.1,202.2,314.3,200.4"/>
		<path class="st29" d="M210,331.2c-1.8,0.5-3.7,0.9-5.5,1.4l-1.8-7.8c1.8-0.4,3.5-0.8,5.2-1.3L210,331.2z"/>
		<path class="st29" d="M272.8,286.1l5.6,5.7c-1.3,1.3-2.7,2.7-4.1,3.9l-5.4-5.9C270.2,288.7,271.5,287.4,272.8,286.1"/>
		<path class="st29" d="M198.8,333.7c-1.9,0.3-3.7,0.7-5.6,0.9l-1.2-7.9c1.8-0.3,3.6-0.6,5.3-0.9L198.8,333.7z"/>
		<path class="st29" d="M231.5,323.7c-1.7,0.8-3.5,1.5-5.3,2.2l-2.9-7.5c1.7-0.7,3.4-1.3,5-2.1L231.5,323.7z"/>
		<path class="st29" d="M187.6,335.3c-1.9,0.2-3.8,0.4-5.7,0.5l-0.6-8c1.8-0.1,3.6-0.3,5.4-0.5L187.6,335.3z"/>
		<path class="st29" d="M170.9,328.2c1.7,0,3.4,0,5.1-0.1l0.3,8c-1.8,0.1-3.6,0.1-5.4,0.1V328.2z"/>
		<path class="st29" d="M220.9,327.8c-1.8,0.6-3.6,1.2-5.4,1.8l-2.3-7.7c1.7-0.5,3.5-1.1,5.1-1.7L220.9,327.8z"/>
		<path class="st29" d="M241.8,318.7c-1.7,0.9-3.4,1.7-5.1,2.6l-3.5-7.2c1.6-0.8,3.2-1.6,4.8-2.4L241.8,318.7z"/>
		<path class="st29" d="M261.1,306.6c-1.5,1.1-3.1,2.2-4.7,3.3l-4.5-6.6c1.5-1,3-2.1,4.4-3.1L261.1,306.6z"/>
		<path class="st29" d="M264.8,293.5l5.2,6.1c-1.4,1.2-2.9,2.5-4.4,3.6l-5-6.3C262.1,295.8,263.5,294.6,264.8,293.5"/>
		<path class="st29" d="M251.7,313c-1.6,1-3.3,2-4.9,2.9l-4-6.9c1.6-0.9,3.1-1.8,4.6-2.8L251.7,313z"/>
	</g>
</g>
</svg>
