<?xml version="1.0" encoding="utf-8"?>
<!-- Generator: Adobe Illustrator 23.0.6, SVG Export Plug-In . SVG Version: 6.00 Build 0)  -->
<svg version="1.1" id="Capa_1" xmlns="http://www.w3.org/2000/svg" xmlns:xlink="http://www.w3.org/1999/xlink" x="0px" y="0px"
	 viewBox="0 0 265 438.2" style="enable-background:new 0 0 265 438.2;" xml:space="preserve">
<style type="text/css">
	.st0{fill:url(#SVGID_1_);}
	.st1{fill:url(#SVGID_2_);}
	.st2{fill:url(#SVGID_3_);}
	.st3{fill:url(#SVGID_4_);}
</style>
<g>
	<linearGradient id="SVGID_1_" gradientUnits="userSpaceOnUse" x1="0" y1="257.65" x2="265" y2="257.65">
		<stop  offset="2.131116e-08" style="stop-color:#29AAE1"/>
		<stop  offset="1" style="stop-color:#005ABB"/>
	</linearGradient>
	<path class="st0" d="M265,209.6c0-73.1-59.5-132.5-132.5-132.5C59.4,77.1,0,136.6,0,209.6c0,44.9,22.5,86.5,60.2,111.1l2.2,1.4V368
		c0,38.7,31.5,70.2,70.2,70.2s70.2-31.5,70.2-70.2v-45.9l2.2-1.4C242.5,296.1,265,254.6,265,209.6z M185.8,368
		c0,29.4-23.9,53.3-53.3,53.3S79.2,397.4,79.2,368v-15.9h106.6L185.8,368L185.8,368z M190,310c-2.6,1.5-4.2,4.3-4.2,7.3v17.9h-44.9
		v-76.8l3.3-1.1c15.8-5.1,26.3-19.7,26.3-36.2c0-4.6-3.8-8.4-8.4-8.4s-8.4,3.8-8.4,8.4c0,11.7-9.5,21.2-21.2,21.2
		s-21.2-9.5-21.2-21.2c0-4.6-3.8-8.4-8.4-8.4s-8.4,3.8-8.4,8.4c0,16.5,10.6,31.1,26.3,36.2l3.3,1.1v76.8H79.2v-17.9
		c0-3-1.6-5.8-4.2-7.3c-35.9-20.6-58.2-59.1-58.2-100.4c0-63.8,51.9-115.7,115.7-115.7s115.7,51.9,115.7,115.7
		C248.2,251,225.9,289.4,190,310z"/>
	<linearGradient id="SVGID_2_" gradientUnits="userSpaceOnUse" x1="124.1" y1="20" x2="140.9" y2="20">
		<stop  offset="2.131116e-08" style="stop-color:#29AAE1"/>
		<stop  offset="1" style="stop-color:#005ABB"/>
	</linearGradient>
	<path class="st1" d="M140.9,8.4c0-4.6-3.8-8.4-8.4-8.4s-8.4,3.8-8.4,8.4v23.2c0,4.6,3.8,8.4,8.4,8.4c4.6,0,8.4-3.8,8.4-8.4V8.4z"/>
	<linearGradient id="SVGID_3_" gradientUnits="userSpaceOnUse" x1="66.1575" y1="28.85" x2="91.3425" y2="28.85">
		<stop  offset="2.131116e-08" style="stop-color:#29AAE1"/>
		<stop  offset="1" style="stop-color:#005ABB"/>
	</linearGradient>
	<path class="st2" d="M90.6,43.2c0.9-2.1,1-4.3,0.2-6.4L82.5,15c-1.2-3.3-4.4-5.4-7.9-5.4c-1,0-2,0.2-3,0.5
		c-2.1,0.8-3.8,2.4-4.7,4.4l0,0c-0.9,2.1-1,4.3-0.2,6.4l8.2,21.7c1.2,3.3,4.4,5.5,7.9,5.5c1,0,2-0.2,3-0.5
		C88,46.8,89.6,45.3,90.6,43.2z"/>
	<linearGradient id="SVGID_4_" gradientUnits="userSpaceOnUse" x1="173.7776" y1="28.9288" x2="198.7424" y2="28.9288">
		<stop  offset="2.131116e-08" style="stop-color:#29AAE1"/>
		<stop  offset="1" style="stop-color:#005ABB"/>
	</linearGradient>
	<path class="st3" d="M198.2,21c0.8-2.1,0.7-4.4-0.2-6.4c-0.9-2.1-2.6-3.6-4.7-4.4c-2.1-0.8-4.4-0.7-6.4,0.2
		c-2.1,0.9-3.6,2.6-4.4,4.7l0,0l-8.2,21.7c-1.6,4.3,0.6,9.2,4.9,10.9c1,0.4,2,0.5,3,0.5c3.5,0,6.7-2.2,7.9-5.5L198.2,21z"/>
</g>
</svg>
