<?xml version="1.0" encoding="utf-8"?>
<!-- Generator: Adobe Illustrator 23.0.6, SVG Export Plug-In . SVG Version: 6.00 Build 0)  -->
<svg version="1.1" id="Capa_1" xmlns="http://www.w3.org/2000/svg" xmlns:xlink="http://www.w3.org/1999/xlink" x="0px" y="0px"
	 viewBox="0 0 816 816" style="enable-background:new 0 0 816 816;" xml:space="preserve">
<style type="text/css">
	.st0{fill:#373940;}
</style>
<g>
	<path class="st0" d="M783.9,249.2c-20.5-48.6-50-92.2-87.4-129.7C659,82,615.4,52.6,566.8,32.1C516.5,10.8,463.1,0,408,0
		S299.5,10.8,249.2,32.1c-48.6,20.6-92.2,50-129.7,87.4C82,157,52.6,200.6,32.1,249.2C10.8,299.5,0,352.9,0,408
		s10.8,108.5,32.1,158.8c20.5,48.6,50,92.2,87.4,129.7s81.1,66.9,129.7,87.4C299.5,805.2,352.9,816,408,816s108.5-10.8,158.8-32.1
		c48.6-20.5,92.2-50,129.7-87.4c37.5-37.5,66.9-81.1,87.4-129.7C805.2,516.5,816,463.1,816,408S805.2,299.5,783.9,249.2z M408,800
		C191.9,800,16,624.2,16,408C16,191.9,191.9,16,408,16c216.2,0,392,175.9,392,392C800,624.2,624.1,800,408,800z"/>
	<path class="st0" d="M589,295.8c-14.1,8.4-29.7,14.4-46.3,17.7c-13.3-14.2-32.3-23-53.3-23c-40.3,0-73,32.7-73,73
		c0,5.7,0.6,11.3,1.9,16.6c-60.6-3-114.4-32.1-150.4-76.2c-6.3,10.8-9.9,23.3-9.9,36.7c0,25.3,12.9,47.6,32.5,60.7
		c-12-0.4-23.2-3.7-33-9.1c0,0.3,0,0.6,0,0.9c0,35.4,25.2,64.8,58.5,71.5c-6.1,1.7-12.6,2.6-19.2,2.6c-4.7,0-9.3-0.5-13.7-1.3
		c9.3,29,36.2,50.1,68.2,50.7c-25,19.6-56.4,31.2-90.6,31.2c-5.9,0-11.7-0.3-17.4-1c32.3,20.7,70.6,32.8,111.8,32.8
		c134.2,0,207.6-111.2,207.6-207.6c0-3.2-0.1-6.3-0.2-9.4c14.3-10.3,26.6-23.1,36.4-37.8c-13.1,5.8-27.2,9.7-41.9,11.5
		C572,327.2,583.5,312.9,589,295.8z"/>
</g>
</svg>
