<?xml version="1.0" encoding="utf-8"?>
<!-- Generator: Adobe Illustrator 23.0.6, SVG Export Plug-In . SVG Version: 6.00 Build 0)  -->
<svg version="1.1" id="Capa_1" xmlns="http://www.w3.org/2000/svg" xmlns:xlink="http://www.w3.org/1999/xlink" x="0px" y="0px"
	 viewBox="0 0 380.5 380.4" style="enable-background:new 0 0 380.5 380.4;" xml:space="preserve">
<style type="text/css">
	.st0{fill:#29337A;}
	.st1{fill:#FFFFFF;}
	.st2{fill:#D32030;}
	.st3{fill:#252F6C;}
	.st4{fill:#E7E7E7;}
	.st5{fill:#D71F28;}
	.st6{fill:#E51D35;}
</style>
<g>
	<g>
		<path class="st0" d="M33.6,82.5C21.3,100.3,12,120.3,6.4,141.8h86.5L33.6,82.5z"/>
		<path class="st0" d="M137,7.7c-21.9,6.4-42.2,16.6-60.1,29.8L137,97.6V7.7z"/>
		<path class="st0" d="M81.4,346.1c16.8,11.7,35.5,20.8,55.6,26.7v-82.3L81.4,346.1z"/>
		<path class="st0" d="M8.5,246.4c6.3,20.4,15.9,39.3,28.2,56.1l56.1-56.1H8.5z"/>
	</g>
	<g>
		<path class="st1" d="M36.7,78.1c-1.1,1.5-2.1,2.9-3.1,4.4l59.3,59.3H6.3c-1.4,5.3-2.5,10.8-3.5,16.3h113.8L36.7,78.1z"/>
		<path class="st1" d="M77,343c1.4,1.1,2.9,2.1,4.4,3.1l55.6-55.6v82.3c5.3,1.6,10.8,2.9,16.3,4V266.7L77,343z"/>
		<path class="st1" d="M4.3,230.1c1.2,5.5,2.6,11,4.2,16.3h84.3l-56.1,56.1c6.1,8.3,12.9,16.2,20.2,23.4l95.7-95.7L4.3,230.1
			L4.3,230.1z"/>
		<path class="st1" d="M137,7.7v89.9L76.9,37.5c-8.3,6.2-16,13-23.2,20.4l99.5,99.5V3.7C147.8,4.8,142.3,6.1,137,7.7z"/>
	</g>
	<g>
		<polygon class="st2" points="137,245.8 136.4,246.4 137,246.4 		"/>
		<polygon class="st2" points="152.7,230.1 153.3,230.1 153.3,229.5 		"/>
		<polygon class="st2" points="225.9,158 225.3,158 225.3,158.6 		"/>
		<polygon class="st2" points="137.5,141.8 137,141.2 137,141.8 		"/>
		<polygon class="st2" points="153.3,157.5 153.3,158 153.8,158 		"/>
	</g>
	<g>
		<path class="st3" d="M241.6,330.7v42.6c20.4-5.7,39.4-14.7,56.4-26.4l-46.2-46.2C248.1,313.7,246.8,320.4,241.6,330.7z"/>
		<path class="st3" d="M252,87.2l50.4-50.4c-18.1-13.3-38.7-23.4-60.8-29.6V51C247.5,62.8,248,71.8,252,87.2z"/>
		<path class="st3" d="M342.9,303.6c12.7-17.1,22.6-36.4,29-57.2h-86.2L342.9,303.6z"/>
		<path class="st3" d="M374.1,141.8c-5.8-21.9-15.4-42.3-28-60.4l-60.4,60.4H374.1z"/>
	</g>
	<g>
		<path class="st4" d="M263.1,233.3l13.1,13.1l62.5,62.5c1.4-1.8,2.8-3.5,4.2-5.4l-57.1-57.1H372c1.6-5.3,3-10.8,4.2-16.3H264.4
			C264.2,232.4,263.4,231,263.1,233.3z"/>
		<path class="st4" d="M250.1,96.7L306.8,40c-1.4-1.1-2.8-2.2-4.3-3.3l-50.4,50.4C252.6,89.2,249.6,94.7,250.1,96.7z"/>
		<path class="st4" d="M241.6,47.4V7.2c-5.3-1.5-10.8-2.8-16.3-3.8v19.7C231.4,29.6,236.8,37.8,241.6,47.4z"/>
		<path class="st4" d="M261.9,158h115.8c-0.9-5.5-2.1-10.9-3.5-16.3h-88.4l60.4-60.4c-5.9-8.5-12.5-16.5-19.7-23.8l-68,68
			C260.2,137.9,261,145,261.9,158z"/>
		<path class="st4" d="M249.1,298l48.9,48.9c8.1-5.6,15.8-11.8,23-18.6l-64.4-64.4C254.5,275.8,252.1,287.3,249.1,298z"/>
		<path class="st4" d="M225.3,355.2v21.9c5.5-1,10.9-2.3,16.3-3.8v-42.6C236.8,340.3,231.4,348.6,225.3,355.2z"/>
	</g>
	<path class="st5" d="M258.4,125.5l68-68c-6.1-6.3-12.7-12.1-19.6-17.5l-53.4,53.4C255.7,103.4,256.8,114.7,258.4,125.5z"/>
	<g>
		<path class="st2" d="M180.7,0.3c3.2-0.2,6.3-0.2,9.5-0.2C187.1,0.1,183.9,0.2,180.7,0.3z"/>
		<path class="st2" d="M190.2,380.4c-3.2,0-6.3-0.1-9.5-0.2C183.9,380.3,187.1,380.4,190.2,380.4z"/>
		<path class="st2" d="M190.2,380.4c12,0,23.7-1.2,35.1-3.3v-21.9C215.3,366,203.7,380.4,190.2,380.4z"/>
	</g>
	<g>
		<path class="st5" d="M377.6,158H263.4c1.5,23.8,1.3,48.4-0.5,72.1h113.4c2.7-12.9,4.2-26.2,4.2-39.9
			C380.4,179.3,379.4,168.5,377.6,158z"/>
		<path class="st5" d="M263.1,233.3c-1.1,11.2-4.7,20-6.6,30.6l64.4,64.4c6.4-6,12.3-12.5,17.8-19.3l-62.5-62.6L263.1,233.3z"/>
	</g>
	<path class="st2" d="M225.3,24.4v-21c-11.4-2.1-23.1-3.3-35.1-3.3C203.7,0.1,215.3,13.6,225.3,24.4z"/>
	<g>
		<path class="st0" d="M241.6,338.9c5.1-10.3,9.6-22.2,13.2-35.1l-13.2-13.2V338.9z"/>
		<path class="st0" d="M256.5,82.7c-4-15.3-9-29.3-14.9-41.1v56L256.5,82.7z"/>
	</g>
	<g>
		<path class="st1" d="M266.8,237c0.2-2.3,0.4-4.6,0.6-6.9h-7.5L266.8,237z"/>
		<path class="st1" d="M241.6,97.6v-56c-4.8-9.6-10.2-17.9-16.3-24.4v104.2L258,88.7c-0.5-2-1-4-1.5-6L241.6,97.6z"/>
		<path class="st1" d="M225.9,158H268c-0.8-13-2.1-25.8-4-38.1L225.9,158z"/>
		<path class="st1" d="M225.3,363.3c6.1-6.6,11.5-14.8,16.3-24.4v-48.4l13.2,13.2c3-10.6,5.6-22,7.6-33.9l-37.2-37.2L225.3,363.3
			L225.3,363.3z"/>
	</g>
	<path class="st6" d="M225.3,363.3V232.7l37.2,37.2c1.8-10.6,3.3-21.6,4.3-32.8l-6.9-6.9h7.5c1.9-23.7,2.1-48.2,0.5-72.1h-42.1
		l38.1-38.1c-1.6-10.8-3.6-21.3-6-31.2l-32.6,32.6V17.1C215.3,6.3,203.6,0,190.2,0c-3.2,0-6.3,0.1-9.5,0.2
		c-9.4,0.5-18.5,1.6-27.5,3.4v153.8L53.7,57.9c-6.1,6.3-11.8,13-17,20.1l63.7,63.7l16.3,16.3H2.8C1,168.5,0,179.2,0,190.2
		c0,13.7,1.5,27,4.2,39.9h148.4l-95.7,95.7c6.3,6.2,12.9,11.9,20,17.1l76.3-76.3v110.1c9,1.8,18.1,2.9,27.5,3.4
		c3.2,0.2,6.3,0.2,9.5,0.2C203.7,380.4,215.3,374.2,225.3,363.3z"/>
</g>
</svg>
